solid OpenSCAD_Model
  facet normal 1 -0 0
    outer loop
      vertex 50 -3 6
      vertex 50 3 0
      vertex 50 3 6
    endloop
  endfacet
  facet normal 1 0 0
    outer loop
      vertex 50 3 0
      vertex 50 -3 6
      vertex 50 -3 0
    endloop
  endfacet
  facet normal -0 0 1
    outer loop
      vertex -50 3 6
      vertex -48 -3 6
      vertex -48 3 6
    endloop
  endfacet
  facet normal 0 0 1
    outer loop
      vertex -48 -3 6
      vertex -50 3 6
      vertex -50 -3 6
    endloop
  endfacet
  facet normal -0 0 1
    outer loop
      vertex 47 3 6
      vertex 50 -3 6
      vertex 50 3 6
    endloop
  endfacet
  facet normal 0 0 1
    outer loop
      vertex 50 -3 6
      vertex 47 3 6
      vertex 47 -3 6
    endloop
  endfacet
  facet normal 0 0 -1
    outer loop
      vertex 37 3 6
      vertex 47 5 6
      vertex 47 3 6
    endloop
  endfacet
  facet normal -0 0 -1
    outer loop
      vertex 47 5 6
      vertex 37 3 6
      vertex 37 5 6
    endloop
  endfacet
  facet normal 0 0 -1
    outer loop
      vertex 37 -5 6
      vertex 47 -3 6
      vertex 47 -5 6
    endloop
  endfacet
  facet normal -0 0 -1
    outer loop
      vertex 47 -3 6
      vertex 37 -5 6
      vertex 37 -3 6
    endloop
  endfacet
  facet normal 0 0 -1
    outer loop
      vertex -48 3 6
      vertex -32 8 6
      vertex -32 3 6
    endloop
  endfacet
  facet normal -0 0 -1
    outer loop
      vertex -32 8 6
      vertex -48 3 6
      vertex -48 8 6
    endloop
  endfacet
  facet normal 0 0 -1
    outer loop
      vertex -48 -8 6
      vertex -32 -3 6
      vertex -32 -8 6
    endloop
  endfacet
  facet normal -0 0 -1
    outer loop
      vertex -32 -3 6
      vertex -48 -8 6
      vertex -48 -3 6
    endloop
  endfacet
  facet normal -0 0 1
    outer loop
      vertex -32 3 6
      vertex 37 -3 6
      vertex 37 3 6
    endloop
  endfacet
  facet normal 0 0 1
    outer loop
      vertex 37 -3 6
      vertex -32 3 6
      vertex -32 -3 6
    endloop
  endfacet
  facet normal 0 0 -1
    outer loop
      vertex -50 -3 0
      vertex 50 3 0
      vertex 50 -3 0
    endloop
  endfacet
  facet normal -0 0 -1
    outer loop
      vertex 50 3 0
      vertex -50 -3 0
      vertex -50 3 0
    endloop
  endfacet
  facet normal -1 0 0
    outer loop
      vertex -50 -3 0
      vertex -50 3 6
      vertex -50 3 0
    endloop
  endfacet
  facet normal -1 -0 0
    outer loop
      vertex -50 3 6
      vertex -50 -3 0
      vertex -50 -3 6
    endloop
  endfacet
  facet normal 0 1 -0
    outer loop
      vertex 50 3 0
      vertex 47 3 6
      vertex 50 3 6
    endloop
  endfacet
  facet normal 0 1 0
    outer loop
      vertex 47 3 6
      vertex 50 3 0
      vertex 37 3 6
    endloop
  endfacet
  facet normal 0 1 0
    outer loop
      vertex 37 3 6
      vertex 50 3 0
      vertex -32 3 6
    endloop
  endfacet
  facet normal 0 1 0
    outer loop
      vertex -50 3 0
      vertex -32 3 6
      vertex 50 3 0
    endloop
  endfacet
  facet normal 0 1 0
    outer loop
      vertex -32 3 6
      vertex -50 3 0
      vertex -48 3 6
    endloop
  endfacet
  facet normal 0 1 0
    outer loop
      vertex -48 3 6
      vertex -50 3 0
      vertex -50 3 6
    endloop
  endfacet
  facet normal 0 -1 0
    outer loop
      vertex -50 -3 0
      vertex -48 -3 6
      vertex -50 -3 6
    endloop
  endfacet
  facet normal 0 -1 -0
    outer loop
      vertex -48 -3 6
      vertex -50 -3 0
      vertex -32 -3 6
    endloop
  endfacet
  facet normal 0 -1 0
    outer loop
      vertex 50 -3 0
      vertex -32 -3 6
      vertex -50 -3 0
    endloop
  endfacet
  facet normal 0 -1 0
    outer loop
      vertex -32 -3 6
      vertex 50 -3 0
      vertex 37 -3 6
    endloop
  endfacet
  facet normal 0 -1 0
    outer loop
      vertex 37 -3 6
      vertex 50 -3 0
      vertex 47 -3 6
    endloop
  endfacet
  facet normal 0 -1 0
    outer loop
      vertex 47 -3 6
      vertex 50 -3 0
      vertex 50 -3 6
    endloop
  endfacet
  facet normal 0 1 0
    outer loop
      vertex 12 -8 -18
      vertex -12 -8 -18
      vertex 0 -8 0
    endloop
  endfacet
  facet normal 0 -1 -0
    outer loop
      vertex 0 -24 0
      vertex -12 -24 -18
      vertex 12 -24 -18
    endloop
  endfacet
  facet normal 0.83205 -0 0.5547
    outer loop
      vertex 0 -24 0
      vertex 12 -8 -18
      vertex 0 -8 0
    endloop
  endfacet
  facet normal 0.83205 0 0.5547
    outer loop
      vertex 12 -8 -18
      vertex 0 -24 0
      vertex 12 -24 -18
    endloop
  endfacet
  facet normal 0 0 -1
    outer loop
      vertex -12 -24 -18
      vertex 12 -8 -18
      vertex 12 -24 -18
    endloop
  endfacet
  facet normal -0 0 -1
    outer loop
      vertex 12 -8 -18
      vertex -12 -24 -18
      vertex -12 -8 -18
    endloop
  endfacet
  facet normal -0.83205 0 0.5547
    outer loop
      vertex -12 -24 -18
      vertex 0 -8 0
      vertex -12 -8 -18
    endloop
  endfacet
  facet normal -0.83205 0 0.5547
    outer loop
      vertex 0 -8 0
      vertex -12 -24 -18
      vertex 0 -24 0
    endloop
  endfacet
  facet normal 1 0 0
    outer loop
      vertex -32 8 22
      vertex -32 3 6
      vertex -32 8 6
    endloop
  endfacet
  facet normal 1 0 0
    outer loop
      vertex -32 8 22
      vertex -32 -3 6
      vertex -32 3 6
    endloop
  endfacet
  facet normal 1 -0 0
    outer loop
      vertex -32 -8 22
      vertex -32 -3 6
      vertex -32 8 22
    endloop
  endfacet
  facet normal 1 0 0
    outer loop
      vertex -32 -3 6
      vertex -32 -8 22
      vertex -32 -8 6
    endloop
  endfacet
  facet normal -0 0 1
    outer loop
      vertex -48 8 22
      vertex -32 -8 22
      vertex -32 8 22
    endloop
  endfacet
  facet normal 0 0 1
    outer loop
      vertex -32 -8 22
      vertex -48 8 22
      vertex -48 -8 22
    endloop
  endfacet
  facet normal -1 0 0
    outer loop
      vertex -48 3 6
      vertex -48 8 22
      vertex -48 8 6
    endloop
  endfacet
  facet normal -1 0 0
    outer loop
      vertex -48 -3 6
      vertex -48 8 22
      vertex -48 3 6
    endloop
  endfacet
  facet normal -1 0 0
    outer loop
      vertex -48 -8 22
      vertex -48 -3 6
      vertex -48 -8 6
    endloop
  endfacet
  facet normal -1 0 0
    outer loop
      vertex -48 -3 6
      vertex -48 -8 22
      vertex -48 8 22
    endloop
  endfacet
  facet normal 0 1 -0
    outer loop
      vertex -32 8 6
      vertex -48 8 22
      vertex -32 8 22
    endloop
  endfacet
  facet normal 0 1 0
    outer loop
      vertex -48 8 22
      vertex -32 8 6
      vertex -48 8 6
    endloop
  endfacet
  facet normal 0 -1 0
    outer loop
      vertex -48 -8 6
      vertex -32 -8 22
      vertex -48 -8 22
    endloop
  endfacet
  facet normal 0 -1 -0
    outer loop
      vertex -32 -8 22
      vertex -48 -8 6
      vertex -32 -8 6
    endloop
  endfacet
  facet normal 1 0 0
    outer loop
      vertex 47 5 16
      vertex 47 3 6
      vertex 47 5 6
    endloop
  endfacet
  facet normal 1 0 0
    outer loop
      vertex 47 5 16
      vertex 47 -3 6
      vertex 47 3 6
    endloop
  endfacet
  facet normal 1 -0 0
    outer loop
      vertex 47 -5 16
      vertex 47 -3 6
      vertex 47 5 16
    endloop
  endfacet
  facet normal 1 0 0
    outer loop
      vertex 47 -3 6
      vertex 47 -5 16
      vertex 47 -5 6
    endloop
  endfacet
  facet normal -0 0 1
    outer loop
      vertex 37 5 16
      vertex 47 -5 16
      vertex 47 5 16
    endloop
  endfacet
  facet normal 0 0 1
    outer loop
      vertex 47 -5 16
      vertex 37 5 16
      vertex 37 -5 16
    endloop
  endfacet
  facet normal -1 0 0
    outer loop
      vertex 37 3 6
      vertex 37 5 16
      vertex 37 5 6
    endloop
  endfacet
  facet normal -1 0 0
    outer loop
      vertex 37 -3 6
      vertex 37 5 16
      vertex 37 3 6
    endloop
  endfacet
  facet normal -1 0 0
    outer loop
      vertex 37 -5 16
      vertex 37 -3 6
      vertex 37 -5 6
    endloop
  endfacet
  facet normal -1 0 0
    outer loop
      vertex 37 -3 6
      vertex 37 -5 16
      vertex 37 5 16
    endloop
  endfacet
  facet normal 0 1 -0
    outer loop
      vertex 47 5 6
      vertex 37 5 16
      vertex 47 5 16
    endloop
  endfacet
  facet normal 0 1 0
    outer loop
      vertex 37 5 16
      vertex 47 5 6
      vertex 37 5 6
    endloop
  endfacet
  facet normal 0 -1 0
    outer loop
      vertex 37 -5 6
      vertex 47 -5 16
      vertex 37 -5 16
    endloop
  endfacet
  facet normal 0 -1 -0
    outer loop
      vertex 47 -5 16
      vertex 37 -5 6
      vertex 47 -5 6
    endloop
  endfacet
endsolid OpenSCAD_Model
