solid OpenSCAD_Model
  facet normal 0.499999 -0.866026 0
    outer loop
      vertex 0 -14 24
      vertex 12.1244 -7 34
      vertex 0 -14 34
    endloop
  endfacet
  facet normal 0.499999 -0.866026 0
    outer loop
      vertex 12.1244 -7 34
      vertex 0 -14 24
      vertex 12.1244 -7 24
    endloop
  endfacet
  facet normal 1 -0 0
    outer loop
      vertex 12.1244 -7 34
      vertex 12.1244 7 24
      vertex 12.1244 7 34
    endloop
  endfacet
  facet normal 1 0 0
    outer loop
      vertex 12.1244 7 24
      vertex 12.1244 -7 34
      vertex 12.1244 -7 24
    endloop
  endfacet
  facet normal -0.499999 0.866026 0
    outer loop
      vertex 0 14 24
      vertex -12.1244 7 34
      vertex 0 14 34
    endloop
  endfacet
  facet normal -0.499999 0.866026 0
    outer loop
      vertex -12.1244 7 34
      vertex 0 14 24
      vertex -12.1244 7 24
    endloop
  endfacet
  facet normal 0.499999 0.866026 -0
    outer loop
      vertex 12.1244 7 24
      vertex 0 14 34
      vertex 12.1244 7 34
    endloop
  endfacet
  facet normal 0.499999 0.866026 0
    outer loop
      vertex 0 14 34
      vertex 12.1244 7 24
      vertex 0 14 24
    endloop
  endfacet
  facet normal -1 0 0
    outer loop
      vertex -12.1244 -7 24
      vertex -12.1244 7 34
      vertex -12.1244 7 24
    endloop
  endfacet
  facet normal -1 -0 0
    outer loop
      vertex -12.1244 7 34
      vertex -12.1244 -7 24
      vertex -12.1244 -7 34
    endloop
  endfacet
  facet normal -0.499999 -0.866026 0
    outer loop
      vertex -12.1244 -7 24
      vertex 0 -14 34
      vertex -12.1244 -7 34
    endloop
  endfacet
  facet normal -0.499999 -0.866026 -0
    outer loop
      vertex 0 -14 34
      vertex -12.1244 -7 24
      vertex 0 -14 24
    endloop
  endfacet
  facet normal 0 0 1
    outer loop
      vertex 12.1244 7 34
      vertex 6 0 34
      vertex 12.1244 -7 34
    endloop
  endfacet
  facet normal 0 0 1
    outer loop
      vertex 12.1244 7 34
      vertex 5.96713 0.627171 34
      vertex 6 0 34
    endloop
  endfacet
  facet normal 0 0 1
    outer loop
      vertex 12.1244 7 34
      vertex 5.86889 1.24747 34
      vertex 5.96713 0.627171 34
    endloop
  endfacet
  facet normal 0 0 1
    outer loop
      vertex 12.1244 7 34
      vertex 5.70634 1.8541 34
      vertex 5.86889 1.24747 34
    endloop
  endfacet
  facet normal 0 0 1
    outer loop
      vertex 12.1244 7 34
      vertex 5.48127 2.44042 34
      vertex 5.70634 1.8541 34
    endloop
  endfacet
  facet normal 0 0 1
    outer loop
      vertex 12.1244 7 34
      vertex 5.19615 3 34
      vertex 5.48127 2.44042 34
    endloop
  endfacet
  facet normal 0 0 1
    outer loop
      vertex 12.1244 7 34
      vertex 4.8541 3.52671 34
      vertex 5.19615 3 34
    endloop
  endfacet
  facet normal 0 0 1
    outer loop
      vertex 12.1244 7 34
      vertex 4.45887 4.01478 34
      vertex 4.8541 3.52671 34
    endloop
  endfacet
  facet normal 0 0 1
    outer loop
      vertex 12.1244 7 34
      vertex 4.01478 4.45887 34
      vertex 4.45887 4.01478 34
    endloop
  endfacet
  facet normal 0 0 1
    outer loop
      vertex 12.1244 7 34
      vertex 3.52671 4.8541 34
      vertex 4.01478 4.45887 34
    endloop
  endfacet
  facet normal 0 0 1
    outer loop
      vertex 12.1244 7 34
      vertex 3 5.19615 34
      vertex 3.52671 4.8541 34
    endloop
  endfacet
  facet normal 0 0 1
    outer loop
      vertex 0 14 34
      vertex 3 5.19615 34
      vertex 12.1244 7 34
    endloop
  endfacet
  facet normal 0 0 1
    outer loop
      vertex 3 5.19615 34
      vertex 0 14 34
      vertex 2.44042 5.48127 34
    endloop
  endfacet
  facet normal 0 0 1
    outer loop
      vertex 2.44042 5.48127 34
      vertex 0 14 34
      vertex 1.8541 5.70634 34
    endloop
  endfacet
  facet normal 0 0 1
    outer loop
      vertex 1.8541 5.70634 34
      vertex 0 14 34
      vertex 1.24747 5.86889 34
    endloop
  endfacet
  facet normal 0 0 1
    outer loop
      vertex 1.24747 5.86889 34
      vertex 0 14 34
      vertex 0.627171 5.96713 34
    endloop
  endfacet
  facet normal 0 0 1
    outer loop
      vertex 0 14 34
      vertex 0 6 34
      vertex 0.627171 5.96713 34
    endloop
  endfacet
  facet normal 0 0 1
    outer loop
      vertex 0 14 34
      vertex -0.627171 5.96713 34
      vertex 0 6 34
    endloop
  endfacet
  facet normal 0 0 1
    outer loop
      vertex 0 14 34
      vertex -1.24747 5.86889 34
      vertex -0.627171 5.96713 34
    endloop
  endfacet
  facet normal 0 0 1
    outer loop
      vertex 0 14 34
      vertex -1.8541 5.70634 34
      vertex -1.24747 5.86889 34
    endloop
  endfacet
  facet normal 0 0 1
    outer loop
      vertex 0 14 34
      vertex -2.44042 5.48127 34
      vertex -1.8541 5.70634 34
    endloop
  endfacet
  facet normal 0 0 1
    outer loop
      vertex 0 14 34
      vertex -3 5.19615 34
      vertex -2.44042 5.48127 34
    endloop
  endfacet
  facet normal -0 0 1
    outer loop
      vertex -12.1244 7 34
      vertex -3 5.19615 34
      vertex 0 14 34
    endloop
  endfacet
  facet normal 0 0 1
    outer loop
      vertex -3 5.19615 34
      vertex -12.1244 7 34
      vertex -3.52671 4.8541 34
    endloop
  endfacet
  facet normal 0 0 1
    outer loop
      vertex -3.52671 4.8541 34
      vertex -12.1244 7 34
      vertex -4.01478 4.45887 34
    endloop
  endfacet
  facet normal 0 0 1
    outer loop
      vertex -4.01478 4.45887 34
      vertex -12.1244 7 34
      vertex -4.45887 4.01478 34
    endloop
  endfacet
  facet normal 0 0 1
    outer loop
      vertex -4.45887 4.01478 34
      vertex -12.1244 7 34
      vertex -4.8541 3.52671 34
    endloop
  endfacet
  facet normal 0 0 1
    outer loop
      vertex -4.8541 3.52671 34
      vertex -12.1244 7 34
      vertex -5.19615 3 34
    endloop
  endfacet
  facet normal 0 0 1
    outer loop
      vertex -5.96713 0.627171 34
      vertex -12.1244 7 34
      vertex -6 0 34
    endloop
  endfacet
  facet normal 0 0 1
    outer loop
      vertex -5.86889 1.24747 34
      vertex -12.1244 7 34
      vertex -5.96713 0.627171 34
    endloop
  endfacet
  facet normal 0 0 1
    outer loop
      vertex -5.70634 1.8541 34
      vertex -12.1244 7 34
      vertex -5.86889 1.24747 34
    endloop
  endfacet
  facet normal 0 0 1
    outer loop
      vertex -5.48127 2.44042 34
      vertex -12.1244 7 34
      vertex -5.70634 1.8541 34
    endloop
  endfacet
  facet normal 0 0 1
    outer loop
      vertex -5.19615 3 34
      vertex -12.1244 7 34
      vertex -5.48127 2.44042 34
    endloop
  endfacet
  facet normal -0 0 1
    outer loop
      vertex 5.96713 -0.627171 34
      vertex 12.1244 -7 34
      vertex 6 0 34
    endloop
  endfacet
  facet normal -0 0 1
    outer loop
      vertex 5.86889 -1.24747 34
      vertex 12.1244 -7 34
      vertex 5.96713 -0.627171 34
    endloop
  endfacet
  facet normal -0 0 1
    outer loop
      vertex 5.70634 -1.8541 34
      vertex 12.1244 -7 34
      vertex 5.86889 -1.24747 34
    endloop
  endfacet
  facet normal -0 0 1
    outer loop
      vertex 5.48127 -2.44042 34
      vertex 12.1244 -7 34
      vertex 5.70634 -1.8541 34
    endloop
  endfacet
  facet normal -0 0 1
    outer loop
      vertex 5.19615 -3 34
      vertex 12.1244 -7 34
      vertex 5.48127 -2.44042 34
    endloop
  endfacet
  facet normal -0 0 1
    outer loop
      vertex 4.8541 -3.52671 34
      vertex 12.1244 -7 34
      vertex 5.19615 -3 34
    endloop
  endfacet
  facet normal -0 0 1
    outer loop
      vertex 4.45887 -4.01478 34
      vertex 12.1244 -7 34
      vertex 4.8541 -3.52671 34
    endloop
  endfacet
  facet normal -0 0 1
    outer loop
      vertex 4.01478 -4.45887 34
      vertex 12.1244 -7 34
      vertex 4.45887 -4.01478 34
    endloop
  endfacet
  facet normal -0 0 1
    outer loop
      vertex 3.52671 -4.8541 34
      vertex 12.1244 -7 34
      vertex 4.01478 -4.45887 34
    endloop
  endfacet
  facet normal -0 0 1
    outer loop
      vertex 3 -5.19615 34
      vertex 12.1244 -7 34
      vertex 3.52671 -4.8541 34
    endloop
  endfacet
  facet normal 0 0 1
    outer loop
      vertex 0 -14 34
      vertex 3 -5.19615 34
      vertex 2.44042 -5.48127 34
    endloop
  endfacet
  facet normal 0 0 1
    outer loop
      vertex 0 -14 34
      vertex 2.44042 -5.48127 34
      vertex 1.8541 -5.70634 34
    endloop
  endfacet
  facet normal 0 0 1
    outer loop
      vertex 0 -14 34
      vertex 1.8541 -5.70634 34
      vertex 1.24747 -5.86889 34
    endloop
  endfacet
  facet normal 0 0 1
    outer loop
      vertex 0 -14 34
      vertex 1.24747 -5.86889 34
      vertex 0.627171 -5.96713 34
    endloop
  endfacet
  facet normal 0 0 1
    outer loop
      vertex 0 -14 34
      vertex 0.627171 -5.96713 34
      vertex 0 -6 34
    endloop
  endfacet
  facet normal 0 0 1
    outer loop
      vertex 3 -5.19615 34
      vertex 0 -14 34
      vertex 12.1244 -7 34
    endloop
  endfacet
  facet normal 0 0 1
    outer loop
      vertex -0.627171 -5.96713 34
      vertex 0 -14 34
      vertex 0 -6 34
    endloop
  endfacet
  facet normal 0 0 1
    outer loop
      vertex -1.24747 -5.86889 34
      vertex 0 -14 34
      vertex -0.627171 -5.96713 34
    endloop
  endfacet
  facet normal 0 0 1
    outer loop
      vertex -1.8541 -5.70634 34
      vertex 0 -14 34
      vertex -1.24747 -5.86889 34
    endloop
  endfacet
  facet normal 0 0 1
    outer loop
      vertex -2.44042 -5.48127 34
      vertex 0 -14 34
      vertex -1.8541 -5.70634 34
    endloop
  endfacet
  facet normal 0 0 1
    outer loop
      vertex -3 -5.19615 34
      vertex 0 -14 34
      vertex -2.44042 -5.48127 34
    endloop
  endfacet
  facet normal 0 0 1
    outer loop
      vertex -12.1244 -7 34
      vertex -3 -5.19615 34
      vertex -3.52671 -4.8541 34
    endloop
  endfacet
  facet normal 0 0 1
    outer loop
      vertex -12.1244 -7 34
      vertex -3.52671 -4.8541 34
      vertex -4.01478 -4.45887 34
    endloop
  endfacet
  facet normal 0 0 1
    outer loop
      vertex -12.1244 -7 34
      vertex -4.01478 -4.45887 34
      vertex -4.45887 -4.01478 34
    endloop
  endfacet
  facet normal 0 0 1
    outer loop
      vertex -12.1244 -7 34
      vertex -4.45887 -4.01478 34
      vertex -4.8541 -3.52671 34
    endloop
  endfacet
  facet normal 0 0 1
    outer loop
      vertex -12.1244 -7 34
      vertex -4.8541 -3.52671 34
      vertex -5.19615 -3 34
    endloop
  endfacet
  facet normal 0 0 1
    outer loop
      vertex -12.1244 -7 34
      vertex -5.19615 -3 34
      vertex -5.48127 -2.44042 34
    endloop
  endfacet
  facet normal 0 0 1
    outer loop
      vertex -12.1244 -7 34
      vertex -6 0 34
      vertex -12.1244 7 34
    endloop
  endfacet
  facet normal 0 0 1
    outer loop
      vertex -6 0 34
      vertex -12.1244 -7 34
      vertex -5.96713 -0.627171 34
    endloop
  endfacet
  facet normal 0 0 1
    outer loop
      vertex -5.96713 -0.627171 34
      vertex -12.1244 -7 34
      vertex -5.86889 -1.24747 34
    endloop
  endfacet
  facet normal 0 0 1
    outer loop
      vertex -5.86889 -1.24747 34
      vertex -12.1244 -7 34
      vertex -5.70634 -1.8541 34
    endloop
  endfacet
  facet normal 0 0 1
    outer loop
      vertex -5.70634 -1.8541 34
      vertex -12.1244 -7 34
      vertex -5.48127 -2.44042 34
    endloop
  endfacet
  facet normal 0 0 1
    outer loop
      vertex -3 -5.19615 34
      vertex -12.1244 -7 34
      vertex 0 -14 34
    endloop
  endfacet
  facet normal 0 0 -1
    outer loop
      vertex 12.1244 -7 24
      vertex 6 0 24
      vertex 12.1244 7 24
    endloop
  endfacet
  facet normal 0 0 -1
    outer loop
      vertex 12.1244 -7 24
      vertex 5.96713 -0.627171 24
      vertex 6 0 24
    endloop
  endfacet
  facet normal 0 0 -1
    outer loop
      vertex 12.1244 -7 24
      vertex 5.86889 -1.24747 24
      vertex 5.96713 -0.627171 24
    endloop
  endfacet
  facet normal 0 0 -1
    outer loop
      vertex 12.1244 -7 24
      vertex 5.70634 -1.8541 24
      vertex 5.86889 -1.24747 24
    endloop
  endfacet
  facet normal 0 0 -1
    outer loop
      vertex 12.1244 -7 24
      vertex 5.48127 -2.44042 24
      vertex 5.70634 -1.8541 24
    endloop
  endfacet
  facet normal 0 0 -1
    outer loop
      vertex 12.1244 -7 24
      vertex 5.19615 -3 24
      vertex 5.48127 -2.44042 24
    endloop
  endfacet
  facet normal 0 0 -1
    outer loop
      vertex 12.1244 -7 24
      vertex 4.8541 -3.52671 24
      vertex 5.19615 -3 24
    endloop
  endfacet
  facet normal 0 0 -1
    outer loop
      vertex 12.1244 -7 24
      vertex 4.45887 -4.01478 24
      vertex 4.8541 -3.52671 24
    endloop
  endfacet
  facet normal 0 0 -1
    outer loop
      vertex 12.1244 -7 24
      vertex 4.01478 -4.45887 24
      vertex 4.45887 -4.01478 24
    endloop
  endfacet
  facet normal 0 0 -1
    outer loop
      vertex 12.1244 -7 24
      vertex 3.52671 -4.8541 24
      vertex 4.01478 -4.45887 24
    endloop
  endfacet
  facet normal 0 0 -1
    outer loop
      vertex 12.1244 -7 24
      vertex 3 -5.19615 24
      vertex 3.52671 -4.8541 24
    endloop
  endfacet
  facet normal 0 0 -1
    outer loop
      vertex 0 -14 24
      vertex 3 -5.19615 24
      vertex 12.1244 -7 24
    endloop
  endfacet
  facet normal 0 0 -1
    outer loop
      vertex 3 -5.19615 24
      vertex 0 -14 24
      vertex 2.44042 -5.48127 24
    endloop
  endfacet
  facet normal 0 0 -1
    outer loop
      vertex 2.44042 -5.48127 24
      vertex 0 -14 24
      vertex 1.8541 -5.70634 24
    endloop
  endfacet
  facet normal 0 0 -1
    outer loop
      vertex 1.8541 -5.70634 24
      vertex 0 -14 24
      vertex 1.24747 -5.86889 24
    endloop
  endfacet
  facet normal 0 0 -1
    outer loop
      vertex 1.24747 -5.86889 24
      vertex 0 -14 24
      vertex 0.627171 -5.96713 24
    endloop
  endfacet
  facet normal 0 0 -1
    outer loop
      vertex 0 -14 24
      vertex 0 -6 24
      vertex 0.627171 -5.96713 24
    endloop
  endfacet
  facet normal 0 0 -1
    outer loop
      vertex 0 -14 24
      vertex -0.627171 -5.96713 24
      vertex 0 -6 24
    endloop
  endfacet
  facet normal 0 0 -1
    outer loop
      vertex 0 -14 24
      vertex -1.24747 -5.86889 24
      vertex -0.627171 -5.96713 24
    endloop
  endfacet
  facet normal 0 0 -1
    outer loop
      vertex 0 -14 24
      vertex -1.8541 -5.70634 24
      vertex -1.24747 -5.86889 24
    endloop
  endfacet
  facet normal 0 0 -1
    outer loop
      vertex 0 -14 24
      vertex -2.44042 -5.48127 24
      vertex -1.8541 -5.70634 24
    endloop
  endfacet
  facet normal 0 0 -1
    outer loop
      vertex 0 -14 24
      vertex -3 -5.19615 24
      vertex -2.44042 -5.48127 24
    endloop
  endfacet
  facet normal 0 0 -1
    outer loop
      vertex -12.1244 -7 24
      vertex -3 -5.19615 24
      vertex 0 -14 24
    endloop
  endfacet
  facet normal -0 0 -1
    outer loop
      vertex -3 -5.19615 24
      vertex -12.1244 -7 24
      vertex -3.52671 -4.8541 24
    endloop
  endfacet
  facet normal -0 0 -1
    outer loop
      vertex -3.52671 -4.8541 24
      vertex -12.1244 -7 24
      vertex -4.01478 -4.45887 24
    endloop
  endfacet
  facet normal -0 0 -1
    outer loop
      vertex -4.01478 -4.45887 24
      vertex -12.1244 -7 24
      vertex -4.45887 -4.01478 24
    endloop
  endfacet
  facet normal -0 0 -1
    outer loop
      vertex -4.45887 -4.01478 24
      vertex -12.1244 -7 24
      vertex -4.8541 -3.52671 24
    endloop
  endfacet
  facet normal -0 0 -1
    outer loop
      vertex -4.8541 -3.52671 24
      vertex -12.1244 -7 24
      vertex -5.19615 -3 24
    endloop
  endfacet
  facet normal -0 0 -1
    outer loop
      vertex -5.96713 -0.627171 24
      vertex -12.1244 -7 24
      vertex -6 0 24
    endloop
  endfacet
  facet normal -0 0 -1
    outer loop
      vertex -5.86889 -1.24747 24
      vertex -12.1244 -7 24
      vertex -5.96713 -0.627171 24
    endloop
  endfacet
  facet normal -0 0 -1
    outer loop
      vertex -5.70634 -1.8541 24
      vertex -12.1244 -7 24
      vertex -5.86889 -1.24747 24
    endloop
  endfacet
  facet normal -0 0 -1
    outer loop
      vertex -5.48127 -2.44042 24
      vertex -12.1244 -7 24
      vertex -5.70634 -1.8541 24
    endloop
  endfacet
  facet normal -0 0 -1
    outer loop
      vertex -5.19615 -3 24
      vertex -12.1244 -7 24
      vertex -5.48127 -2.44042 24
    endloop
  endfacet
  facet normal 0 0 -1
    outer loop
      vertex 5.96713 0.627171 24
      vertex 12.1244 7 24
      vertex 6 0 24
    endloop
  endfacet
  facet normal 0 0 -1
    outer loop
      vertex 5.86889 1.24747 24
      vertex 12.1244 7 24
      vertex 5.96713 0.627171 24
    endloop
  endfacet
  facet normal 0 0 -1
    outer loop
      vertex 5.70634 1.8541 24
      vertex 12.1244 7 24
      vertex 5.86889 1.24747 24
    endloop
  endfacet
  facet normal 0 0 -1
    outer loop
      vertex 5.48127 2.44042 24
      vertex 12.1244 7 24
      vertex 5.70634 1.8541 24
    endloop
  endfacet
  facet normal 0 0 -1
    outer loop
      vertex 5.19615 3 24
      vertex 12.1244 7 24
      vertex 5.48127 2.44042 24
    endloop
  endfacet
  facet normal 0 0 -1
    outer loop
      vertex 4.8541 3.52671 24
      vertex 12.1244 7 24
      vertex 5.19615 3 24
    endloop
  endfacet
  facet normal 0 0 -1
    outer loop
      vertex 4.45887 4.01478 24
      vertex 12.1244 7 24
      vertex 4.8541 3.52671 24
    endloop
  endfacet
  facet normal 0 0 -1
    outer loop
      vertex 4.01478 4.45887 24
      vertex 12.1244 7 24
      vertex 4.45887 4.01478 24
    endloop
  endfacet
  facet normal 0 0 -1
    outer loop
      vertex 3.52671 4.8541 24
      vertex 12.1244 7 24
      vertex 4.01478 4.45887 24
    endloop
  endfacet
  facet normal 0 0 -1
    outer loop
      vertex 3 5.19615 24
      vertex 12.1244 7 24
      vertex 3.52671 4.8541 24
    endloop
  endfacet
  facet normal 0 0 -1
    outer loop
      vertex 0 14 24
      vertex 3 5.19615 24
      vertex 2.44042 5.48127 24
    endloop
  endfacet
  facet normal 0 0 -1
    outer loop
      vertex 0 14 24
      vertex 2.44042 5.48127 24
      vertex 1.8541 5.70634 24
    endloop
  endfacet
  facet normal 0 0 -1
    outer loop
      vertex 0 14 24
      vertex 1.8541 5.70634 24
      vertex 1.24747 5.86889 24
    endloop
  endfacet
  facet normal 0 0 -1
    outer loop
      vertex 0 14 24
      vertex 1.24747 5.86889 24
      vertex 0.627171 5.96713 24
    endloop
  endfacet
  facet normal 0 0 -1
    outer loop
      vertex 0 14 24
      vertex 0.627171 5.96713 24
      vertex 0 6 24
    endloop
  endfacet
  facet normal 0 0 -1
    outer loop
      vertex 3 5.19615 24
      vertex 0 14 24
      vertex 12.1244 7 24
    endloop
  endfacet
  facet normal 0 0 -1
    outer loop
      vertex -0.627171 5.96713 24
      vertex 0 14 24
      vertex 0 6 24
    endloop
  endfacet
  facet normal 0 0 -1
    outer loop
      vertex -1.24747 5.86889 24
      vertex 0 14 24
      vertex -0.627171 5.96713 24
    endloop
  endfacet
  facet normal 0 0 -1
    outer loop
      vertex -1.8541 5.70634 24
      vertex 0 14 24
      vertex -1.24747 5.86889 24
    endloop
  endfacet
  facet normal 0 0 -1
    outer loop
      vertex -2.44042 5.48127 24
      vertex 0 14 24
      vertex -1.8541 5.70634 24
    endloop
  endfacet
  facet normal 0 0 -1
    outer loop
      vertex -3 5.19615 24
      vertex 0 14 24
      vertex -2.44042 5.48127 24
    endloop
  endfacet
  facet normal 0 0 -1
    outer loop
      vertex -12.1244 7 24
      vertex -3 5.19615 24
      vertex -3.52671 4.8541 24
    endloop
  endfacet
  facet normal 0 0 -1
    outer loop
      vertex -12.1244 7 24
      vertex -3.52671 4.8541 24
      vertex -4.01478 4.45887 24
    endloop
  endfacet
  facet normal 0 0 -1
    outer loop
      vertex -12.1244 7 24
      vertex -4.01478 4.45887 24
      vertex -4.45887 4.01478 24
    endloop
  endfacet
  facet normal 0 0 -1
    outer loop
      vertex -12.1244 7 24
      vertex -4.45887 4.01478 24
      vertex -4.8541 3.52671 24
    endloop
  endfacet
  facet normal 0 0 -1
    outer loop
      vertex -12.1244 7 24
      vertex -4.8541 3.52671 24
      vertex -5.19615 3 24
    endloop
  endfacet
  facet normal 0 0 -1
    outer loop
      vertex -12.1244 7 24
      vertex -5.19615 3 24
      vertex -5.48127 2.44042 24
    endloop
  endfacet
  facet normal 0 0 -1
    outer loop
      vertex -12.1244 7 24
      vertex -6 0 24
      vertex -12.1244 -7 24
    endloop
  endfacet
  facet normal 0 0 -1
    outer loop
      vertex -6 0 24
      vertex -12.1244 7 24
      vertex -5.96713 0.627171 24
    endloop
  endfacet
  facet normal 0 0 -1
    outer loop
      vertex -5.96713 0.627171 24
      vertex -12.1244 7 24
      vertex -5.86889 1.24747 24
    endloop
  endfacet
  facet normal 0 0 -1
    outer loop
      vertex -5.86889 1.24747 24
      vertex -12.1244 7 24
      vertex -5.70634 1.8541 24
    endloop
  endfacet
  facet normal 0 0 -1
    outer loop
      vertex -5.70634 1.8541 24
      vertex -12.1244 7 24
      vertex -5.48127 2.44042 24
    endloop
  endfacet
  facet normal 0 0 -1
    outer loop
      vertex -3 5.19615 24
      vertex -12.1244 7 24
      vertex 0 14 24
    endloop
  endfacet
  facet normal -0.45399 0.891007 0
    outer loop
      vertex -2.44042 5.48127 0
      vertex -3 5.19615 24
      vertex -2.44042 5.48127 24
    endloop
  endfacet
  facet normal -0.45399 0.891007 0
    outer loop
      vertex -3 5.19615 24
      vertex -2.44042 5.48127 0
      vertex -3 5.19615 0
    endloop
  endfacet
  facet normal -0.45399 0.891007 0
    outer loop
      vertex -2.44042 5.48127 34
      vertex -3 5.19615 50
      vertex -2.44042 5.48127 50
    endloop
  endfacet
  facet normal -0.45399 0.891007 0
    outer loop
      vertex -3 5.19615 50
      vertex -2.44042 5.48127 34
      vertex -3 5.19615 34
    endloop
  endfacet
  facet normal 0.98769 0.156426 0
    outer loop
      vertex 5.96713 0.627171 50
      vertex 5.86889 1.24747 34
      vertex 5.86889 1.24747 50
    endloop
  endfacet
  facet normal 0.98769 0.156426 0
    outer loop
      vertex 5.86889 1.24747 34
      vertex 5.96713 0.627171 50
      vertex 5.96713 0.627171 34
    endloop
  endfacet
  facet normal 0.98769 0.156426 0
    outer loop
      vertex 5.96713 0.627171 24
      vertex 5.86889 1.24747 0
      vertex 5.86889 1.24747 24
    endloop
  endfacet
  facet normal 0.98769 0.156426 0
    outer loop
      vertex 5.86889 1.24747 0
      vertex 5.96713 0.627171 24
      vertex 5.96713 0.627171 0
    endloop
  endfacet
  facet normal 0.998629 0.0523381 0
    outer loop
      vertex 6 0 24
      vertex 5.96713 0.627171 0
      vertex 5.96713 0.627171 24
    endloop
  endfacet
  facet normal 0.998629 0.0523381 0
    outer loop
      vertex 5.96713 0.627171 0
      vertex 6 0 24
      vertex 6 0 0
    endloop
  endfacet
  facet normal 0.998629 0.0523381 0
    outer loop
      vertex 6 0 50
      vertex 5.96713 0.627171 34
      vertex 5.96713 0.627171 50
    endloop
  endfacet
  facet normal 0.998629 0.0523381 0
    outer loop
      vertex 5.96713 0.627171 34
      vertex 6 0 50
      vertex 6 0 34
    endloop
  endfacet
  facet normal 0.965924 0.258825 0
    outer loop
      vertex 5.86889 1.24747 50
      vertex 5.70634 1.8541 34
      vertex 5.70634 1.8541 50
    endloop
  endfacet
  facet normal 0.965924 0.258825 0
    outer loop
      vertex 5.70634 1.8541 34
      vertex 5.86889 1.24747 50
      vertex 5.86889 1.24747 34
    endloop
  endfacet
  facet normal 0.965924 0.258825 0
    outer loop
      vertex 5.86889 1.24747 24
      vertex 5.70634 1.8541 0
      vertex 5.70634 1.8541 24
    endloop
  endfacet
  facet normal 0.965924 0.258825 0
    outer loop
      vertex 5.70634 1.8541 0
      vertex 5.86889 1.24747 24
      vertex 5.86889 1.24747 0
    endloop
  endfacet
  facet normal 0.156426 0.98769 -0
    outer loop
      vertex 1.24747 5.86889 0
      vertex 0.627171 5.96713 24
      vertex 1.24747 5.86889 24
    endloop
  endfacet
  facet normal 0.156426 0.98769 0
    outer loop
      vertex 0.627171 5.96713 24
      vertex 1.24747 5.86889 0
      vertex 0.627171 5.96713 0
    endloop
  endfacet
  facet normal 0.156426 0.98769 -0
    outer loop
      vertex 1.24747 5.86889 34
      vertex 0.627171 5.96713 50
      vertex 1.24747 5.86889 50
    endloop
  endfacet
  facet normal 0.156426 0.98769 0
    outer loop
      vertex 0.627171 5.96713 50
      vertex 1.24747 5.86889 34
      vertex 0.627171 5.96713 34
    endloop
  endfacet
  facet normal -0.358372 0.933579 0
    outer loop
      vertex -1.8541 5.70634 0
      vertex -2.44042 5.48127 24
      vertex -1.8541 5.70634 24
    endloop
  endfacet
  facet normal -0.358372 0.933579 0
    outer loop
      vertex -2.44042 5.48127 24
      vertex -1.8541 5.70634 0
      vertex -2.44042 5.48127 0
    endloop
  endfacet
  facet normal -0.358372 0.933579 0
    outer loop
      vertex -1.8541 5.70634 34
      vertex -2.44042 5.48127 50
      vertex -1.8541 5.70634 50
    endloop
  endfacet
  facet normal -0.358372 0.933579 0
    outer loop
      vertex -2.44042 5.48127 50
      vertex -1.8541 5.70634 34
      vertex -2.44042 5.48127 34
    endloop
  endfacet
  facet normal 0.45399 -0.891007 0
    outer loop
      vertex 2.44042 -5.48127 34
      vertex 3 -5.19615 50
      vertex 2.44042 -5.48127 50
    endloop
  endfacet
  facet normal 0.45399 -0.891007 0
    outer loop
      vertex 3 -5.19615 50
      vertex 2.44042 -5.48127 34
      vertex 3 -5.19615 34
    endloop
  endfacet
  facet normal 0.45399 -0.891007 0
    outer loop
      vertex 2.44042 -5.48127 0
      vertex 3 -5.19615 24
      vertex 2.44042 -5.48127 24
    endloop
  endfacet
  facet normal 0.45399 -0.891007 0
    outer loop
      vertex 3 -5.19615 24
      vertex 2.44042 -5.48127 0
      vertex 3 -5.19615 0
    endloop
  endfacet
  facet normal 0.707107 0.707107 0
    outer loop
      vertex 4.45887 4.01478 50
      vertex 4.01478 4.45887 34
      vertex 4.01478 4.45887 50
    endloop
  endfacet
  facet normal 0.707107 0.707107 0
    outer loop
      vertex 4.01478 4.45887 34
      vertex 4.45887 4.01478 50
      vertex 4.45887 4.01478 34
    endloop
  endfacet
  facet normal 0.707107 0.707107 0
    outer loop
      vertex 4.45887 4.01478 24
      vertex 4.01478 4.45887 0
      vertex 4.01478 4.45887 24
    endloop
  endfacet
  facet normal 0.707107 0.707107 0
    outer loop
      vertex 4.01478 4.45887 0
      vertex 4.45887 4.01478 24
      vertex 4.45887 4.01478 0
    endloop
  endfacet
  facet normal -0.707107 0.707107 0
    outer loop
      vertex -4.45887 4.01478 0
      vertex -4.01478 4.45887 24
      vertex -4.01478 4.45887 0
    endloop
  endfacet
  facet normal -0.707107 0.707107 0
    outer loop
      vertex -4.01478 4.45887 24
      vertex -4.45887 4.01478 0
      vertex -4.45887 4.01478 24
    endloop
  endfacet
  facet normal -0.707107 0.707107 0
    outer loop
      vertex -4.45887 4.01478 34
      vertex -4.01478 4.45887 50
      vertex -4.01478 4.45887 34
    endloop
  endfacet
  facet normal -0.707107 0.707107 0
    outer loop
      vertex -4.01478 4.45887 50
      vertex -4.45887 4.01478 34
      vertex -4.45887 4.01478 50
    endloop
  endfacet
  facet normal -0.258825 0.965924 0
    outer loop
      vertex -1.24747 5.86889 0
      vertex -1.8541 5.70634 24
      vertex -1.24747 5.86889 24
    endloop
  endfacet
  facet normal -0.258825 0.965924 0
    outer loop
      vertex -1.8541 5.70634 24
      vertex -1.24747 5.86889 0
      vertex -1.8541 5.70634 0
    endloop
  endfacet
  facet normal -0.258825 0.965924 0
    outer loop
      vertex -1.24747 5.86889 34
      vertex -1.8541 5.70634 50
      vertex -1.24747 5.86889 50
    endloop
  endfacet
  facet normal -0.258825 0.965924 0
    outer loop
      vertex -1.8541 5.70634 50
      vertex -1.24747 5.86889 34
      vertex -1.8541 5.70634 34
    endloop
  endfacet
  facet normal -0.83867 -0.54464 0
    outer loop
      vertex -4.8541 -3.52671 34
      vertex -5.19615 -3 50
      vertex -5.19615 -3 34
    endloop
  endfacet
  facet normal -0.83867 -0.54464 0
    outer loop
      vertex -5.19615 -3 50
      vertex -4.8541 -3.52671 34
      vertex -4.8541 -3.52671 50
    endloop
  endfacet
  facet normal -0.83867 -0.54464 0
    outer loop
      vertex -4.8541 -3.52671 0
      vertex -5.19615 -3 24
      vertex -5.19615 -3 0
    endloop
  endfacet
  facet normal -0.83867 -0.54464 0
    outer loop
      vertex -5.19615 -3 24
      vertex -4.8541 -3.52671 0
      vertex -4.8541 -3.52671 24
    endloop
  endfacet
  facet normal -0.933579 -0.358372 0
    outer loop
      vertex -5.48127 -2.44042 34
      vertex -5.70634 -1.8541 50
      vertex -5.70634 -1.8541 34
    endloop
  endfacet
  facet normal -0.933579 -0.358372 0
    outer loop
      vertex -5.70634 -1.8541 50
      vertex -5.48127 -2.44042 34
      vertex -5.48127 -2.44042 50
    endloop
  endfacet
  facet normal -0.933579 -0.358372 0
    outer loop
      vertex -5.48127 -2.44042 0
      vertex -5.70634 -1.8541 24
      vertex -5.70634 -1.8541 0
    endloop
  endfacet
  facet normal -0.933579 -0.358372 0
    outer loop
      vertex -5.70634 -1.8541 24
      vertex -5.48127 -2.44042 0
      vertex -5.48127 -2.44042 24
    endloop
  endfacet
  facet normal 0.933579 0.358372 0
    outer loop
      vertex 5.70634 1.8541 50
      vertex 5.48127 2.44042 34
      vertex 5.48127 2.44042 50
    endloop
  endfacet
  facet normal 0.933579 0.358372 0
    outer loop
      vertex 5.48127 2.44042 34
      vertex 5.70634 1.8541 50
      vertex 5.70634 1.8541 34
    endloop
  endfacet
  facet normal 0.933579 0.358372 0
    outer loop
      vertex 5.70634 1.8541 24
      vertex 5.48127 2.44042 0
      vertex 5.48127 2.44042 24
    endloop
  endfacet
  facet normal 0.933579 0.358372 0
    outer loop
      vertex 5.48127 2.44042 0
      vertex 5.70634 1.8541 24
      vertex 5.70634 1.8541 0
    endloop
  endfacet
  facet normal 0.777147 0.629319 0
    outer loop
      vertex 4.8541 3.52671 24
      vertex 4.45887 4.01478 0
      vertex 4.45887 4.01478 24
    endloop
  endfacet
  facet normal 0.777147 0.629319 0
    outer loop
      vertex 4.45887 4.01478 0
      vertex 4.8541 3.52671 24
      vertex 4.8541 3.52671 0
    endloop
  endfacet
  facet normal 0.777147 0.629319 0
    outer loop
      vertex 4.8541 3.52671 50
      vertex 4.45887 4.01478 34
      vertex 4.45887 4.01478 50
    endloop
  endfacet
  facet normal 0.777147 0.629319 0
    outer loop
      vertex 4.45887 4.01478 34
      vertex 4.8541 3.52671 50
      vertex 4.8541 3.52671 34
    endloop
  endfacet
  facet normal 0 0 -1
    outer loop
      vertex 5.96713 -0.627171 0
      vertex 5.96713 0.627171 0
      vertex 6 0 0
    endloop
  endfacet
  facet normal 0 0 -1
    outer loop
      vertex 5.86889 -1.24747 0
      vertex 5.96713 0.627171 0
      vertex 5.96713 -0.627171 0
    endloop
  endfacet
  facet normal 0 0 -1
    outer loop
      vertex 5.86889 -1.24747 0
      vertex 5.86889 1.24747 0
      vertex 5.96713 0.627171 0
    endloop
  endfacet
  facet normal 0 0 -1
    outer loop
      vertex 5.70634 -1.8541 0
      vertex 5.86889 1.24747 0
      vertex 5.86889 -1.24747 0
    endloop
  endfacet
  facet normal 0 0 -1
    outer loop
      vertex 5.70634 -1.8541 0
      vertex 5.70634 1.8541 0
      vertex 5.86889 1.24747 0
    endloop
  endfacet
  facet normal 0 0 -1
    outer loop
      vertex 5.48127 -2.44042 0
      vertex 5.70634 1.8541 0
      vertex 5.70634 -1.8541 0
    endloop
  endfacet
  facet normal 0 0 -1
    outer loop
      vertex 5.48127 -2.44042 0
      vertex 5.48127 2.44042 0
      vertex 5.70634 1.8541 0
    endloop
  endfacet
  facet normal 0 0 -1
    outer loop
      vertex 5.19615 -3 0
      vertex 5.48127 2.44042 0
      vertex 5.48127 -2.44042 0
    endloop
  endfacet
  facet normal 0 0 -1
    outer loop
      vertex 5.19615 -3 0
      vertex 5.19615 3 0
      vertex 5.48127 2.44042 0
    endloop
  endfacet
  facet normal 0 0 -1
    outer loop
      vertex 4.8541 -3.52671 0
      vertex 5.19615 3 0
      vertex 5.19615 -3 0
    endloop
  endfacet
  facet normal 0 0 -1
    outer loop
      vertex 4.8541 -3.52671 0
      vertex 4.8541 3.52671 0
      vertex 5.19615 3 0
    endloop
  endfacet
  facet normal 0 0 -1
    outer loop
      vertex 4.45887 -4.01478 0
      vertex 4.8541 3.52671 0
      vertex 4.8541 -3.52671 0
    endloop
  endfacet
  facet normal 0 0 -1
    outer loop
      vertex 4.45887 -4.01478 0
      vertex 4.45887 4.01478 0
      vertex 4.8541 3.52671 0
    endloop
  endfacet
  facet normal 0 0 -1
    outer loop
      vertex 4.01478 -4.45887 0
      vertex 4.45887 4.01478 0
      vertex 4.45887 -4.01478 0
    endloop
  endfacet
  facet normal 0 0 -1
    outer loop
      vertex 4.01478 -4.45887 0
      vertex 4.01478 4.45887 0
      vertex 4.45887 4.01478 0
    endloop
  endfacet
  facet normal 0 0 -1
    outer loop
      vertex 3.52671 -4.8541 0
      vertex 4.01478 4.45887 0
      vertex 4.01478 -4.45887 0
    endloop
  endfacet
  facet normal 0 0 -1
    outer loop
      vertex 3.52671 -4.8541 0
      vertex 3.52671 4.8541 0
      vertex 4.01478 4.45887 0
    endloop
  endfacet
  facet normal 0 0 -1
    outer loop
      vertex 3 -5.19615 0
      vertex 3.52671 4.8541 0
      vertex 3.52671 -4.8541 0
    endloop
  endfacet
  facet normal 0 0 -1
    outer loop
      vertex 3 -5.19615 0
      vertex 3 5.19615 0
      vertex 3.52671 4.8541 0
    endloop
  endfacet
  facet normal 0 0 -1
    outer loop
      vertex 2.44042 -5.48127 0
      vertex 3 5.19615 0
      vertex 3 -5.19615 0
    endloop
  endfacet
  facet normal 0 0 -1
    outer loop
      vertex 2.44042 -5.48127 0
      vertex 2.44042 5.48127 0
      vertex 3 5.19615 0
    endloop
  endfacet
  facet normal 0 0 -1
    outer loop
      vertex 1.8541 -5.70634 0
      vertex 2.44042 5.48127 0
      vertex 2.44042 -5.48127 0
    endloop
  endfacet
  facet normal 0 0 -1
    outer loop
      vertex 1.8541 -5.70634 0
      vertex 1.8541 5.70634 0
      vertex 2.44042 5.48127 0
    endloop
  endfacet
  facet normal 0 0 -1
    outer loop
      vertex 1.24747 -5.86889 0
      vertex 1.8541 5.70634 0
      vertex 1.8541 -5.70634 0
    endloop
  endfacet
  facet normal 0 0 -1
    outer loop
      vertex 1.24747 -5.86889 0
      vertex 1.24747 5.86889 0
      vertex 1.8541 5.70634 0
    endloop
  endfacet
  facet normal 0 0 -1
    outer loop
      vertex 0.627171 -5.96713 0
      vertex 1.24747 5.86889 0
      vertex 1.24747 -5.86889 0
    endloop
  endfacet
  facet normal 0 0 -1
    outer loop
      vertex 0.627171 -5.96713 0
      vertex 0.627171 5.96713 0
      vertex 1.24747 5.86889 0
    endloop
  endfacet
  facet normal 0 0 -1
    outer loop
      vertex 0 -6 0
      vertex 0.627171 5.96713 0
      vertex 0.627171 -5.96713 0
    endloop
  endfacet
  facet normal 0 0 -1
    outer loop
      vertex 0 -6 0
      vertex 0 6 0
      vertex 0.627171 5.96713 0
    endloop
  endfacet
  facet normal 0 0 -1
    outer loop
      vertex -0.627171 -5.96713 0
      vertex 0 6 0
      vertex 0 -6 0
    endloop
  endfacet
  facet normal 0 0 -1
    outer loop
      vertex -0.627171 -5.96713 0
      vertex -0.627171 5.96713 0
      vertex 0 6 0
    endloop
  endfacet
  facet normal 0 0 -1
    outer loop
      vertex -1.24747 -5.86889 0
      vertex -0.627171 5.96713 0
      vertex -0.627171 -5.96713 0
    endloop
  endfacet
  facet normal 0 0 -1
    outer loop
      vertex -1.24747 -5.86889 0
      vertex -1.24747 5.86889 0
      vertex -0.627171 5.96713 0
    endloop
  endfacet
  facet normal 0 0 -1
    outer loop
      vertex -1.8541 -5.70634 0
      vertex -1.24747 5.86889 0
      vertex -1.24747 -5.86889 0
    endloop
  endfacet
  facet normal 0 0 -1
    outer loop
      vertex -1.8541 -5.70634 0
      vertex -1.8541 5.70634 0
      vertex -1.24747 5.86889 0
    endloop
  endfacet
  facet normal 0 0 -1
    outer loop
      vertex -2.44042 -5.48127 0
      vertex -1.8541 5.70634 0
      vertex -1.8541 -5.70634 0
    endloop
  endfacet
  facet normal 0 0 -1
    outer loop
      vertex -2.44042 -5.48127 0
      vertex -2.44042 5.48127 0
      vertex -1.8541 5.70634 0
    endloop
  endfacet
  facet normal 0 0 -1
    outer loop
      vertex -3 -5.19615 0
      vertex -2.44042 5.48127 0
      vertex -2.44042 -5.48127 0
    endloop
  endfacet
  facet normal 0 0 -1
    outer loop
      vertex -3 -5.19615 0
      vertex -3 5.19615 0
      vertex -2.44042 5.48127 0
    endloop
  endfacet
  facet normal 0 0 -1
    outer loop
      vertex -3.52671 -4.8541 0
      vertex -3 5.19615 0
      vertex -3 -5.19615 0
    endloop
  endfacet
  facet normal 0 0 -1
    outer loop
      vertex -3.52671 -4.8541 0
      vertex -3.52671 4.8541 0
      vertex -3 5.19615 0
    endloop
  endfacet
  facet normal 0 0 -1
    outer loop
      vertex -4.01478 -4.45887 0
      vertex -3.52671 4.8541 0
      vertex -3.52671 -4.8541 0
    endloop
  endfacet
  facet normal 0 0 -1
    outer loop
      vertex -4.01478 -4.45887 0
      vertex -4.01478 4.45887 0
      vertex -3.52671 4.8541 0
    endloop
  endfacet
  facet normal 0 0 -1
    outer loop
      vertex -4.45887 -4.01478 0
      vertex -4.01478 4.45887 0
      vertex -4.01478 -4.45887 0
    endloop
  endfacet
  facet normal 0 0 -1
    outer loop
      vertex -4.45887 -4.01478 0
      vertex -4.45887 4.01478 0
      vertex -4.01478 4.45887 0
    endloop
  endfacet
  facet normal 0 0 -1
    outer loop
      vertex -4.8541 -3.52671 0
      vertex -4.45887 4.01478 0
      vertex -4.45887 -4.01478 0
    endloop
  endfacet
  facet normal 0 0 -1
    outer loop
      vertex -4.8541 -3.52671 0
      vertex -4.8541 3.52671 0
      vertex -4.45887 4.01478 0
    endloop
  endfacet
  facet normal 0 0 -1
    outer loop
      vertex -5.19615 -3 0
      vertex -4.8541 3.52671 0
      vertex -4.8541 -3.52671 0
    endloop
  endfacet
  facet normal 0 0 -1
    outer loop
      vertex -5.19615 -3 0
      vertex -5.19615 3 0
      vertex -4.8541 3.52671 0
    endloop
  endfacet
  facet normal 0 0 -1
    outer loop
      vertex -5.48127 -2.44042 0
      vertex -5.19615 3 0
      vertex -5.19615 -3 0
    endloop
  endfacet
  facet normal 0 0 -1
    outer loop
      vertex -5.48127 -2.44042 0
      vertex -5.48127 2.44042 0
      vertex -5.19615 3 0
    endloop
  endfacet
  facet normal 0 0 -1
    outer loop
      vertex -5.70634 -1.8541 0
      vertex -5.48127 2.44042 0
      vertex -5.48127 -2.44042 0
    endloop
  endfacet
  facet normal 0 0 -1
    outer loop
      vertex -5.70634 -1.8541 0
      vertex -5.70634 1.8541 0
      vertex -5.48127 2.44042 0
    endloop
  endfacet
  facet normal 0 0 -1
    outer loop
      vertex -5.86889 -1.24747 0
      vertex -5.70634 1.8541 0
      vertex -5.70634 -1.8541 0
    endloop
  endfacet
  facet normal 0 0 -1
    outer loop
      vertex -5.86889 -1.24747 0
      vertex -5.86889 1.24747 0
      vertex -5.70634 1.8541 0
    endloop
  endfacet
  facet normal 0 0 -1
    outer loop
      vertex -5.96713 -0.627171 0
      vertex -5.86889 1.24747 0
      vertex -5.86889 -1.24747 0
    endloop
  endfacet
  facet normal 0 0 -1
    outer loop
      vertex -5.96713 -0.627171 0
      vertex -5.96713 0.627171 0
      vertex -5.86889 1.24747 0
    endloop
  endfacet
  facet normal 0 -0 -1
    outer loop
      vertex -5.96713 0.627171 0
      vertex -5.96713 -0.627171 0
      vertex -6 0 0
    endloop
  endfacet
  facet normal 0.54464 -0.83867 0
    outer loop
      vertex 3 -5.19615 0
      vertex 3.52671 -4.8541 24
      vertex 3 -5.19615 24
    endloop
  endfacet
  facet normal 0.54464 -0.83867 0
    outer loop
      vertex 3.52671 -4.8541 24
      vertex 3 -5.19615 0
      vertex 3.52671 -4.8541 0
    endloop
  endfacet
  facet normal 0.54464 -0.83867 0
    outer loop
      vertex 3 -5.19615 34
      vertex 3.52671 -4.8541 50
      vertex 3 -5.19615 50
    endloop
  endfacet
  facet normal 0.54464 -0.83867 0
    outer loop
      vertex 3.52671 -4.8541 50
      vertex 3 -5.19615 34
      vertex 3.52671 -4.8541 34
    endloop
  endfacet
  facet normal 0.998629 -0.0523381 0
    outer loop
      vertex 5.96713 -0.627171 24
      vertex 6 0 0
      vertex 6 0 24
    endloop
  endfacet
  facet normal 0.998629 -0.0523381 0
    outer loop
      vertex 6 0 0
      vertex 5.96713 -0.627171 24
      vertex 5.96713 -0.627171 0
    endloop
  endfacet
  facet normal 0.998629 -0.0523381 0
    outer loop
      vertex 5.96713 -0.627171 50
      vertex 6 0 34
      vertex 6 0 50
    endloop
  endfacet
  facet normal 0.998629 -0.0523381 0
    outer loop
      vertex 6 0 34
      vertex 5.96713 -0.627171 50
      vertex 5.96713 -0.627171 34
    endloop
  endfacet
  facet normal 0.258825 0.965924 -0
    outer loop
      vertex 1.8541 5.70634 0
      vertex 1.24747 5.86889 24
      vertex 1.8541 5.70634 24
    endloop
  endfacet
  facet normal 0.258825 0.965924 0
    outer loop
      vertex 1.24747 5.86889 24
      vertex 1.8541 5.70634 0
      vertex 1.24747 5.86889 0
    endloop
  endfacet
  facet normal 0.258825 0.965924 -0
    outer loop
      vertex 1.8541 5.70634 34
      vertex 1.24747 5.86889 50
      vertex 1.8541 5.70634 50
    endloop
  endfacet
  facet normal 0.258825 0.965924 0
    outer loop
      vertex 1.24747 5.86889 50
      vertex 1.8541 5.70634 34
      vertex 1.24747 5.86889 34
    endloop
  endfacet
  facet normal -0.777147 -0.629319 0
    outer loop
      vertex -4.45887 -4.01478 34
      vertex -4.8541 -3.52671 50
      vertex -4.8541 -3.52671 34
    endloop
  endfacet
  facet normal -0.777147 -0.629319 0
    outer loop
      vertex -4.8541 -3.52671 50
      vertex -4.45887 -4.01478 34
      vertex -4.45887 -4.01478 50
    endloop
  endfacet
  facet normal -0.777147 -0.629319 0
    outer loop
      vertex -4.45887 -4.01478 0
      vertex -4.8541 -3.52671 24
      vertex -4.8541 -3.52671 0
    endloop
  endfacet
  facet normal -0.777147 -0.629319 0
    outer loop
      vertex -4.8541 -3.52671 24
      vertex -4.45887 -4.01478 0
      vertex -4.45887 -4.01478 24
    endloop
  endfacet
  facet normal -0.629319 0.777147 0
    outer loop
      vertex -3.52671 4.8541 0
      vertex -4.01478 4.45887 24
      vertex -3.52671 4.8541 24
    endloop
  endfacet
  facet normal -0.629319 0.777147 0
    outer loop
      vertex -4.01478 4.45887 24
      vertex -3.52671 4.8541 0
      vertex -4.01478 4.45887 0
    endloop
  endfacet
  facet normal -0.629319 0.777147 0
    outer loop
      vertex -3.52671 4.8541 34
      vertex -4.01478 4.45887 50
      vertex -3.52671 4.8541 50
    endloop
  endfacet
  facet normal -0.629319 0.777147 0
    outer loop
      vertex -4.01478 4.45887 50
      vertex -3.52671 4.8541 34
      vertex -4.01478 4.45887 34
    endloop
  endfacet
  facet normal 0.0523381 -0.998629 0
    outer loop
      vertex 0 -6 34
      vertex 0.627171 -5.96713 50
      vertex 0 -6 50
    endloop
  endfacet
  facet normal 0.0523381 -0.998629 0
    outer loop
      vertex 0.627171 -5.96713 50
      vertex 0 -6 34
      vertex 0.627171 -5.96713 34
    endloop
  endfacet
  facet normal 0.0523381 -0.998629 0
    outer loop
      vertex 0 -6 0
      vertex 0.627171 -5.96713 24
      vertex 0 -6 24
    endloop
  endfacet
  facet normal 0.0523381 -0.998629 0
    outer loop
      vertex 0.627171 -5.96713 24
      vertex 0 -6 0
      vertex 0.627171 -5.96713 0
    endloop
  endfacet
  facet normal 0.156426 -0.98769 0
    outer loop
      vertex 0.627171 -5.96713 0
      vertex 1.24747 -5.86889 24
      vertex 0.627171 -5.96713 24
    endloop
  endfacet
  facet normal 0.156426 -0.98769 0
    outer loop
      vertex 1.24747 -5.86889 24
      vertex 0.627171 -5.96713 0
      vertex 1.24747 -5.86889 0
    endloop
  endfacet
  facet normal 0.156426 -0.98769 0
    outer loop
      vertex 0.627171 -5.96713 34
      vertex 1.24747 -5.86889 50
      vertex 0.627171 -5.96713 50
    endloop
  endfacet
  facet normal 0.156426 -0.98769 0
    outer loop
      vertex 1.24747 -5.86889 50
      vertex 0.627171 -5.96713 34
      vertex 1.24747 -5.86889 34
    endloop
  endfacet
  facet normal 0.83867 0.54464 0
    outer loop
      vertex 5.19615 3 24
      vertex 4.8541 3.52671 0
      vertex 4.8541 3.52671 24
    endloop
  endfacet
  facet normal 0.83867 0.54464 0
    outer loop
      vertex 4.8541 3.52671 0
      vertex 5.19615 3 24
      vertex 5.19615 3 0
    endloop
  endfacet
  facet normal 0.83867 0.54464 0
    outer loop
      vertex 5.19615 3 50
      vertex 4.8541 3.52671 34
      vertex 4.8541 3.52671 50
    endloop
  endfacet
  facet normal 0.83867 0.54464 0
    outer loop
      vertex 4.8541 3.52671 34
      vertex 5.19615 3 50
      vertex 5.19615 3 34
    endloop
  endfacet
  facet normal 0.83867 -0.54464 0
    outer loop
      vertex 4.8541 -3.52671 24
      vertex 5.19615 -3 0
      vertex 5.19615 -3 24
    endloop
  endfacet
  facet normal 0.83867 -0.54464 0
    outer loop
      vertex 5.19615 -3 0
      vertex 4.8541 -3.52671 24
      vertex 4.8541 -3.52671 0
    endloop
  endfacet
  facet normal 0.83867 -0.54464 0
    outer loop
      vertex 4.8541 -3.52671 50
      vertex 5.19615 -3 34
      vertex 5.19615 -3 50
    endloop
  endfacet
  facet normal 0.83867 -0.54464 0
    outer loop
      vertex 5.19615 -3 34
      vertex 4.8541 -3.52671 50
      vertex 4.8541 -3.52671 34
    endloop
  endfacet
  facet normal -0.45399 -0.891007 0
    outer loop
      vertex -3 -5.19615 0
      vertex -2.44042 -5.48127 24
      vertex -3 -5.19615 24
    endloop
  endfacet
  facet normal -0.45399 -0.891007 -0
    outer loop
      vertex -2.44042 -5.48127 24
      vertex -3 -5.19615 0
      vertex -2.44042 -5.48127 0
    endloop
  endfacet
  facet normal -0.45399 -0.891007 0
    outer loop
      vertex -3 -5.19615 34
      vertex -2.44042 -5.48127 50
      vertex -3 -5.19615 50
    endloop
  endfacet
  facet normal -0.45399 -0.891007 -0
    outer loop
      vertex -2.44042 -5.48127 50
      vertex -3 -5.19615 34
      vertex -2.44042 -5.48127 34
    endloop
  endfacet
  facet normal -0.0523381 0.998629 0
    outer loop
      vertex 0 6 0
      vertex -0.627171 5.96713 24
      vertex 0 6 24
    endloop
  endfacet
  facet normal -0.0523381 0.998629 0
    outer loop
      vertex -0.627171 5.96713 24
      vertex 0 6 0
      vertex -0.627171 5.96713 0
    endloop
  endfacet
  facet normal -0.0523381 0.998629 0
    outer loop
      vertex 0 6 34
      vertex -0.627171 5.96713 50
      vertex 0 6 50
    endloop
  endfacet
  facet normal -0.0523381 0.998629 0
    outer loop
      vertex -0.627171 5.96713 50
      vertex 0 6 34
      vertex -0.627171 5.96713 34
    endloop
  endfacet
  facet normal 0.358372 0.933579 -0
    outer loop
      vertex 2.44042 5.48127 0
      vertex 1.8541 5.70634 24
      vertex 2.44042 5.48127 24
    endloop
  endfacet
  facet normal 0.358372 0.933579 0
    outer loop
      vertex 1.8541 5.70634 24
      vertex 2.44042 5.48127 0
      vertex 1.8541 5.70634 0
    endloop
  endfacet
  facet normal 0.358372 0.933579 -0
    outer loop
      vertex 2.44042 5.48127 34
      vertex 1.8541 5.70634 50
      vertex 2.44042 5.48127 50
    endloop
  endfacet
  facet normal 0.358372 0.933579 0
    outer loop
      vertex 1.8541 5.70634 50
      vertex 2.44042 5.48127 34
      vertex 1.8541 5.70634 34
    endloop
  endfacet
  facet normal 0.891007 0.45399 0
    outer loop
      vertex 5.48127 2.44042 50
      vertex 5.19615 3 34
      vertex 5.19615 3 50
    endloop
  endfacet
  facet normal 0.891007 0.45399 0
    outer loop
      vertex 5.19615 3 34
      vertex 5.48127 2.44042 50
      vertex 5.48127 2.44042 34
    endloop
  endfacet
  facet normal 0.891007 0.45399 0
    outer loop
      vertex 5.48127 2.44042 24
      vertex 5.19615 3 0
      vertex 5.19615 3 24
    endloop
  endfacet
  facet normal 0.891007 0.45399 0
    outer loop
      vertex 5.19615 3 0
      vertex 5.48127 2.44042 24
      vertex 5.48127 2.44042 0
    endloop
  endfacet
  facet normal 0.965924 -0.258825 0
    outer loop
      vertex 5.70634 -1.8541 24
      vertex 5.86889 -1.24747 0
      vertex 5.86889 -1.24747 24
    endloop
  endfacet
  facet normal 0.965924 -0.258825 0
    outer loop
      vertex 5.86889 -1.24747 0
      vertex 5.70634 -1.8541 24
      vertex 5.70634 -1.8541 0
    endloop
  endfacet
  facet normal 0.965924 -0.258825 0
    outer loop
      vertex 5.70634 -1.8541 50
      vertex 5.86889 -1.24747 34
      vertex 5.86889 -1.24747 50
    endloop
  endfacet
  facet normal 0.965924 -0.258825 0
    outer loop
      vertex 5.86889 -1.24747 34
      vertex 5.70634 -1.8541 50
      vertex 5.70634 -1.8541 34
    endloop
  endfacet
  facet normal 0.358372 -0.933579 0
    outer loop
      vertex 1.8541 -5.70634 0
      vertex 2.44042 -5.48127 24
      vertex 1.8541 -5.70634 24
    endloop
  endfacet
  facet normal 0.358372 -0.933579 0
    outer loop
      vertex 2.44042 -5.48127 24
      vertex 1.8541 -5.70634 0
      vertex 2.44042 -5.48127 0
    endloop
  endfacet
  facet normal 0.358372 -0.933579 0
    outer loop
      vertex 1.8541 -5.70634 34
      vertex 2.44042 -5.48127 50
      vertex 1.8541 -5.70634 50
    endloop
  endfacet
  facet normal 0.358372 -0.933579 0
    outer loop
      vertex 2.44042 -5.48127 50
      vertex 1.8541 -5.70634 34
      vertex 2.44042 -5.48127 34
    endloop
  endfacet
  facet normal 0.629319 0.777147 -0
    outer loop
      vertex 4.01478 4.45887 34
      vertex 3.52671 4.8541 50
      vertex 4.01478 4.45887 50
    endloop
  endfacet
  facet normal 0.629319 0.777147 0
    outer loop
      vertex 3.52671 4.8541 50
      vertex 4.01478 4.45887 34
      vertex 3.52671 4.8541 34
    endloop
  endfacet
  facet normal 0.629319 0.777147 -0
    outer loop
      vertex 4.01478 4.45887 0
      vertex 3.52671 4.8541 24
      vertex 4.01478 4.45887 24
    endloop
  endfacet
  facet normal 0.629319 0.777147 0
    outer loop
      vertex 3.52671 4.8541 24
      vertex 4.01478 4.45887 0
      vertex 3.52671 4.8541 0
    endloop
  endfacet
  facet normal 0.0523381 0.998629 -0
    outer loop
      vertex 0.627171 5.96713 34
      vertex 0 6 50
      vertex 0.627171 5.96713 50
    endloop
  endfacet
  facet normal 0.0523381 0.998629 0
    outer loop
      vertex 0 6 50
      vertex 0.627171 5.96713 34
      vertex 0 6 34
    endloop
  endfacet
  facet normal 0.0523381 0.998629 -0
    outer loop
      vertex 0.627171 5.96713 0
      vertex 0 6 24
      vertex 0.627171 5.96713 24
    endloop
  endfacet
  facet normal 0.0523381 0.998629 0
    outer loop
      vertex 0 6 24
      vertex 0.627171 5.96713 0
      vertex 0 6 0
    endloop
  endfacet
  facet normal 0.258825 -0.965924 0
    outer loop
      vertex 1.24747 -5.86889 0
      vertex 1.8541 -5.70634 24
      vertex 1.24747 -5.86889 24
    endloop
  endfacet
  facet normal 0.258825 -0.965924 0
    outer loop
      vertex 1.8541 -5.70634 24
      vertex 1.24747 -5.86889 0
      vertex 1.8541 -5.70634 0
    endloop
  endfacet
  facet normal 0.258825 -0.965924 0
    outer loop
      vertex 1.24747 -5.86889 34
      vertex 1.8541 -5.70634 50
      vertex 1.24747 -5.86889 50
    endloop
  endfacet
  facet normal 0.258825 -0.965924 0
    outer loop
      vertex 1.8541 -5.70634 50
      vertex 1.24747 -5.86889 34
      vertex 1.8541 -5.70634 34
    endloop
  endfacet
  facet normal 0.891007 -0.45399 0
    outer loop
      vertex 5.19615 -3 50
      vertex 5.48127 -2.44042 34
      vertex 5.48127 -2.44042 50
    endloop
  endfacet
  facet normal 0.891007 -0.45399 0
    outer loop
      vertex 5.48127 -2.44042 34
      vertex 5.19615 -3 50
      vertex 5.19615 -3 34
    endloop
  endfacet
  facet normal 0.891007 -0.45399 0
    outer loop
      vertex 5.19615 -3 24
      vertex 5.48127 -2.44042 0
      vertex 5.48127 -2.44042 24
    endloop
  endfacet
  facet normal 0.891007 -0.45399 0
    outer loop
      vertex 5.48127 -2.44042 0
      vertex 5.19615 -3 24
      vertex 5.19615 -3 0
    endloop
  endfacet
  facet normal -0.258825 -0.965924 0
    outer loop
      vertex -1.8541 -5.70634 0
      vertex -1.24747 -5.86889 24
      vertex -1.8541 -5.70634 24
    endloop
  endfacet
  facet normal -0.258825 -0.965924 -0
    outer loop
      vertex -1.24747 -5.86889 24
      vertex -1.8541 -5.70634 0
      vertex -1.24747 -5.86889 0
    endloop
  endfacet
  facet normal -0.258825 -0.965924 0
    outer loop
      vertex -1.8541 -5.70634 34
      vertex -1.24747 -5.86889 50
      vertex -1.8541 -5.70634 50
    endloop
  endfacet
  facet normal -0.258825 -0.965924 -0
    outer loop
      vertex -1.24747 -5.86889 50
      vertex -1.8541 -5.70634 34
      vertex -1.24747 -5.86889 34
    endloop
  endfacet
  facet normal 0.777147 -0.629319 0
    outer loop
      vertex 4.45887 -4.01478 50
      vertex 4.8541 -3.52671 34
      vertex 4.8541 -3.52671 50
    endloop
  endfacet
  facet normal 0.777147 -0.629319 0
    outer loop
      vertex 4.8541 -3.52671 34
      vertex 4.45887 -4.01478 50
      vertex 4.45887 -4.01478 34
    endloop
  endfacet
  facet normal 0.777147 -0.629319 0
    outer loop
      vertex 4.45887 -4.01478 24
      vertex 4.8541 -3.52671 0
      vertex 4.8541 -3.52671 24
    endloop
  endfacet
  facet normal 0.777147 -0.629319 0
    outer loop
      vertex 4.8541 -3.52671 0
      vertex 4.45887 -4.01478 24
      vertex 4.45887 -4.01478 0
    endloop
  endfacet
  facet normal -0.707107 -0.707107 0
    outer loop
      vertex -4.01478 -4.45887 34
      vertex -4.45887 -4.01478 50
      vertex -4.45887 -4.01478 34
    endloop
  endfacet
  facet normal -0.707107 -0.707107 0
    outer loop
      vertex -4.45887 -4.01478 50
      vertex -4.01478 -4.45887 34
      vertex -4.01478 -4.45887 50
    endloop
  endfacet
  facet normal -0.707107 -0.707107 0
    outer loop
      vertex -4.01478 -4.45887 0
      vertex -4.45887 -4.01478 24
      vertex -4.45887 -4.01478 0
    endloop
  endfacet
  facet normal -0.707107 -0.707107 0
    outer loop
      vertex -4.45887 -4.01478 24
      vertex -4.01478 -4.45887 0
      vertex -4.01478 -4.45887 24
    endloop
  endfacet
  facet normal -0.156426 0.98769 0
    outer loop
      vertex -0.627171 5.96713 0
      vertex -1.24747 5.86889 24
      vertex -0.627171 5.96713 24
    endloop
  endfacet
  facet normal -0.156426 0.98769 0
    outer loop
      vertex -1.24747 5.86889 24
      vertex -0.627171 5.96713 0
      vertex -1.24747 5.86889 0
    endloop
  endfacet
  facet normal -0.156426 0.98769 0
    outer loop
      vertex -0.627171 5.96713 34
      vertex -1.24747 5.86889 50
      vertex -0.627171 5.96713 50
    endloop
  endfacet
  facet normal -0.156426 0.98769 0
    outer loop
      vertex -1.24747 5.86889 50
      vertex -0.627171 5.96713 34
      vertex -1.24747 5.86889 34
    endloop
  endfacet
  facet normal 0.54464 0.83867 -0
    outer loop
      vertex 3.52671 4.8541 34
      vertex 3 5.19615 50
      vertex 3.52671 4.8541 50
    endloop
  endfacet
  facet normal 0.54464 0.83867 0
    outer loop
      vertex 3 5.19615 50
      vertex 3.52671 4.8541 34
      vertex 3 5.19615 34
    endloop
  endfacet
  facet normal 0.54464 0.83867 -0
    outer loop
      vertex 3.52671 4.8541 0
      vertex 3 5.19615 24
      vertex 3.52671 4.8541 24
    endloop
  endfacet
  facet normal 0.54464 0.83867 0
    outer loop
      vertex 3 5.19615 24
      vertex 3.52671 4.8541 0
      vertex 3 5.19615 0
    endloop
  endfacet
  facet normal -0.891007 -0.45399 0
    outer loop
      vertex -5.19615 -3 34
      vertex -5.48127 -2.44042 50
      vertex -5.48127 -2.44042 34
    endloop
  endfacet
  facet normal -0.891007 -0.45399 0
    outer loop
      vertex -5.48127 -2.44042 50
      vertex -5.19615 -3 34
      vertex -5.19615 -3 50
    endloop
  endfacet
  facet normal -0.891007 -0.45399 0
    outer loop
      vertex -5.19615 -3 0
      vertex -5.48127 -2.44042 24
      vertex -5.48127 -2.44042 0
    endloop
  endfacet
  facet normal -0.891007 -0.45399 0
    outer loop
      vertex -5.48127 -2.44042 24
      vertex -5.19615 -3 0
      vertex -5.19615 -3 24
    endloop
  endfacet
  facet normal -0.777147 0.629319 0
    outer loop
      vertex -4.8541 3.52671 34
      vertex -4.45887 4.01478 50
      vertex -4.45887 4.01478 34
    endloop
  endfacet
  facet normal -0.777147 0.629319 0
    outer loop
      vertex -4.45887 4.01478 50
      vertex -4.8541 3.52671 34
      vertex -4.8541 3.52671 50
    endloop
  endfacet
  facet normal -0.777147 0.629319 0
    outer loop
      vertex -4.8541 3.52671 0
      vertex -4.45887 4.01478 24
      vertex -4.45887 4.01478 0
    endloop
  endfacet
  facet normal -0.777147 0.629319 0
    outer loop
      vertex -4.45887 4.01478 24
      vertex -4.8541 3.52671 0
      vertex -4.8541 3.52671 24
    endloop
  endfacet
  facet normal 0.98769 -0.156426 0
    outer loop
      vertex 5.86889 -1.24747 24
      vertex 5.96713 -0.627171 0
      vertex 5.96713 -0.627171 24
    endloop
  endfacet
  facet normal 0.98769 -0.156426 0
    outer loop
      vertex 5.96713 -0.627171 0
      vertex 5.86889 -1.24747 24
      vertex 5.86889 -1.24747 0
    endloop
  endfacet
  facet normal 0.98769 -0.156426 0
    outer loop
      vertex 5.86889 -1.24747 50
      vertex 5.96713 -0.627171 34
      vertex 5.96713 -0.627171 50
    endloop
  endfacet
  facet normal 0.98769 -0.156426 0
    outer loop
      vertex 5.96713 -0.627171 34
      vertex 5.86889 -1.24747 50
      vertex 5.86889 -1.24747 34
    endloop
  endfacet
  facet normal -0.83867 0.54464 0
    outer loop
      vertex -5.19615 3 34
      vertex -4.8541 3.52671 50
      vertex -4.8541 3.52671 34
    endloop
  endfacet
  facet normal -0.83867 0.54464 0
    outer loop
      vertex -4.8541 3.52671 50
      vertex -5.19615 3 34
      vertex -5.19615 3 50
    endloop
  endfacet
  facet normal -0.83867 0.54464 0
    outer loop
      vertex -5.19615 3 0
      vertex -4.8541 3.52671 24
      vertex -4.8541 3.52671 0
    endloop
  endfacet
  facet normal -0.83867 0.54464 0
    outer loop
      vertex -4.8541 3.52671 24
      vertex -5.19615 3 0
      vertex -5.19615 3 24
    endloop
  endfacet
  facet normal -0.98769 0.156426 0
    outer loop
      vertex -5.96713 0.627171 0
      vertex -5.86889 1.24747 24
      vertex -5.86889 1.24747 0
    endloop
  endfacet
  facet normal -0.98769 0.156426 0
    outer loop
      vertex -5.86889 1.24747 24
      vertex -5.96713 0.627171 0
      vertex -5.96713 0.627171 24
    endloop
  endfacet
  facet normal -0.98769 0.156426 0
    outer loop
      vertex -5.96713 0.627171 34
      vertex -5.86889 1.24747 50
      vertex -5.86889 1.24747 34
    endloop
  endfacet
  facet normal -0.98769 0.156426 0
    outer loop
      vertex -5.86889 1.24747 50
      vertex -5.96713 0.627171 34
      vertex -5.96713 0.627171 50
    endloop
  endfacet
  facet normal 0.45399 0.891007 -0
    outer loop
      vertex 3 5.19615 34
      vertex 2.44042 5.48127 50
      vertex 3 5.19615 50
    endloop
  endfacet
  facet normal 0.45399 0.891007 0
    outer loop
      vertex 2.44042 5.48127 50
      vertex 3 5.19615 34
      vertex 2.44042 5.48127 34
    endloop
  endfacet
  facet normal 0.45399 0.891007 -0
    outer loop
      vertex 3 5.19615 0
      vertex 2.44042 5.48127 24
      vertex 3 5.19615 24
    endloop
  endfacet
  facet normal 0.45399 0.891007 0
    outer loop
      vertex 2.44042 5.48127 24
      vertex 3 5.19615 0
      vertex 2.44042 5.48127 0
    endloop
  endfacet
  facet normal -0.933579 0.358372 0
    outer loop
      vertex -5.70634 1.8541 34
      vertex -5.48127 2.44042 50
      vertex -5.48127 2.44042 34
    endloop
  endfacet
  facet normal -0.933579 0.358372 0
    outer loop
      vertex -5.48127 2.44042 50
      vertex -5.70634 1.8541 34
      vertex -5.70634 1.8541 50
    endloop
  endfacet
  facet normal -0.933579 0.358372 0
    outer loop
      vertex -5.70634 1.8541 0
      vertex -5.48127 2.44042 24
      vertex -5.48127 2.44042 0
    endloop
  endfacet
  facet normal -0.933579 0.358372 0
    outer loop
      vertex -5.48127 2.44042 24
      vertex -5.70634 1.8541 0
      vertex -5.70634 1.8541 24
    endloop
  endfacet
  facet normal -0.891007 0.45399 0
    outer loop
      vertex -5.48127 2.44042 34
      vertex -5.19615 3 50
      vertex -5.19615 3 34
    endloop
  endfacet
  facet normal -0.891007 0.45399 0
    outer loop
      vertex -5.19615 3 50
      vertex -5.48127 2.44042 34
      vertex -5.48127 2.44042 50
    endloop
  endfacet
  facet normal -0.891007 0.45399 0
    outer loop
      vertex -5.48127 2.44042 0
      vertex -5.19615 3 24
      vertex -5.19615 3 0
    endloop
  endfacet
  facet normal -0.891007 0.45399 0
    outer loop
      vertex -5.19615 3 24
      vertex -5.48127 2.44042 0
      vertex -5.48127 2.44042 24
    endloop
  endfacet
  facet normal -0.965924 -0.258825 0
    outer loop
      vertex -5.70634 -1.8541 0
      vertex -5.86889 -1.24747 24
      vertex -5.86889 -1.24747 0
    endloop
  endfacet
  facet normal -0.965924 -0.258825 0
    outer loop
      vertex -5.86889 -1.24747 24
      vertex -5.70634 -1.8541 0
      vertex -5.70634 -1.8541 24
    endloop
  endfacet
  facet normal -0.965924 -0.258825 0
    outer loop
      vertex -5.70634 -1.8541 34
      vertex -5.86889 -1.24747 50
      vertex -5.86889 -1.24747 34
    endloop
  endfacet
  facet normal -0.965924 -0.258825 0
    outer loop
      vertex -5.86889 -1.24747 50
      vertex -5.70634 -1.8541 34
      vertex -5.70634 -1.8541 50
    endloop
  endfacet
  facet normal -0.98769 -0.156426 0
    outer loop
      vertex -5.86889 -1.24747 0
      vertex -5.96713 -0.627171 24
      vertex -5.96713 -0.627171 0
    endloop
  endfacet
  facet normal -0.98769 -0.156426 0
    outer loop
      vertex -5.96713 -0.627171 24
      vertex -5.86889 -1.24747 0
      vertex -5.86889 -1.24747 24
    endloop
  endfacet
  facet normal -0.98769 -0.156426 0
    outer loop
      vertex -5.86889 -1.24747 34
      vertex -5.96713 -0.627171 50
      vertex -5.96713 -0.627171 34
    endloop
  endfacet
  facet normal -0.98769 -0.156426 0
    outer loop
      vertex -5.96713 -0.627171 50
      vertex -5.86889 -1.24747 34
      vertex -5.86889 -1.24747 50
    endloop
  endfacet
  facet normal -0.998629 -0.0523381 0
    outer loop
      vertex -5.96713 -0.627171 34
      vertex -6 0 50
      vertex -6 0 34
    endloop
  endfacet
  facet normal -0.998629 -0.0523381 0
    outer loop
      vertex -6 0 50
      vertex -5.96713 -0.627171 34
      vertex -5.96713 -0.627171 50
    endloop
  endfacet
  facet normal -0.998629 -0.0523381 0
    outer loop
      vertex -5.96713 -0.627171 0
      vertex -6 0 24
      vertex -6 0 0
    endloop
  endfacet
  facet normal -0.998629 -0.0523381 0
    outer loop
      vertex -6 0 24
      vertex -5.96713 -0.627171 0
      vertex -5.96713 -0.627171 24
    endloop
  endfacet
  facet normal -0.965924 0.258825 0
    outer loop
      vertex -5.86889 1.24747 0
      vertex -5.70634 1.8541 24
      vertex -5.70634 1.8541 0
    endloop
  endfacet
  facet normal -0.965924 0.258825 0
    outer loop
      vertex -5.70634 1.8541 24
      vertex -5.86889 1.24747 0
      vertex -5.86889 1.24747 24
    endloop
  endfacet
  facet normal -0.965924 0.258825 0
    outer loop
      vertex -5.86889 1.24747 34
      vertex -5.70634 1.8541 50
      vertex -5.70634 1.8541 34
    endloop
  endfacet
  facet normal -0.965924 0.258825 0
    outer loop
      vertex -5.70634 1.8541 50
      vertex -5.86889 1.24747 34
      vertex -5.86889 1.24747 50
    endloop
  endfacet
  facet normal 0 0 1
    outer loop
      vertex 5.96713 0.627171 50
      vertex 5.96713 -0.627171 50
      vertex 6 0 50
    endloop
  endfacet
  facet normal 0 0 1
    outer loop
      vertex 5.86889 1.24747 50
      vertex 5.96713 -0.627171 50
      vertex 5.96713 0.627171 50
    endloop
  endfacet
  facet normal 0 0 1
    outer loop
      vertex 5.86889 1.24747 50
      vertex 5.86889 -1.24747 50
      vertex 5.96713 -0.627171 50
    endloop
  endfacet
  facet normal 0 0 1
    outer loop
      vertex 5.70634 1.8541 50
      vertex 5.86889 -1.24747 50
      vertex 5.86889 1.24747 50
    endloop
  endfacet
  facet normal 0 0 1
    outer loop
      vertex 5.70634 1.8541 50
      vertex 5.70634 -1.8541 50
      vertex 5.86889 -1.24747 50
    endloop
  endfacet
  facet normal 0 0 1
    outer loop
      vertex 5.48127 2.44042 50
      vertex 5.70634 -1.8541 50
      vertex 5.70634 1.8541 50
    endloop
  endfacet
  facet normal 0 0 1
    outer loop
      vertex 5.48127 2.44042 50
      vertex 5.48127 -2.44042 50
      vertex 5.70634 -1.8541 50
    endloop
  endfacet
  facet normal 0 0 1
    outer loop
      vertex 5.19615 3 50
      vertex 5.48127 -2.44042 50
      vertex 5.48127 2.44042 50
    endloop
  endfacet
  facet normal 0 0 1
    outer loop
      vertex 5.19615 3 50
      vertex 5.19615 -3 50
      vertex 5.48127 -2.44042 50
    endloop
  endfacet
  facet normal 0 0 1
    outer loop
      vertex 4.8541 3.52671 50
      vertex 5.19615 -3 50
      vertex 5.19615 3 50
    endloop
  endfacet
  facet normal 0 0 1
    outer loop
      vertex 4.8541 3.52671 50
      vertex 4.8541 -3.52671 50
      vertex 5.19615 -3 50
    endloop
  endfacet
  facet normal 0 0 1
    outer loop
      vertex 4.45887 4.01478 50
      vertex 4.8541 -3.52671 50
      vertex 4.8541 3.52671 50
    endloop
  endfacet
  facet normal 0 0 1
    outer loop
      vertex 4.45887 4.01478 50
      vertex 4.45887 -4.01478 50
      vertex 4.8541 -3.52671 50
    endloop
  endfacet
  facet normal 0 0 1
    outer loop
      vertex 4.01478 4.45887 50
      vertex 4.45887 -4.01478 50
      vertex 4.45887 4.01478 50
    endloop
  endfacet
  facet normal 0 0 1
    outer loop
      vertex 4.01478 4.45887 50
      vertex 4.01478 -4.45887 50
      vertex 4.45887 -4.01478 50
    endloop
  endfacet
  facet normal 0 0 1
    outer loop
      vertex 3.52671 4.8541 50
      vertex 4.01478 -4.45887 50
      vertex 4.01478 4.45887 50
    endloop
  endfacet
  facet normal 0 0 1
    outer loop
      vertex 3.52671 4.8541 50
      vertex 3.52671 -4.8541 50
      vertex 4.01478 -4.45887 50
    endloop
  endfacet
  facet normal 0 0 1
    outer loop
      vertex 3 5.19615 50
      vertex 3.52671 -4.8541 50
      vertex 3.52671 4.8541 50
    endloop
  endfacet
  facet normal 0 0 1
    outer loop
      vertex 3 5.19615 50
      vertex 3 -5.19615 50
      vertex 3.52671 -4.8541 50
    endloop
  endfacet
  facet normal 0 0 1
    outer loop
      vertex 2.44042 5.48127 50
      vertex 3 -5.19615 50
      vertex 3 5.19615 50
    endloop
  endfacet
  facet normal 0 0 1
    outer loop
      vertex 2.44042 5.48127 50
      vertex 2.44042 -5.48127 50
      vertex 3 -5.19615 50
    endloop
  endfacet
  facet normal 0 0 1
    outer loop
      vertex 1.8541 5.70634 50
      vertex 2.44042 -5.48127 50
      vertex 2.44042 5.48127 50
    endloop
  endfacet
  facet normal 0 0 1
    outer loop
      vertex 1.8541 5.70634 50
      vertex 1.8541 -5.70634 50
      vertex 2.44042 -5.48127 50
    endloop
  endfacet
  facet normal 0 0 1
    outer loop
      vertex 1.24747 5.86889 50
      vertex 1.8541 -5.70634 50
      vertex 1.8541 5.70634 50
    endloop
  endfacet
  facet normal 0 0 1
    outer loop
      vertex 1.24747 5.86889 50
      vertex 1.24747 -5.86889 50
      vertex 1.8541 -5.70634 50
    endloop
  endfacet
  facet normal 0 0 1
    outer loop
      vertex 0.627171 5.96713 50
      vertex 1.24747 -5.86889 50
      vertex 1.24747 5.86889 50
    endloop
  endfacet
  facet normal 0 0 1
    outer loop
      vertex 0.627171 5.96713 50
      vertex 0.627171 -5.96713 50
      vertex 1.24747 -5.86889 50
    endloop
  endfacet
  facet normal 0 0 1
    outer loop
      vertex 0 6 50
      vertex 0.627171 -5.96713 50
      vertex 0.627171 5.96713 50
    endloop
  endfacet
  facet normal 0 0 1
    outer loop
      vertex 0 6 50
      vertex 0 -6 50
      vertex 0.627171 -5.96713 50
    endloop
  endfacet
  facet normal -0 0 1
    outer loop
      vertex -0.627171 5.96713 50
      vertex 0 -6 50
      vertex 0 6 50
    endloop
  endfacet
  facet normal 0 0 1
    outer loop
      vertex -0.627171 5.96713 50
      vertex -0.627171 -5.96713 50
      vertex 0 -6 50
    endloop
  endfacet
  facet normal -0 0 1
    outer loop
      vertex -1.24747 5.86889 50
      vertex -0.627171 -5.96713 50
      vertex -0.627171 5.96713 50
    endloop
  endfacet
  facet normal 0 0 1
    outer loop
      vertex -1.24747 5.86889 50
      vertex -1.24747 -5.86889 50
      vertex -0.627171 -5.96713 50
    endloop
  endfacet
  facet normal -0 0 1
    outer loop
      vertex -1.8541 5.70634 50
      vertex -1.24747 -5.86889 50
      vertex -1.24747 5.86889 50
    endloop
  endfacet
  facet normal 0 0 1
    outer loop
      vertex -1.8541 5.70634 50
      vertex -1.8541 -5.70634 50
      vertex -1.24747 -5.86889 50
    endloop
  endfacet
  facet normal -0 0 1
    outer loop
      vertex -2.44042 5.48127 50
      vertex -1.8541 -5.70634 50
      vertex -1.8541 5.70634 50
    endloop
  endfacet
  facet normal 0 0 1
    outer loop
      vertex -2.44042 5.48127 50
      vertex -2.44042 -5.48127 50
      vertex -1.8541 -5.70634 50
    endloop
  endfacet
  facet normal -0 0 1
    outer loop
      vertex -3 5.19615 50
      vertex -2.44042 -5.48127 50
      vertex -2.44042 5.48127 50
    endloop
  endfacet
  facet normal 0 0 1
    outer loop
      vertex -3 5.19615 50
      vertex -3 -5.19615 50
      vertex -2.44042 -5.48127 50
    endloop
  endfacet
  facet normal -0 0 1
    outer loop
      vertex -3.52671 4.8541 50
      vertex -3 -5.19615 50
      vertex -3 5.19615 50
    endloop
  endfacet
  facet normal 0 0 1
    outer loop
      vertex -3.52671 4.8541 50
      vertex -3.52671 -4.8541 50
      vertex -3 -5.19615 50
    endloop
  endfacet
  facet normal -0 0 1
    outer loop
      vertex -4.01478 4.45887 50
      vertex -3.52671 -4.8541 50
      vertex -3.52671 4.8541 50
    endloop
  endfacet
  facet normal 0 0 1
    outer loop
      vertex -4.01478 4.45887 50
      vertex -4.01478 -4.45887 50
      vertex -3.52671 -4.8541 50
    endloop
  endfacet
  facet normal -0 0 1
    outer loop
      vertex -4.45887 4.01478 50
      vertex -4.01478 -4.45887 50
      vertex -4.01478 4.45887 50
    endloop
  endfacet
  facet normal 0 0 1
    outer loop
      vertex -4.45887 4.01478 50
      vertex -4.45887 -4.01478 50
      vertex -4.01478 -4.45887 50
    endloop
  endfacet
  facet normal -0 0 1
    outer loop
      vertex -4.8541 3.52671 50
      vertex -4.45887 -4.01478 50
      vertex -4.45887 4.01478 50
    endloop
  endfacet
  facet normal 0 0 1
    outer loop
      vertex -4.8541 3.52671 50
      vertex -4.8541 -3.52671 50
      vertex -4.45887 -4.01478 50
    endloop
  endfacet
  facet normal -0 0 1
    outer loop
      vertex -5.19615 3 50
      vertex -4.8541 -3.52671 50
      vertex -4.8541 3.52671 50
    endloop
  endfacet
  facet normal 0 0 1
    outer loop
      vertex -5.19615 3 50
      vertex -5.19615 -3 50
      vertex -4.8541 -3.52671 50
    endloop
  endfacet
  facet normal -0 0 1
    outer loop
      vertex -5.48127 2.44042 50
      vertex -5.19615 -3 50
      vertex -5.19615 3 50
    endloop
  endfacet
  facet normal 0 0 1
    outer loop
      vertex -5.48127 2.44042 50
      vertex -5.48127 -2.44042 50
      vertex -5.19615 -3 50
    endloop
  endfacet
  facet normal -0 0 1
    outer loop
      vertex -5.70634 1.8541 50
      vertex -5.48127 -2.44042 50
      vertex -5.48127 2.44042 50
    endloop
  endfacet
  facet normal 0 0 1
    outer loop
      vertex -5.70634 1.8541 50
      vertex -5.70634 -1.8541 50
      vertex -5.48127 -2.44042 50
    endloop
  endfacet
  facet normal -0 0 1
    outer loop
      vertex -5.86889 1.24747 50
      vertex -5.70634 -1.8541 50
      vertex -5.70634 1.8541 50
    endloop
  endfacet
  facet normal 0 0 1
    outer loop
      vertex -5.86889 1.24747 50
      vertex -5.86889 -1.24747 50
      vertex -5.70634 -1.8541 50
    endloop
  endfacet
  facet normal -0 0 1
    outer loop
      vertex -5.96713 0.627171 50
      vertex -5.86889 -1.24747 50
      vertex -5.86889 1.24747 50
    endloop
  endfacet
  facet normal 0 0 1
    outer loop
      vertex -5.96713 0.627171 50
      vertex -5.96713 -0.627171 50
      vertex -5.86889 -1.24747 50
    endloop
  endfacet
  facet normal 0 -0 1
    outer loop
      vertex -5.96713 -0.627171 50
      vertex -5.96713 0.627171 50
      vertex -6 0 50
    endloop
  endfacet
  facet normal -0.629319 -0.777147 0
    outer loop
      vertex -4.01478 -4.45887 34
      vertex -3.52671 -4.8541 50
      vertex -4.01478 -4.45887 50
    endloop
  endfacet
  facet normal -0.629319 -0.777147 -0
    outer loop
      vertex -3.52671 -4.8541 50
      vertex -4.01478 -4.45887 34
      vertex -3.52671 -4.8541 34
    endloop
  endfacet
  facet normal -0.629319 -0.777147 0
    outer loop
      vertex -4.01478 -4.45887 0
      vertex -3.52671 -4.8541 24
      vertex -4.01478 -4.45887 24
    endloop
  endfacet
  facet normal -0.629319 -0.777147 -0
    outer loop
      vertex -3.52671 -4.8541 24
      vertex -4.01478 -4.45887 0
      vertex -3.52671 -4.8541 0
    endloop
  endfacet
  facet normal 0.933579 -0.358372 0
    outer loop
      vertex 5.48127 -2.44042 50
      vertex 5.70634 -1.8541 34
      vertex 5.70634 -1.8541 50
    endloop
  endfacet
  facet normal 0.933579 -0.358372 0
    outer loop
      vertex 5.70634 -1.8541 34
      vertex 5.48127 -2.44042 50
      vertex 5.48127 -2.44042 34
    endloop
  endfacet
  facet normal 0.933579 -0.358372 0
    outer loop
      vertex 5.48127 -2.44042 24
      vertex 5.70634 -1.8541 0
      vertex 5.70634 -1.8541 24
    endloop
  endfacet
  facet normal 0.933579 -0.358372 0
    outer loop
      vertex 5.70634 -1.8541 0
      vertex 5.48127 -2.44042 24
      vertex 5.48127 -2.44042 0
    endloop
  endfacet
  facet normal -0.54464 -0.83867 0
    outer loop
      vertex -3.52671 -4.8541 0
      vertex -3 -5.19615 24
      vertex -3.52671 -4.8541 24
    endloop
  endfacet
  facet normal -0.54464 -0.83867 -0
    outer loop
      vertex -3 -5.19615 24
      vertex -3.52671 -4.8541 0
      vertex -3 -5.19615 0
    endloop
  endfacet
  facet normal -0.54464 -0.83867 0
    outer loop
      vertex -3.52671 -4.8541 34
      vertex -3 -5.19615 50
      vertex -3.52671 -4.8541 50
    endloop
  endfacet
  facet normal -0.54464 -0.83867 -0
    outer loop
      vertex -3 -5.19615 50
      vertex -3.52671 -4.8541 34
      vertex -3 -5.19615 34
    endloop
  endfacet
  facet normal -0.0523381 -0.998629 0
    outer loop
      vertex -0.627171 -5.96713 34
      vertex 0 -6 50
      vertex -0.627171 -5.96713 50
    endloop
  endfacet
  facet normal -0.0523381 -0.998629 -0
    outer loop
      vertex 0 -6 50
      vertex -0.627171 -5.96713 34
      vertex 0 -6 34
    endloop
  endfacet
  facet normal -0.0523381 -0.998629 0
    outer loop
      vertex -0.627171 -5.96713 0
      vertex 0 -6 24
      vertex -0.627171 -5.96713 24
    endloop
  endfacet
  facet normal -0.0523381 -0.998629 -0
    outer loop
      vertex 0 -6 24
      vertex -0.627171 -5.96713 0
      vertex 0 -6 0
    endloop
  endfacet
  facet normal -0.54464 0.83867 0
    outer loop
      vertex -3 5.19615 0
      vertex -3.52671 4.8541 24
      vertex -3 5.19615 24
    endloop
  endfacet
  facet normal -0.54464 0.83867 0
    outer loop
      vertex -3.52671 4.8541 24
      vertex -3 5.19615 0
      vertex -3.52671 4.8541 0
    endloop
  endfacet
  facet normal -0.54464 0.83867 0
    outer loop
      vertex -3 5.19615 34
      vertex -3.52671 4.8541 50
      vertex -3 5.19615 50
    endloop
  endfacet
  facet normal -0.54464 0.83867 0
    outer loop
      vertex -3.52671 4.8541 50
      vertex -3 5.19615 34
      vertex -3.52671 4.8541 34
    endloop
  endfacet
  facet normal -0.998629 0.0523381 0
    outer loop
      vertex -6 0 0
      vertex -5.96713 0.627171 24
      vertex -5.96713 0.627171 0
    endloop
  endfacet
  facet normal -0.998629 0.0523381 0
    outer loop
      vertex -5.96713 0.627171 24
      vertex -6 0 0
      vertex -6 0 24
    endloop
  endfacet
  facet normal -0.998629 0.0523381 0
    outer loop
      vertex -6 0 34
      vertex -5.96713 0.627171 50
      vertex -5.96713 0.627171 34
    endloop
  endfacet
  facet normal -0.998629 0.0523381 0
    outer loop
      vertex -5.96713 0.627171 50
      vertex -6 0 34
      vertex -6 0 50
    endloop
  endfacet
  facet normal -0.358372 -0.933579 0
    outer loop
      vertex -2.44042 -5.48127 0
      vertex -1.8541 -5.70634 24
      vertex -2.44042 -5.48127 24
    endloop
  endfacet
  facet normal -0.358372 -0.933579 -0
    outer loop
      vertex -1.8541 -5.70634 24
      vertex -2.44042 -5.48127 0
      vertex -1.8541 -5.70634 0
    endloop
  endfacet
  facet normal -0.358372 -0.933579 0
    outer loop
      vertex -2.44042 -5.48127 34
      vertex -1.8541 -5.70634 50
      vertex -2.44042 -5.48127 50
    endloop
  endfacet
  facet normal -0.358372 -0.933579 -0
    outer loop
      vertex -1.8541 -5.70634 50
      vertex -2.44042 -5.48127 34
      vertex -1.8541 -5.70634 34
    endloop
  endfacet
  facet normal -0.156426 -0.98769 0
    outer loop
      vertex -1.24747 -5.86889 0
      vertex -0.627171 -5.96713 24
      vertex -1.24747 -5.86889 24
    endloop
  endfacet
  facet normal -0.156426 -0.98769 -0
    outer loop
      vertex -0.627171 -5.96713 24
      vertex -1.24747 -5.86889 0
      vertex -0.627171 -5.96713 0
    endloop
  endfacet
  facet normal -0.156426 -0.98769 0
    outer loop
      vertex -1.24747 -5.86889 34
      vertex -0.627171 -5.96713 50
      vertex -1.24747 -5.86889 50
    endloop
  endfacet
  facet normal -0.156426 -0.98769 -0
    outer loop
      vertex -0.627171 -5.96713 50
      vertex -1.24747 -5.86889 34
      vertex -0.627171 -5.96713 34
    endloop
  endfacet
  facet normal 0.707107 -0.707107 0
    outer loop
      vertex 4.01478 -4.45887 50
      vertex 4.45887 -4.01478 34
      vertex 4.45887 -4.01478 50
    endloop
  endfacet
  facet normal 0.707107 -0.707107 0
    outer loop
      vertex 4.45887 -4.01478 34
      vertex 4.01478 -4.45887 50
      vertex 4.01478 -4.45887 34
    endloop
  endfacet
  facet normal 0.707107 -0.707107 0
    outer loop
      vertex 4.01478 -4.45887 24
      vertex 4.45887 -4.01478 0
      vertex 4.45887 -4.01478 24
    endloop
  endfacet
  facet normal 0.707107 -0.707107 0
    outer loop
      vertex 4.45887 -4.01478 0
      vertex 4.01478 -4.45887 24
      vertex 4.01478 -4.45887 0
    endloop
  endfacet
  facet normal 0.629319 -0.777147 0
    outer loop
      vertex 3.52671 -4.8541 0
      vertex 4.01478 -4.45887 24
      vertex 3.52671 -4.8541 24
    endloop
  endfacet
  facet normal 0.629319 -0.777147 0
    outer loop
      vertex 4.01478 -4.45887 24
      vertex 3.52671 -4.8541 0
      vertex 4.01478 -4.45887 0
    endloop
  endfacet
  facet normal 0.629319 -0.777147 0
    outer loop
      vertex 3.52671 -4.8541 34
      vertex 4.01478 -4.45887 50
      vertex 3.52671 -4.8541 50
    endloop
  endfacet
  facet normal 0.629319 -0.777147 0
    outer loop
      vertex 4.01478 -4.45887 50
      vertex 3.52671 -4.8541 34
      vertex 4.01478 -4.45887 34
    endloop
  endfacet
endsolid OpenSCAD_Model
