solid OpenSCAD_Model
  facet normal 1 -0 0
    outer loop
      vertex -18 -22 4
      vertex -18 22 -14
      vertex -18 22 4
    endloop
  endfacet
  facet normal 1 0 0
    outer loop
      vertex -18 22 -14
      vertex -18 -22 4
      vertex -18 -22 -14
    endloop
  endfacet
  facet normal -0 0 1
    outer loop
      vertex -32 22 4
      vertex -18 -22 4
      vertex -18 22 4
    endloop
  endfacet
  facet normal 0 0 1
    outer loop
      vertex -18 -22 4
      vertex -32 22 4
      vertex -32 -22 4
    endloop
  endfacet
  facet normal 0 0 -1
    outer loop
      vertex -32 -22 -14
      vertex -18 22 -14
      vertex -18 -22 -14
    endloop
  endfacet
  facet normal -0 0 -1
    outer loop
      vertex -18 22 -14
      vertex -32 -22 -14
      vertex -32 22 -14
    endloop
  endfacet
  facet normal -1 0 0
    outer loop
      vertex -32 -22 -14
      vertex -32 22 4
      vertex -32 22 -14
    endloop
  endfacet
  facet normal -1 -0 0
    outer loop
      vertex -32 22 4
      vertex -32 -22 -14
      vertex -32 -22 4
    endloop
  endfacet
  facet normal 0 1 -0
    outer loop
      vertex -18 22 -14
      vertex -32 22 4
      vertex -18 22 4
    endloop
  endfacet
  facet normal 0 1 0
    outer loop
      vertex -32 22 4
      vertex -18 22 -14
      vertex -32 22 -14
    endloop
  endfacet
  facet normal 0 -1 0
    outer loop
      vertex -32 -22 -14
      vertex -18 -22 4
      vertex -32 -22 4
    endloop
  endfacet
  facet normal 0 -1 -0
    outer loop
      vertex -18 -22 4
      vertex -32 -22 -14
      vertex -18 -22 -14
    endloop
  endfacet
  facet normal 1 -0 0
    outer loop
      vertex 32 -22 4
      vertex 32 22 -14
      vertex 32 22 4
    endloop
  endfacet
  facet normal 1 0 0
    outer loop
      vertex 32 22 -14
      vertex 32 -22 4
      vertex 32 -22 -14
    endloop
  endfacet
  facet normal -0 0 1
    outer loop
      vertex 18 22 4
      vertex 32 -22 4
      vertex 32 22 4
    endloop
  endfacet
  facet normal 0 0 1
    outer loop
      vertex 32 -22 4
      vertex 18 22 4
      vertex 18 -22 4
    endloop
  endfacet
  facet normal 0 0 -1
    outer loop
      vertex 18 -22 -14
      vertex 32 22 -14
      vertex 32 -22 -14
    endloop
  endfacet
  facet normal -0 0 -1
    outer loop
      vertex 32 22 -14
      vertex 18 -22 -14
      vertex 18 22 -14
    endloop
  endfacet
  facet normal -1 0 0
    outer loop
      vertex 18 -22 -14
      vertex 18 22 4
      vertex 18 22 -14
    endloop
  endfacet
  facet normal -1 -0 0
    outer loop
      vertex 18 22 4
      vertex 18 -22 -14
      vertex 18 -22 4
    endloop
  endfacet
  facet normal 0 1 -0
    outer loop
      vertex 32 22 -14
      vertex 18 22 4
      vertex 32 22 4
    endloop
  endfacet
  facet normal 0 1 0
    outer loop
      vertex 18 22 4
      vertex 32 22 -14
      vertex 18 22 -14
    endloop
  endfacet
  facet normal 0 -1 0
    outer loop
      vertex 18 -22 -14
      vertex 32 -22 4
      vertex 18 -22 4
    endloop
  endfacet
  facet normal 0 -1 -0
    outer loop
      vertex 32 -22 4
      vertex 18 -22 -14
      vertex 32 -22 -14
    endloop
  endfacet
  facet normal 0 0 -1
    outer loop
      vertex 0 0 -20
      vertex -20 30 -20
      vertex 20 30 -20
    endloop
  endfacet
  facet normal -0.83205 -0.5547 0
    outer loop
      vertex 0 0 -20
      vertex -20 30 20
      vertex -20 30 -20
    endloop
  endfacet
  facet normal -0.83205 -0.5547 0
    outer loop
      vertex -20 30 20
      vertex 0 0 -20
      vertex 0 0 20
    endloop
  endfacet
  facet normal 0.83205 -0.5547 0
    outer loop
      vertex 0 0 20
      vertex 20 30 -20
      vertex 20 30 20
    endloop
  endfacet
  facet normal 0.83205 -0.5547 0
    outer loop
      vertex 20 30 -20
      vertex 0 0 20
      vertex 0 0 -20
    endloop
  endfacet
  facet normal 0 0 1
    outer loop
      vertex 20 30 20
      vertex -20 30 20
      vertex 0 0 20
    endloop
  endfacet
  facet normal 0 1 -0
    outer loop
      vertex 20 30 -20
      vertex -20 30 20
      vertex 20 30 20
    endloop
  endfacet
  facet normal 0 1 0
    outer loop
      vertex -20 30 20
      vertex 20 30 -20
      vertex -20 30 -20
    endloop
  endfacet
endsolid OpenSCAD_Model
