solid OpenSCAD_Model
  facet normal -0 0 1
    outer loop
      vertex 41.5 2.5 -12
      vertex 61.5 -2.5 -12
      vertex 61.5 2.5 -12
    endloop
  endfacet
  facet normal 0 0 1
    outer loop
      vertex 61.5 -2.5 -12
      vertex 41.5 2.5 -12
      vertex 41.5 -2.5 -12
    endloop
  endfacet
  facet normal -0 0 1
    outer loop
      vertex -38.5 2.5 -12
      vertex -38.2042 -2.5 -12
      vertex -38.2042 2.5 -12
    endloop
  endfacet
  facet normal 0 0 1
    outer loop
      vertex -38.2042 -2.5 -12
      vertex -38.5 2.5 -12
      vertex -38.5 -2.5 -12
    endloop
  endfacet
  facet normal -0 0 1
    outer loop
      vertex -32.7958 2.5 -12
      vertex -21.5 -2.5 -12
      vertex -21.5 2.5 -12
    endloop
  endfacet
  facet normal 0 0 1
    outer loop
      vertex -21.5 -2.5 -12
      vertex -32.7958 2.5 -12
      vertex -32.7958 -2.5 -12
    endloop
  endfacet
  facet normal -0 0 1
    outer loop
      vertex -18.5 2.5 -12
      vertex -18.2042 -2.5 -12
      vertex -18.2042 2.5 -12
    endloop
  endfacet
  facet normal 0 0 1
    outer loop
      vertex -18.2042 -2.5 -12
      vertex -18.5 2.5 -12
      vertex -18.5 -2.5 -12
    endloop
  endfacet
  facet normal -0 0 1
    outer loop
      vertex -12.7958 2.5 -12
      vertex -1.5 -2.5 -12
      vertex -1.5 2.5 -12
    endloop
  endfacet
  facet normal 0 0 1
    outer loop
      vertex -1.5 -2.5 -12
      vertex -12.7958 2.5 -12
      vertex -12.7958 -2.5 -12
    endloop
  endfacet
  facet normal -0 0 1
    outer loop
      vertex 1.5 2.5 -12
      vertex 1.79584 -2.5 -12
      vertex 1.79584 2.5 -12
    endloop
  endfacet
  facet normal 0 0 1
    outer loop
      vertex 1.79584 -2.5 -12
      vertex 1.5 2.5 -12
      vertex 1.5 -2.5 -12
    endloop
  endfacet
  facet normal -0 0 1
    outer loop
      vertex 7.20416 2.5 -12
      vertex 18.5 -2.5 -12
      vertex 18.5 2.5 -12
    endloop
  endfacet
  facet normal 0 0 1
    outer loop
      vertex 18.5 -2.5 -12
      vertex 7.20416 2.5 -12
      vertex 7.20416 -2.5 -12
    endloop
  endfacet
  facet normal -0 0 1
    outer loop
      vertex 21.5 2.5 -12
      vertex 21.7958 -2.5 -12
      vertex 21.7958 2.5 -12
    endloop
  endfacet
  facet normal 0 0 1
    outer loop
      vertex 21.7958 -2.5 -12
      vertex 21.5 2.5 -12
      vertex 21.5 -2.5 -12
    endloop
  endfacet
  facet normal -0 0 1
    outer loop
      vertex 27.2042 2.5 -12
      vertex 38.5 -2.5 -12
      vertex 38.5 2.5 -12
    endloop
  endfacet
  facet normal 0 0 1
    outer loop
      vertex 38.5 -2.5 -12
      vertex 27.2042 2.5 -12
      vertex 27.2042 -2.5 -12
    endloop
  endfacet
  facet normal 0 0 -1
    outer loop
      vertex -41.5 -2.5 -15
      vertex -40 2.5 -15
      vertex -40 -2.5 -15
    endloop
  endfacet
  facet normal -0 0 -1
    outer loop
      vertex -40 2.5 -15
      vertex -41.5 -2.5 -15
      vertex -41.5 2.5 -15
    endloop
  endfacet
  facet normal 0 0 -1
    outer loop
      vertex 22.7042 -2.5 -15
      vertex 61.5 2.5 -15
      vertex 61.5 -2.5 -15
    endloop
  endfacet
  facet normal -0 0 -1
    outer loop
      vertex 61.5 2.5 -15
      vertex 22.7042 -2.5 -15
      vertex 22.7042 2.5 -15
    endloop
  endfacet
  facet normal 0 0 -1
    outer loop
      vertex -37.2958 -2.5 -15
      vertex -20 2.5 -15
      vertex -20 -2.5 -15
    endloop
  endfacet
  facet normal -0 0 -1
    outer loop
      vertex -20 2.5 -15
      vertex -37.2958 -2.5 -15
      vertex -37.2958 2.5 -15
    endloop
  endfacet
  facet normal 0 0 -1
    outer loop
      vertex -17.2958 -2.5 -15
      vertex 3.17891e-07 2.5 -15
      vertex 3.17891e-07 -2.5 -15
    endloop
  endfacet
  facet normal -0 0 -1
    outer loop
      vertex 3.17891e-07 2.5 -15
      vertex -17.2958 -2.5 -15
      vertex -17.2958 2.5 -15
    endloop
  endfacet
  facet normal 0 0 -1
    outer loop
      vertex 2.70416 -2.5 -15
      vertex 20 2.5 -15
      vertex 20 -2.5 -15
    endloop
  endfacet
  facet normal -0 0 -1
    outer loop
      vertex 20 2.5 -15
      vertex 2.70416 -2.5 -15
      vertex 2.70416 2.5 -15
    endloop
  endfacet
  facet normal -1 0 0
    outer loop
      vertex -41.5 -2.5 -15
      vertex -41.5 2.5 15
      vertex -41.5 2.5 -15
    endloop
  endfacet
  facet normal -1 -0 0
    outer loop
      vertex -41.5 2.5 15
      vertex -41.5 -2.5 -15
      vertex -41.5 -2.5 15
    endloop
  endfacet
  facet normal 0 1 -0
    outer loop
      vertex 61.5 2.5 -15
      vertex 41.5 2.5 -12
      vertex 61.5 2.5 -12
    endloop
  endfacet
  facet normal 0 1 0
    outer loop
      vertex 22.7042 2.5 -15
      vertex 41.5 2.5 -12
      vertex 61.5 2.5 -15
    endloop
  endfacet
  facet normal 0 1 0
    outer loop
      vertex 41.5 2.5 -12
      vertex 22.7042 2.5 -15
      vertex 38.5 2.5 -12
    endloop
  endfacet
  facet normal 0 1 0
    outer loop
      vertex 27.2042 2.5 -12
      vertex 22.7042 2.5 -15
      vertex 21.7958 2.5 -12
    endloop
  endfacet
  facet normal 0 1 0
    outer loop
      vertex 21.7958 2.5 -12
      vertex 22.7042 2.5 -15
      vertex 21.5 2.5 -12
    endloop
  endfacet
  facet normal 0 1 0
    outer loop
      vertex 20 2.5 -15
      vertex 21.5 2.5 -12
      vertex 22.7042 2.5 -15
    endloop
  endfacet
  facet normal 0 1 0
    outer loop
      vertex 21.5 2.5 -12
      vertex 20 2.5 -15
      vertex 18.5 2.5 -12
    endloop
  endfacet
  facet normal 0 1 0
    outer loop
      vertex 18.5 2.5 -12
      vertex 20 2.5 -15
      vertex 7.20416 2.5 -12
    endloop
  endfacet
  facet normal 0 1 0
    outer loop
      vertex 2.70416 2.5 -15
      vertex 7.20416 2.5 -12
      vertex 20 2.5 -15
    endloop
  endfacet
  facet normal 0 1 0
    outer loop
      vertex 7.20416 2.5 -12
      vertex 2.70416 2.5 -15
      vertex 1.79584 2.5 -12
    endloop
  endfacet
  facet normal 0 1 0
    outer loop
      vertex 1.79584 2.5 -12
      vertex 2.70416 2.5 -15
      vertex 1.5 2.5 -12
    endloop
  endfacet
  facet normal 0 1 0
    outer loop
      vertex 1.5 2.5 -12
      vertex 3.17891e-07 2.5 -15
      vertex -1.5 2.5 -12
    endloop
  endfacet
  facet normal 0 1 0
    outer loop
      vertex -1.5 2.5 -12
      vertex 3.17891e-07 2.5 -15
      vertex -12.7958 2.5 -12
    endloop
  endfacet
  facet normal 0 1 0
    outer loop
      vertex -17.2958 2.5 -15
      vertex -12.7958 2.5 -12
      vertex 3.17891e-07 2.5 -15
    endloop
  endfacet
  facet normal 0 1 0
    outer loop
      vertex -12.7958 2.5 -12
      vertex -17.2958 2.5 -15
      vertex -18.2042 2.5 -12
    endloop
  endfacet
  facet normal 0 1 0
    outer loop
      vertex -18.2042 2.5 -12
      vertex -17.2958 2.5 -15
      vertex -18.5 2.5 -12
    endloop
  endfacet
  facet normal 0 1 0
    outer loop
      vertex 38.5 2.5 -12
      vertex 22.7042 2.5 -15
      vertex 27.2042 2.5 -12
    endloop
  endfacet
  facet normal 0 1 -0
    outer loop
      vertex -18.5 2.5 -12
      vertex -21.5 2.5 -4.46944
      vertex -18.5 2.5 -2.46944
    endloop
  endfacet
  facet normal 0 1 0
    outer loop
      vertex -21.5 2.5 -4.46944
      vertex -18.5 2.5 -12
      vertex -21.5 2.5 -12
    endloop
  endfacet
  facet normal 0 1 -0
    outer loop
      vertex 1.5 2.5 -12
      vertex -1.5 2.5 -4.46944
      vertex 1.5 2.5 -2.46944
    endloop
  endfacet
  facet normal 0 1 0
    outer loop
      vertex -1.5 2.5 -4.46944
      vertex 1.5 2.5 -12
      vertex -1.5 2.5 -12
    endloop
  endfacet
  facet normal 0 1 -0
    outer loop
      vertex 21.5 2.5 -12
      vertex 18.5 2.5 -4.46944
      vertex 21.5 2.5 -2.46944
    endloop
  endfacet
  facet normal 0 1 0
    outer loop
      vertex 18.5 2.5 -4.46944
      vertex 21.5 2.5 -12
      vertex 18.5 2.5 -12
    endloop
  endfacet
  facet normal 0 1 -0
    outer loop
      vertex 41.5 2.5 -12
      vertex 38.5 2.5 -4.46944
      vertex 41.5 2.5 -2.46944
    endloop
  endfacet
  facet normal 0 1 0
    outer loop
      vertex 38.5 2.5 -4.46944
      vertex 41.5 2.5 -12
      vertex 38.5 2.5 -12
    endloop
  endfacet
  facet normal 0 1 0
    outer loop
      vertex -9.16795 2.5 3.75192
      vertex -18.5 2.5 1.13611
      vertex -10.832 2.5 6.24807
    endloop
  endfacet
  facet normal 0 1 0
    outer loop
      vertex -18.5 2.5 -2.46944
      vertex -18.5 2.5 1.13611
      vertex -9.16795 2.5 3.75192
    endloop
  endfacet
  facet normal 0 1 0
    outer loop
      vertex -18.5 2.5 1.13611
      vertex -18.5 2.5 -2.46944
      vertex -21.5 2.5 -0.863892
    endloop
  endfacet
  facet normal 0 1 0
    outer loop
      vertex -21.5 2.5 -4.46944
      vertex -21.5 2.5 -0.863892
      vertex -18.5 2.5 -2.46944
    endloop
  endfacet
  facet normal 0 1 0
    outer loop
      vertex -32.7958 2.5 -12
      vertex -21.5 2.5 -0.863892
      vertex -21.5 2.5 -4.46944
    endloop
  endfacet
  facet normal 0 1 0
    outer loop
      vertex -21.5 2.5 -0.863892
      vertex -32.7958 2.5 -12
      vertex -38.2042 2.5 -12
    endloop
  endfacet
  facet normal 0 1 0
    outer loop
      vertex 10.832 2.5 3.75192
      vertex 1.5 2.5 1.13611
      vertex 9.16795 2.5 6.24807
    endloop
  endfacet
  facet normal 0 1 0
    outer loop
      vertex 1.5 2.5 -2.46944
      vertex 1.5 2.5 1.13611
      vertex 10.832 2.5 3.75192
    endloop
  endfacet
  facet normal 0 1 0
    outer loop
      vertex 1.5 2.5 1.13611
      vertex 1.5 2.5 -2.46944
      vertex -1.5 2.5 -0.863892
    endloop
  endfacet
  facet normal 0 1 0
    outer loop
      vertex -1.5 2.5 -4.46944
      vertex -1.5 2.5 -0.863892
      vertex 1.5 2.5 -2.46944
    endloop
  endfacet
  facet normal 0 1 0
    outer loop
      vertex -12.7958 2.5 -12
      vertex -1.5 2.5 -0.863892
      vertex -1.5 2.5 -4.46944
    endloop
  endfacet
  facet normal 0 1 0
    outer loop
      vertex -1.5 2.5 -0.863892
      vertex -12.7958 2.5 -12
      vertex -18.2042 2.5 -12
    endloop
  endfacet
  facet normal 0 1 0
    outer loop
      vertex 30.8321 2.5 3.75192
      vertex 21.5 2.5 1.13611
      vertex 29.1679 2.5 6.24807
    endloop
  endfacet
  facet normal 0 1 0
    outer loop
      vertex 21.5 2.5 -2.46944
      vertex 21.5 2.5 1.13611
      vertex 30.8321 2.5 3.75192
    endloop
  endfacet
  facet normal 0 1 0
    outer loop
      vertex 21.5 2.5 1.13611
      vertex 21.5 2.5 -2.46944
      vertex 18.5 2.5 -0.863892
    endloop
  endfacet
  facet normal 0 1 0
    outer loop
      vertex 18.5 2.5 -4.46944
      vertex 18.5 2.5 -0.863892
      vertex 21.5 2.5 -2.46944
    endloop
  endfacet
  facet normal 0 1 0
    outer loop
      vertex 7.20416 2.5 -12
      vertex 18.5 2.5 -0.863892
      vertex 18.5 2.5 -4.46944
    endloop
  endfacet
  facet normal 0 1 0
    outer loop
      vertex 18.5 2.5 -0.863892
      vertex 7.20416 2.5 -12
      vertex 1.79584 2.5 -12
    endloop
  endfacet
  facet normal 0 1 0
    outer loop
      vertex 50.8321 2.5 3.75192
      vertex 41.5 2.5 1.13611
      vertex 49.1679 2.5 6.24807
    endloop
  endfacet
  facet normal 0 1 0
    outer loop
      vertex 41.5 2.5 -2.46944
      vertex 41.5 2.5 1.13611
      vertex 50.8321 2.5 3.75192
    endloop
  endfacet
  facet normal 0 1 0
    outer loop
      vertex 41.5 2.5 1.13611
      vertex 41.5 2.5 -2.46944
      vertex 38.5 2.5 -0.863892
    endloop
  endfacet
  facet normal 0 1 0
    outer loop
      vertex 38.5 2.5 -4.46944
      vertex 38.5 2.5 -0.863892
      vertex 41.5 2.5 -2.46944
    endloop
  endfacet
  facet normal 0 1 0
    outer loop
      vertex 27.2042 2.5 -12
      vertex 38.5 2.5 -0.863892
      vertex 38.5 2.5 -4.46944
    endloop
  endfacet
  facet normal 0 1 0
    outer loop
      vertex 38.5 2.5 -0.863892
      vertex 27.2042 2.5 -12
      vertex 21.7958 2.5 -12
    endloop
  endfacet
  facet normal 0 1 -0
    outer loop
      vertex -18.5 2.5 1.13611
      vertex -21.5 2.5 12
      vertex -18.5 2.5 12
    endloop
  endfacet
  facet normal 0 1 0
    outer loop
      vertex -21.5 2.5 12
      vertex -18.5 2.5 1.13611
      vertex -21.5 2.5 -0.863892
    endloop
  endfacet
  facet normal 0 1 -0
    outer loop
      vertex 1.5 2.5 1.13611
      vertex -1.5 2.5 12
      vertex 1.5 2.5 12
    endloop
  endfacet
  facet normal 0 1 0
    outer loop
      vertex -1.5 2.5 12
      vertex 1.5 2.5 1.13611
      vertex -1.5 2.5 -0.863892
    endloop
  endfacet
  facet normal 0 1 -0
    outer loop
      vertex 21.5 2.5 1.13611
      vertex 18.5 2.5 12
      vertex 21.5 2.5 12
    endloop
  endfacet
  facet normal 0 1 0
    outer loop
      vertex 18.5 2.5 12
      vertex 21.5 2.5 1.13611
      vertex 18.5 2.5 -0.863892
    endloop
  endfacet
  facet normal 0 1 -0
    outer loop
      vertex 41.5 2.5 1.13611
      vertex 38.5 2.5 12
      vertex 41.5 2.5 12
    endloop
  endfacet
  facet normal 0 1 0
    outer loop
      vertex 38.5 2.5 12
      vertex 41.5 2.5 1.13611
      vertex 38.5 2.5 -0.863892
    endloop
  endfacet
  facet normal 0 1 0
    outer loop
      vertex 41.5 2.5 12
      vertex 51.5 2.5 15
      vertex 51.5 2.5 12
    endloop
  endfacet
  facet normal 0 1 0
    outer loop
      vertex 38.5 2.5 12
      vertex 51.5 2.5 15
      vertex 41.5 2.5 12
    endloop
  endfacet
  facet normal 0 1 0
    outer loop
      vertex 21.5 2.5 12
      vertex 51.5 2.5 15
      vertex 38.5 2.5 12
    endloop
  endfacet
  facet normal 0 1 0
    outer loop
      vertex 18.5 2.5 12
      vertex 51.5 2.5 15
      vertex 21.5 2.5 12
    endloop
  endfacet
  facet normal 0 1 0
    outer loop
      vertex 51.5 2.5 15
      vertex 18.5 2.5 12
      vertex -31.5 2.5 15
    endloop
  endfacet
  facet normal 0 1 -0
    outer loop
      vertex 1.5 2.5 12
      vertex -31.5 2.5 15
      vertex 18.5 2.5 12
    endloop
  endfacet
  facet normal 0 1 -0
    outer loop
      vertex -1.5 2.5 12
      vertex -31.5 2.5 15
      vertex 1.5 2.5 12
    endloop
  endfacet
  facet normal 0 1 -0
    outer loop
      vertex -18.5 2.5 12
      vertex -31.5 2.5 15
      vertex -1.5 2.5 12
    endloop
  endfacet
  facet normal 0 1 -0
    outer loop
      vertex -21.5 2.5 12
      vertex -31.5 2.5 15
      vertex -18.5 2.5 12
    endloop
  endfacet
  facet normal 0 1 0
    outer loop
      vertex -31.5 2.5 15
      vertex -21.5 2.5 12
      vertex -31.5 2.5 12
    endloop
  endfacet
  facet normal 0 1 -0
    outer loop
      vertex -38.5 2.5 -12
      vertex -41.5 2.5 15
      vertex -38.5 2.5 15
    endloop
  endfacet
  facet normal 0 1 0
    outer loop
      vertex 3.17891e-07 2.5 -15
      vertex 1.5 2.5 -12
      vertex 2.70416 2.5 -15
    endloop
  endfacet
  facet normal 0 1 0
    outer loop
      vertex -20 2.5 -15
      vertex -18.5 2.5 -12
      vertex -17.2958 2.5 -15
    endloop
  endfacet
  facet normal 0 1 0
    outer loop
      vertex -18.5 2.5 -12
      vertex -20 2.5 -15
      vertex -21.5 2.5 -12
    endloop
  endfacet
  facet normal 0 1 0
    outer loop
      vertex -21.5 2.5 -12
      vertex -20 2.5 -15
      vertex -32.7958 2.5 -12
    endloop
  endfacet
  facet normal 0 1 0
    outer loop
      vertex -37.2958 2.5 -15
      vertex -32.7958 2.5 -12
      vertex -20 2.5 -15
    endloop
  endfacet
  facet normal 0 1 0
    outer loop
      vertex -32.7958 2.5 -12
      vertex -37.2958 2.5 -15
      vertex -38.2042 2.5 -12
    endloop
  endfacet
  facet normal 0 1 0
    outer loop
      vertex -38.2042 2.5 -12
      vertex -37.2958 2.5 -15
      vertex -38.5 2.5 -12
    endloop
  endfacet
  facet normal 0 1 0
    outer loop
      vertex -40 2.5 -15
      vertex -38.5 2.5 -12
      vertex -37.2958 2.5 -15
    endloop
  endfacet
  facet normal 0 1 0
    outer loop
      vertex -41.5 2.5 -15
      vertex -38.5 2.5 -12
      vertex -40 2.5 -15
    endloop
  endfacet
  facet normal 0 1 0
    outer loop
      vertex -38.5 2.5 -12
      vertex -41.5 2.5 -15
      vertex -41.5 2.5 15
    endloop
  endfacet
  facet normal 0 1 0
    outer loop
      vertex -37.2958 2.5 -15
      vertex -39.1679 2.5 -16.2481
      vertex -40 2.5 -15
    endloop
  endfacet
  facet normal 0 1 0
    outer loop
      vertex -17.2958 2.5 -15
      vertex -19.1679 2.5 -16.2481
      vertex -20 2.5 -15
    endloop
  endfacet
  facet normal 0 1 0
    outer loop
      vertex 2.70416 2.5 -15
      vertex 0.832049 2.5 -16.2481
      vertex 3.17891e-07 2.5 -15
    endloop
  endfacet
  facet normal 0 1 0
    outer loop
      vertex 22.7042 2.5 -15
      vertex 20.8321 2.5 -16.2481
      vertex 20 2.5 -15
    endloop
  endfacet
  facet normal 0 -1 0
    outer loop
      vertex 38.5 -2.5 12
      vertex 41.5 -2.5 1.13611
      vertex 41.5 -2.5 12
    endloop
  endfacet
  facet normal -0 -1 0
    outer loop
      vertex 41.5 -2.5 1.13611
      vertex 38.5 -2.5 12
      vertex 38.5 -2.5 -0.863892
    endloop
  endfacet
  facet normal 0 -1 0
    outer loop
      vertex 18.5 -2.5 12
      vertex 21.5 -2.5 1.13611
      vertex 21.5 -2.5 12
    endloop
  endfacet
  facet normal -0 -1 0
    outer loop
      vertex 21.5 -2.5 1.13611
      vertex 18.5 -2.5 12
      vertex 18.5 -2.5 -0.863892
    endloop
  endfacet
  facet normal 0 -1 0
    outer loop
      vertex -1.5 -2.5 12
      vertex 1.5 -2.5 1.13611
      vertex 1.5 -2.5 12
    endloop
  endfacet
  facet normal -0 -1 0
    outer loop
      vertex 1.5 -2.5 1.13611
      vertex -1.5 -2.5 12
      vertex -1.5 -2.5 -0.863892
    endloop
  endfacet
  facet normal 0 -1 0
    outer loop
      vertex -21.5 -2.5 12
      vertex -18.5 -2.5 1.13611
      vertex -18.5 -2.5 12
    endloop
  endfacet
  facet normal -0 -1 0
    outer loop
      vertex -18.5 -2.5 1.13611
      vertex -21.5 -2.5 12
      vertex -21.5 -2.5 -0.863892
    endloop
  endfacet
  facet normal 0 -1 0
    outer loop
      vertex -21.5 -2.5 12
      vertex -31.5 -2.5 15
      vertex -31.5 -2.5 12
    endloop
  endfacet
  facet normal 0 -1 0
    outer loop
      vertex -18.5 -2.5 12
      vertex -31.5 -2.5 15
      vertex -21.5 -2.5 12
    endloop
  endfacet
  facet normal 0 -1 0
    outer loop
      vertex -1.5 -2.5 12
      vertex -31.5 -2.5 15
      vertex -18.5 -2.5 12
    endloop
  endfacet
  facet normal 0 -1 0
    outer loop
      vertex 1.5 -2.5 12
      vertex -31.5 -2.5 15
      vertex -1.5 -2.5 12
    endloop
  endfacet
  facet normal 0 -1 0
    outer loop
      vertex -31.5 -2.5 15
      vertex 1.5 -2.5 12
      vertex 51.5 -2.5 15
    endloop
  endfacet
  facet normal 0 -1 0
    outer loop
      vertex 18.5 -2.5 12
      vertex 51.5 -2.5 15
      vertex 1.5 -2.5 12
    endloop
  endfacet
  facet normal 0 -1 0
    outer loop
      vertex 21.5 -2.5 12
      vertex 51.5 -2.5 15
      vertex 18.5 -2.5 12
    endloop
  endfacet
  facet normal 0 -1 0
    outer loop
      vertex 38.5 -2.5 12
      vertex 51.5 -2.5 15
      vertex 21.5 -2.5 12
    endloop
  endfacet
  facet normal 0 -1 0
    outer loop
      vertex 41.5 -2.5 12
      vertex 51.5 -2.5 15
      vertex 38.5 -2.5 12
    endloop
  endfacet
  facet normal 0 -1 -0
    outer loop
      vertex 51.5 -2.5 15
      vertex 41.5 -2.5 12
      vertex 51.5 -2.5 12
    endloop
  endfacet
  facet normal 0 -1 0
    outer loop
      vertex 41.5 -2.5 1.13611
      vertex 50.8321 -2.5 3.75192
      vertex 49.1679 -2.5 6.24807
    endloop
  endfacet
  facet normal 0 -1 0
    outer loop
      vertex 41.5 -2.5 -2.46944
      vertex 41.5 -2.5 1.13611
      vertex 38.5 -2.5 -0.863892
    endloop
  endfacet
  facet normal 0 -1 0
    outer loop
      vertex 41.5 -2.5 1.13611
      vertex 41.5 -2.5 -2.46944
      vertex 50.8321 -2.5 3.75192
    endloop
  endfacet
  facet normal 0 -1 0
    outer loop
      vertex 38.5 -2.5 -0.863892
      vertex 38.5 -2.5 -4.46944
      vertex 41.5 -2.5 -2.46944
    endloop
  endfacet
  facet normal 0 -1 0
    outer loop
      vertex 27.2042 -2.5 -12
      vertex 38.5 -2.5 -0.863892
      vertex 21.7958 -2.5 -12
    endloop
  endfacet
  facet normal 0 -1 -0
    outer loop
      vertex 38.5 -2.5 -0.863892
      vertex 27.2042 -2.5 -12
      vertex 38.5 -2.5 -4.46944
    endloop
  endfacet
  facet normal 0 -1 0
    outer loop
      vertex 20 -2.5 -15
      vertex 20.8321 -2.5 -16.2481
      vertex 22.7042 -2.5 -15
    endloop
  endfacet
  facet normal 0 -1 0
    outer loop
      vertex 3.17891e-07 -2.5 -15
      vertex 0.832049 -2.5 -16.2481
      vertex 2.70416 -2.5 -15
    endloop
  endfacet
  facet normal 0 -1 0
    outer loop
      vertex -20 -2.5 -15
      vertex -19.1679 -2.5 -16.2481
      vertex -17.2958 -2.5 -15
    endloop
  endfacet
  facet normal 0 -1 0
    outer loop
      vertex -40 -2.5 -15
      vertex -39.1679 -2.5 -16.2481
      vertex -37.2958 -2.5 -15
    endloop
  endfacet
  facet normal 0 -1 0
    outer loop
      vertex -41.5 -2.5 15
      vertex -38.5 -2.5 -12
      vertex -38.5 -2.5 15
    endloop
  endfacet
  facet normal 0 -1 0
    outer loop
      vertex -37.2958 -2.5 -15
      vertex -38.2042 -2.5 -12
      vertex -38.5 -2.5 -12
    endloop
  endfacet
  facet normal 0 -1 0
    outer loop
      vertex -38.2042 -2.5 -12
      vertex -37.2958 -2.5 -15
      vertex -32.7958 -2.5 -12
    endloop
  endfacet
  facet normal 0 -1 0
    outer loop
      vertex -20 -2.5 -15
      vertex -32.7958 -2.5 -12
      vertex -37.2958 -2.5 -15
    endloop
  endfacet
  facet normal 0 -1 0
    outer loop
      vertex -21.5 -2.5 -12
      vertex -20 -2.5 -15
      vertex -18.5 -2.5 -12
    endloop
  endfacet
  facet normal 0 -1 0
    outer loop
      vertex -17.2958 -2.5 -15
      vertex -18.5 -2.5 -12
      vertex -20 -2.5 -15
    endloop
  endfacet
  facet normal 0 -1 0
    outer loop
      vertex -18.5 -2.5 -12
      vertex -17.2958 -2.5 -15
      vertex -18.2042 -2.5 -12
    endloop
  endfacet
  facet normal 0 -1 0
    outer loop
      vertex -18.2042 -2.5 -12
      vertex -17.2958 -2.5 -15
      vertex -12.7958 -2.5 -12
    endloop
  endfacet
  facet normal 0 -1 0
    outer loop
      vertex -12.7958 -2.5 -12
      vertex 3.17891e-07 -2.5 -15
      vertex -1.5 -2.5 -12
    endloop
  endfacet
  facet normal 0 -1 0
    outer loop
      vertex -1.5 -2.5 -12
      vertex 3.17891e-07 -2.5 -15
      vertex 1.5 -2.5 -12
    endloop
  endfacet
  facet normal 0 -1 0
    outer loop
      vertex 2.70416 -2.5 -15
      vertex 1.5 -2.5 -12
      vertex 3.17891e-07 -2.5 -15
    endloop
  endfacet
  facet normal 0 -1 0
    outer loop
      vertex 1.5 -2.5 -12
      vertex 2.70416 -2.5 -15
      vertex 1.79584 -2.5 -12
    endloop
  endfacet
  facet normal 0 -1 0
    outer loop
      vertex 20 -2.5 -15
      vertex 7.20416 -2.5 -12
      vertex 2.70416 -2.5 -15
    endloop
  endfacet
  facet normal 0 -1 0
    outer loop
      vertex 7.20416 -2.5 -12
      vertex 20 -2.5 -15
      vertex 18.5 -2.5 -12
    endloop
  endfacet
  facet normal 0 -1 0
    outer loop
      vertex 18.5 -2.5 -12
      vertex 20 -2.5 -15
      vertex 21.5 -2.5 -12
    endloop
  endfacet
  facet normal 0 -1 0
    outer loop
      vertex 21.5 -2.5 -12
      vertex 22.7042 -2.5 -15
      vertex 21.7958 -2.5 -12
    endloop
  endfacet
  facet normal 0 -1 0
    outer loop
      vertex 21.7958 -2.5 -12
      vertex 22.7042 -2.5 -15
      vertex 27.2042 -2.5 -12
    endloop
  endfacet
  facet normal 0 -1 0
    outer loop
      vertex -41.5 -2.5 -15
      vertex -38.5 -2.5 -12
      vertex -41.5 -2.5 15
    endloop
  endfacet
  facet normal 0 -1 0
    outer loop
      vertex -40 -2.5 -15
      vertex -38.5 -2.5 -12
      vertex -41.5 -2.5 -15
    endloop
  endfacet
  facet normal 0 -1 0
    outer loop
      vertex -37.2958 -2.5 -15
      vertex -38.5 -2.5 -12
      vertex -40 -2.5 -15
    endloop
  endfacet
  facet normal 0 -1 0
    outer loop
      vertex -32.7958 -2.5 -12
      vertex -20 -2.5 -15
      vertex -21.5 -2.5 -12
    endloop
  endfacet
  facet normal 0 -1 0
    outer loop
      vertex 3.17891e-07 -2.5 -15
      vertex -12.7958 -2.5 -12
      vertex -17.2958 -2.5 -15
    endloop
  endfacet
  facet normal 0 -1 0
    outer loop
      vertex 1.79584 -2.5 -12
      vertex 2.70416 -2.5 -15
      vertex 7.20416 -2.5 -12
    endloop
  endfacet
  facet normal 0 -1 0
    outer loop
      vertex 22.7042 -2.5 -15
      vertex 21.5 -2.5 -12
      vertex 20 -2.5 -15
    endloop
  endfacet
  facet normal 0 -1 -0
    outer loop
      vertex 27.2042 -2.5 -12
      vertex 22.7042 -2.5 -15
      vertex 38.5 -2.5 -12
    endloop
  endfacet
  facet normal 0 -1 -0
    outer loop
      vertex 38.5 -2.5 -12
      vertex 22.7042 -2.5 -15
      vertex 41.5 -2.5 -12
    endloop
  endfacet
  facet normal 0 -1 0
    outer loop
      vertex 61.5 -2.5 -15
      vertex 41.5 -2.5 -12
      vertex 22.7042 -2.5 -15
    endloop
  endfacet
  facet normal 0 -1 0
    outer loop
      vertex 41.5 -2.5 -12
      vertex 61.5 -2.5 -15
      vertex 61.5 -2.5 -12
    endloop
  endfacet
  facet normal 0 -1 0
    outer loop
      vertex 1.5 -2.5 -12
      vertex -1.5 -2.5 -4.46944
      vertex -1.5 -2.5 -12
    endloop
  endfacet
  facet normal 0 -1 0
    outer loop
      vertex -1.5 -2.5 -4.46944
      vertex 1.5 -2.5 -12
      vertex 1.5 -2.5 -2.46944
    endloop
  endfacet
  facet normal 0 -1 0
    outer loop
      vertex 21.5 -2.5 -12
      vertex 18.5 -2.5 -4.46944
      vertex 18.5 -2.5 -12
    endloop
  endfacet
  facet normal 0 -1 0
    outer loop
      vertex 18.5 -2.5 -4.46944
      vertex 21.5 -2.5 -12
      vertex 21.5 -2.5 -2.46944
    endloop
  endfacet
  facet normal 0 -1 0
    outer loop
      vertex 41.5 -2.5 -12
      vertex 38.5 -2.5 -4.46944
      vertex 38.5 -2.5 -12
    endloop
  endfacet
  facet normal 0 -1 0
    outer loop
      vertex 38.5 -2.5 -4.46944
      vertex 41.5 -2.5 -12
      vertex 41.5 -2.5 -2.46944
    endloop
  endfacet
  facet normal 0 -1 0
    outer loop
      vertex -18.5 -2.5 -12
      vertex -21.5 -2.5 -4.46944
      vertex -21.5 -2.5 -12
    endloop
  endfacet
  facet normal 0 -1 0
    outer loop
      vertex -21.5 -2.5 -4.46944
      vertex -18.5 -2.5 -12
      vertex -18.5 -2.5 -2.46944
    endloop
  endfacet
  facet normal 0 -1 0
    outer loop
      vertex -18.5 -2.5 1.13611
      vertex -9.16795 -2.5 3.75192
      vertex -10.832 -2.5 6.24807
    endloop
  endfacet
  facet normal 0 -1 0
    outer loop
      vertex -18.5 -2.5 -2.46944
      vertex -18.5 -2.5 1.13611
      vertex -21.5 -2.5 -0.863892
    endloop
  endfacet
  facet normal 0 -1 0
    outer loop
      vertex -18.5 -2.5 1.13611
      vertex -18.5 -2.5 -2.46944
      vertex -9.16795 -2.5 3.75192
    endloop
  endfacet
  facet normal 0 -1 0
    outer loop
      vertex -21.5 -2.5 -0.863892
      vertex -21.5 -2.5 -4.46944
      vertex -18.5 -2.5 -2.46944
    endloop
  endfacet
  facet normal 0 -1 0
    outer loop
      vertex -32.7958 -2.5 -12
      vertex -21.5 -2.5 -0.863892
      vertex -38.2042 -2.5 -12
    endloop
  endfacet
  facet normal 0 -1 -0
    outer loop
      vertex -21.5 -2.5 -0.863892
      vertex -32.7958 -2.5 -12
      vertex -21.5 -2.5 -4.46944
    endloop
  endfacet
  facet normal 0 -1 0
    outer loop
      vertex 1.5 -2.5 1.13611
      vertex 10.832 -2.5 3.75192
      vertex 9.16795 -2.5 6.24807
    endloop
  endfacet
  facet normal 0 -1 0
    outer loop
      vertex 1.5 -2.5 -2.46944
      vertex 1.5 -2.5 1.13611
      vertex -1.5 -2.5 -0.863892
    endloop
  endfacet
  facet normal 0 -1 0
    outer loop
      vertex 1.5 -2.5 1.13611
      vertex 1.5 -2.5 -2.46944
      vertex 10.832 -2.5 3.75192
    endloop
  endfacet
  facet normal 0 -1 0
    outer loop
      vertex -1.5 -2.5 -0.863892
      vertex -1.5 -2.5 -4.46944
      vertex 1.5 -2.5 -2.46944
    endloop
  endfacet
  facet normal 0 -1 0
    outer loop
      vertex -12.7958 -2.5 -12
      vertex -1.5 -2.5 -0.863892
      vertex -18.2042 -2.5 -12
    endloop
  endfacet
  facet normal 0 -1 -0
    outer loop
      vertex -1.5 -2.5 -0.863892
      vertex -12.7958 -2.5 -12
      vertex -1.5 -2.5 -4.46944
    endloop
  endfacet
  facet normal 0 -1 0
    outer loop
      vertex 21.5 -2.5 1.13611
      vertex 30.8321 -2.5 3.75192
      vertex 29.1679 -2.5 6.24807
    endloop
  endfacet
  facet normal 0 -1 0
    outer loop
      vertex 21.5 -2.5 -2.46944
      vertex 21.5 -2.5 1.13611
      vertex 18.5 -2.5 -0.863892
    endloop
  endfacet
  facet normal 0 -1 0
    outer loop
      vertex 21.5 -2.5 1.13611
      vertex 21.5 -2.5 -2.46944
      vertex 30.8321 -2.5 3.75192
    endloop
  endfacet
  facet normal 0 -1 0
    outer loop
      vertex 18.5 -2.5 -0.863892
      vertex 18.5 -2.5 -4.46944
      vertex 21.5 -2.5 -2.46944
    endloop
  endfacet
  facet normal 0 -1 0
    outer loop
      vertex 7.20416 -2.5 -12
      vertex 18.5 -2.5 -0.863892
      vertex 1.79584 -2.5 -12
    endloop
  endfacet
  facet normal 0 -1 -0
    outer loop
      vertex 18.5 -2.5 -0.863892
      vertex 7.20416 -2.5 -12
      vertex 18.5 -2.5 -4.46944
    endloop
  endfacet
  facet normal 1 -0 0
    outer loop
      vertex 61.5 -2.5 -12
      vertex 61.5 2.5 -15
      vertex 61.5 2.5 -12
    endloop
  endfacet
  facet normal 1 0 0
    outer loop
      vertex 61.5 2.5 -15
      vertex 61.5 -2.5 -12
      vertex 61.5 -2.5 -15
    endloop
  endfacet
  facet normal -0 0 1
    outer loop
      vertex -31.5 2.5 15
      vertex 51.5 -2.5 15
      vertex 51.5 2.5 15
    endloop
  endfacet
  facet normal 0 0 1
    outer loop
      vertex 51.5 -2.5 15
      vertex -31.5 2.5 15
      vertex -31.5 -2.5 15
    endloop
  endfacet
  facet normal 0 0 -1
    outer loop
      vertex -31.5 -2.5 12
      vertex -21.5 2.5 12
      vertex -21.5 -2.5 12
    endloop
  endfacet
  facet normal -0 0 -1
    outer loop
      vertex -21.5 2.5 12
      vertex -31.5 -2.5 12
      vertex -31.5 2.5 12
    endloop
  endfacet
  facet normal 0 0 -1
    outer loop
      vertex 41.5 -2.5 12
      vertex 51.5 2.5 12
      vertex 51.5 -2.5 12
    endloop
  endfacet
  facet normal -0 0 -1
    outer loop
      vertex 51.5 2.5 12
      vertex 41.5 -2.5 12
      vertex 41.5 2.5 12
    endloop
  endfacet
  facet normal 0 0 -1
    outer loop
      vertex -18.5 -2.5 12
      vertex -1.5 2.5 12
      vertex -1.5 -2.5 12
    endloop
  endfacet
  facet normal -0 0 -1
    outer loop
      vertex -1.5 2.5 12
      vertex -18.5 -2.5 12
      vertex -18.5 2.5 12
    endloop
  endfacet
  facet normal 0 0 -1
    outer loop
      vertex 1.5 -2.5 12
      vertex 18.5 2.5 12
      vertex 18.5 -2.5 12
    endloop
  endfacet
  facet normal -0 0 -1
    outer loop
      vertex 18.5 2.5 12
      vertex 1.5 -2.5 12
      vertex 1.5 2.5 12
    endloop
  endfacet
  facet normal 0 0 -1
    outer loop
      vertex 21.5 -2.5 12
      vertex 38.5 2.5 12
      vertex 38.5 -2.5 12
    endloop
  endfacet
  facet normal -0 0 -1
    outer loop
      vertex 38.5 2.5 12
      vertex 21.5 -2.5 12
      vertex 21.5 2.5 12
    endloop
  endfacet
  facet normal -1 0 0
    outer loop
      vertex -31.5 -2.5 12
      vertex -31.5 2.5 15
      vertex -31.5 2.5 12
    endloop
  endfacet
  facet normal -1 -0 0
    outer loop
      vertex -31.5 2.5 15
      vertex -31.5 -2.5 12
      vertex -31.5 -2.5 15
    endloop
  endfacet
  facet normal 1 -0 0
    outer loop
      vertex 51.5 -2.5 15
      vertex 51.5 2.5 12
      vertex 51.5 2.5 15
    endloop
  endfacet
  facet normal 1 0 0
    outer loop
      vertex 51.5 2.5 12
      vertex 51.5 -2.5 15
      vertex 51.5 -2.5 12
    endloop
  endfacet
  facet normal 1 -0 0
    outer loop
      vertex -38.5 -2.5 15
      vertex -38.5 2.5 -12
      vertex -38.5 2.5 15
    endloop
  endfacet
  facet normal 1 0 0
    outer loop
      vertex -38.5 2.5 -12
      vertex -38.5 -2.5 15
      vertex -38.5 -2.5 -12
    endloop
  endfacet
  facet normal -0 0 1
    outer loop
      vertex -41.5 2.5 15
      vertex -38.5 -2.5 15
      vertex -38.5 2.5 15
    endloop
  endfacet
  facet normal 0 0 1
    outer loop
      vertex -38.5 -2.5 15
      vertex -41.5 2.5 15
      vertex -41.5 -2.5 15
    endloop
  endfacet
  facet normal 1 -0 0
    outer loop
      vertex -18.5 -2.5 12
      vertex -18.5 2.5 1.13611
      vertex -18.5 2.5 12
    endloop
  endfacet
  facet normal 1 0 0
    outer loop
      vertex -18.5 2.5 1.13611
      vertex -18.5 -2.5 12
      vertex -18.5 -2.5 1.13611
    endloop
  endfacet
  facet normal 1 -0 0
    outer loop
      vertex -18.5 -2.5 -2.46944
      vertex -18.5 2.5 -12
      vertex -18.5 2.5 -2.46944
    endloop
  endfacet
  facet normal 1 0 0
    outer loop
      vertex -18.5 2.5 -12
      vertex -18.5 -2.5 -2.46944
      vertex -18.5 -2.5 -12
    endloop
  endfacet
  facet normal -1 0 0
    outer loop
      vertex -21.5 -2.5 -0.863892
      vertex -21.5 2.5 12
      vertex -21.5 2.5 -0.863892
    endloop
  endfacet
  facet normal -1 -0 0
    outer loop
      vertex -21.5 2.5 12
      vertex -21.5 -2.5 -0.863892
      vertex -21.5 -2.5 12
    endloop
  endfacet
  facet normal -1 0 0
    outer loop
      vertex -21.5 -2.5 -12
      vertex -21.5 2.5 -4.46944
      vertex -21.5 2.5 -12
    endloop
  endfacet
  facet normal -1 -0 0
    outer loop
      vertex -21.5 2.5 -4.46944
      vertex -21.5 -2.5 -12
      vertex -21.5 -2.5 -4.46944
    endloop
  endfacet
  facet normal 1 -0 0
    outer loop
      vertex 1.5 -2.5 12
      vertex 1.5 2.5 1.13611
      vertex 1.5 2.5 12
    endloop
  endfacet
  facet normal 1 0 0
    outer loop
      vertex 1.5 2.5 1.13611
      vertex 1.5 -2.5 12
      vertex 1.5 -2.5 1.13611
    endloop
  endfacet
  facet normal 1 -0 0
    outer loop
      vertex 1.5 -2.5 -2.46944
      vertex 1.5 2.5 -12
      vertex 1.5 2.5 -2.46944
    endloop
  endfacet
  facet normal 1 0 0
    outer loop
      vertex 1.5 2.5 -12
      vertex 1.5 -2.5 -2.46944
      vertex 1.5 -2.5 -12
    endloop
  endfacet
  facet normal -1 0 0
    outer loop
      vertex -1.5 -2.5 -0.863892
      vertex -1.5 2.5 12
      vertex -1.5 2.5 -0.863892
    endloop
  endfacet
  facet normal -1 -0 0
    outer loop
      vertex -1.5 2.5 12
      vertex -1.5 -2.5 -0.863892
      vertex -1.5 -2.5 12
    endloop
  endfacet
  facet normal -1 0 0
    outer loop
      vertex -1.5 -2.5 -12
      vertex -1.5 2.5 -4.46944
      vertex -1.5 2.5 -12
    endloop
  endfacet
  facet normal -1 -0 0
    outer loop
      vertex -1.5 2.5 -4.46944
      vertex -1.5 -2.5 -12
      vertex -1.5 -2.5 -4.46944
    endloop
  endfacet
  facet normal 1 -0 0
    outer loop
      vertex 21.5 -2.5 12
      vertex 21.5 2.5 1.13611
      vertex 21.5 2.5 12
    endloop
  endfacet
  facet normal 1 0 0
    outer loop
      vertex 21.5 2.5 1.13611
      vertex 21.5 -2.5 12
      vertex 21.5 -2.5 1.13611
    endloop
  endfacet
  facet normal 1 -0 0
    outer loop
      vertex 21.5 -2.5 -2.46944
      vertex 21.5 2.5 -12
      vertex 21.5 2.5 -2.46944
    endloop
  endfacet
  facet normal 1 0 0
    outer loop
      vertex 21.5 2.5 -12
      vertex 21.5 -2.5 -2.46944
      vertex 21.5 -2.5 -12
    endloop
  endfacet
  facet normal -1 0 0
    outer loop
      vertex 18.5 -2.5 -0.863892
      vertex 18.5 2.5 12
      vertex 18.5 2.5 -0.863892
    endloop
  endfacet
  facet normal -1 -0 0
    outer loop
      vertex 18.5 2.5 12
      vertex 18.5 -2.5 -0.863892
      vertex 18.5 -2.5 12
    endloop
  endfacet
  facet normal -1 0 0
    outer loop
      vertex 18.5 -2.5 -12
      vertex 18.5 2.5 -4.46944
      vertex 18.5 2.5 -12
    endloop
  endfacet
  facet normal -1 -0 0
    outer loop
      vertex 18.5 2.5 -4.46944
      vertex 18.5 -2.5 -12
      vertex 18.5 -2.5 -4.46944
    endloop
  endfacet
  facet normal 1 -0 0
    outer loop
      vertex 41.5 -2.5 12
      vertex 41.5 2.5 1.13611
      vertex 41.5 2.5 12
    endloop
  endfacet
  facet normal 1 0 0
    outer loop
      vertex 41.5 2.5 1.13611
      vertex 41.5 -2.5 12
      vertex 41.5 -2.5 1.13611
    endloop
  endfacet
  facet normal 1 -0 0
    outer loop
      vertex 41.5 -2.5 -2.46944
      vertex 41.5 2.5 -12
      vertex 41.5 2.5 -2.46944
    endloop
  endfacet
  facet normal 1 0 0
    outer loop
      vertex 41.5 2.5 -12
      vertex 41.5 -2.5 -2.46944
      vertex 41.5 -2.5 -12
    endloop
  endfacet
  facet normal -1 0 0
    outer loop
      vertex 38.5 -2.5 -0.863892
      vertex 38.5 2.5 12
      vertex 38.5 2.5 -0.863892
    endloop
  endfacet
  facet normal -1 -0 0
    outer loop
      vertex 38.5 2.5 12
      vertex 38.5 -2.5 -0.863892
      vertex 38.5 -2.5 12
    endloop
  endfacet
  facet normal -1 0 0
    outer loop
      vertex 38.5 -2.5 -12
      vertex 38.5 2.5 -4.46944
      vertex 38.5 2.5 -12
    endloop
  endfacet
  facet normal -1 -0 0
    outer loop
      vertex 38.5 2.5 -4.46944
      vertex 38.5 -2.5 -12
      vertex 38.5 -2.5 -4.46944
    endloop
  endfacet
  facet normal 0.5547 0 -0.832051
    outer loop
      vertex -18.5 -2.5 -2.46944
      vertex -9.16795 2.5 3.75192
      vertex -9.16795 -2.5 3.75192
    endloop
  endfacet
  facet normal 0.5547 0 -0.832051
    outer loop
      vertex -9.16795 2.5 3.75192
      vertex -18.5 -2.5 -2.46944
      vertex -18.5 2.5 -2.46944
    endloop
  endfacet
  facet normal 0.55471 0 -0.832043
    outer loop
      vertex -39.1679 -2.5 -16.2481
      vertex -37.2958 2.5 -15
      vertex -37.2958 -2.5 -15
    endloop
  endfacet
  facet normal 0.55471 0 -0.832043
    outer loop
      vertex -37.2958 2.5 -15
      vertex -39.1679 -2.5 -16.2481
      vertex -39.1679 2.5 -16.2481
    endloop
  endfacet
  facet normal 0.554702 0 -0.832049
    outer loop
      vertex -32.7958 -2.5 -12
      vertex -21.5 2.5 -4.46944
      vertex -21.5 -2.5 -4.46944
    endloop
  endfacet
  facet normal 0.554702 0 -0.832049
    outer loop
      vertex -21.5 2.5 -4.46944
      vertex -32.7958 -2.5 -12
      vertex -32.7958 2.5 -12
    endloop
  endfacet
  facet normal 0.832058 -0 0.554689
    outer loop
      vertex -10.832 -2.5 6.24807
      vertex -9.16795 2.5 3.75192
      vertex -10.832 2.5 6.24807
    endloop
  endfacet
  facet normal 0.832058 0 0.554689
    outer loop
      vertex -9.16795 2.5 3.75192
      vertex -10.832 -2.5 6.24807
      vertex -9.16795 -2.5 3.75192
    endloop
  endfacet
  facet normal -0.83204 0 -0.554716
    outer loop
      vertex -39.1679 -2.5 -16.2481
      vertex -40 2.5 -15
      vertex -39.1679 2.5 -16.2481
    endloop
  endfacet
  facet normal -0.83204 -0 -0.554716
    outer loop
      vertex -40 2.5 -15
      vertex -39.1679 -2.5 -16.2481
      vertex -40 -2.5 -15
    endloop
  endfacet
  facet normal -0.554697 0 0.832052
    outer loop
      vertex -18.5 2.5 1.13611
      vertex -10.832 -2.5 6.24807
      vertex -10.832 2.5 6.24807
    endloop
  endfacet
  facet normal -0.554697 0 0.832052
    outer loop
      vertex -10.832 -2.5 6.24807
      vertex -18.5 2.5 1.13611
      vertex -18.5 -2.5 1.13611
    endloop
  endfacet
  facet normal -0.554699 0 0.832051
    outer loop
      vertex -38.2042 2.5 -12
      vertex -21.5 -2.5 -0.863892
      vertex -21.5 2.5 -0.863892
    endloop
  endfacet
  facet normal -0.554699 0 0.832051
    outer loop
      vertex -21.5 -2.5 -0.863892
      vertex -38.2042 2.5 -12
      vertex -38.2042 -2.5 -12
    endloop
  endfacet
  facet normal 0.554702 0 -0.832049
    outer loop
      vertex 1.5 -2.5 -2.46944
      vertex 10.832 2.5 3.75192
      vertex 10.832 -2.5 3.75192
    endloop
  endfacet
  facet normal 0.554702 0 -0.832049
    outer loop
      vertex 10.832 2.5 3.75192
      vertex 1.5 -2.5 -2.46944
      vertex 1.5 2.5 -2.46944
    endloop
  endfacet
  facet normal 0.55471 0 -0.832043
    outer loop
      vertex -19.1679 -2.5 -16.2481
      vertex -17.2958 2.5 -15
      vertex -17.2958 -2.5 -15
    endloop
  endfacet
  facet normal 0.55471 0 -0.832043
    outer loop
      vertex -17.2958 2.5 -15
      vertex -19.1679 -2.5 -16.2481
      vertex -19.1679 2.5 -16.2481
    endloop
  endfacet
  facet normal 0.554702 0 -0.832049
    outer loop
      vertex -12.7958 -2.5 -12
      vertex -1.5 2.5 -4.46944
      vertex -1.5 -2.5 -4.46944
    endloop
  endfacet
  facet normal 0.554702 0 -0.832049
    outer loop
      vertex -1.5 2.5 -4.46944
      vertex -12.7958 -2.5 -12
      vertex -12.7958 2.5 -12
    endloop
  endfacet
  facet normal 0.832058 -0 0.554689
    outer loop
      vertex 9.16795 -2.5 6.24807
      vertex 10.832 2.5 3.75192
      vertex 9.16795 2.5 6.24807
    endloop
  endfacet
  facet normal 0.832058 0 0.554689
    outer loop
      vertex 10.832 2.5 3.75192
      vertex 9.16795 -2.5 6.24807
      vertex 10.832 -2.5 3.75192
    endloop
  endfacet
  facet normal -0.83204 0 -0.554716
    outer loop
      vertex -19.1679 -2.5 -16.2481
      vertex -20 2.5 -15
      vertex -19.1679 2.5 -16.2481
    endloop
  endfacet
  facet normal -0.83204 -0 -0.554716
    outer loop
      vertex -20 2.5 -15
      vertex -19.1679 -2.5 -16.2481
      vertex -20 -2.5 -15
    endloop
  endfacet
  facet normal -0.5547 0 0.832051
    outer loop
      vertex 1.5 2.5 1.13611
      vertex 9.16795 -2.5 6.24807
      vertex 9.16795 2.5 6.24807
    endloop
  endfacet
  facet normal -0.5547 0 0.832051
    outer loop
      vertex 9.16795 -2.5 6.24807
      vertex 1.5 2.5 1.13611
      vertex 1.5 -2.5 1.13611
    endloop
  endfacet
  facet normal -0.554699 0 0.832051
    outer loop
      vertex -18.2042 2.5 -12
      vertex -1.5 -2.5 -0.863892
      vertex -1.5 2.5 -0.863892
    endloop
  endfacet
  facet normal -0.554699 0 0.832051
    outer loop
      vertex -1.5 -2.5 -0.863892
      vertex -18.2042 2.5 -12
      vertex -18.2042 -2.5 -12
    endloop
  endfacet
  facet normal 0.832035 -0 0.554723
    outer loop
      vertex 29.1679 -2.5 6.24807
      vertex 30.8321 2.5 3.75192
      vertex 29.1679 2.5 6.24807
    endloop
  endfacet
  facet normal 0.832035 0 0.554723
    outer loop
      vertex 30.8321 2.5 3.75192
      vertex 29.1679 -2.5 6.24807
      vertex 30.8321 -2.5 3.75192
    endloop
  endfacet
  facet normal 0.554698 0 -0.832052
    outer loop
      vertex 21.5 -2.5 -2.46944
      vertex 30.8321 2.5 3.75192
      vertex 30.8321 -2.5 3.75192
    endloop
  endfacet
  facet normal 0.554698 0 -0.832052
    outer loop
      vertex 30.8321 2.5 3.75192
      vertex 21.5 -2.5 -2.46944
      vertex 21.5 2.5 -2.46944
    endloop
  endfacet
  facet normal 0.554708 0 -0.832045
    outer loop
      vertex 0.832049 -2.5 -16.2481
      vertex 2.70416 2.5 -15
      vertex 2.70416 -2.5 -15
    endloop
  endfacet
  facet normal 0.554708 0 -0.832045
    outer loop
      vertex 2.70416 2.5 -15
      vertex 0.832049 -2.5 -16.2481
      vertex 0.832049 2.5 -16.2481
    endloop
  endfacet
  facet normal 0.5547 0 -0.83205
    outer loop
      vertex 7.20416 -2.5 -12
      vertex 18.5 2.5 -4.46944
      vertex 18.5 -2.5 -4.46944
    endloop
  endfacet
  facet normal 0.5547 0 -0.83205
    outer loop
      vertex 18.5 2.5 -4.46944
      vertex 7.20416 -2.5 -12
      vertex 7.20416 2.5 -12
    endloop
  endfacet
  facet normal -0.832056 0 -0.554692
    outer loop
      vertex 0.832049 -2.5 -16.2481
      vertex 3.17891e-07 2.5 -15
      vertex 0.832049 2.5 -16.2481
    endloop
  endfacet
  facet normal -0.832056 -0 -0.554692
    outer loop
      vertex 3.17891e-07 2.5 -15
      vertex 0.832049 -2.5 -16.2481
      vertex 3.17891e-07 -2.5 -15
    endloop
  endfacet
  facet normal -0.554702 0 0.832049
    outer loop
      vertex 21.5 2.5 1.13611
      vertex 29.1679 -2.5 6.24807
      vertex 29.1679 2.5 6.24807
    endloop
  endfacet
  facet normal -0.554702 0 0.832049
    outer loop
      vertex 29.1679 -2.5 6.24807
      vertex 21.5 2.5 1.13611
      vertex 21.5 -2.5 1.13611
    endloop
  endfacet
  facet normal -0.5547 0 0.83205
    outer loop
      vertex 1.79584 2.5 -12
      vertex 18.5 -2.5 -0.863892
      vertex 18.5 2.5 -0.863892
    endloop
  endfacet
  facet normal -0.5547 0 0.83205
    outer loop
      vertex 18.5 -2.5 -0.863892
      vertex 1.79584 2.5 -12
      vertex 1.79584 -2.5 -12
    endloop
  endfacet
  facet normal 0.554698 0 -0.832052
    outer loop
      vertex 41.5 -2.5 -2.46944
      vertex 50.8321 2.5 3.75192
      vertex 50.8321 -2.5 3.75192
    endloop
  endfacet
  facet normal 0.554698 0 -0.832052
    outer loop
      vertex 50.8321 2.5 3.75192
      vertex 41.5 -2.5 -2.46944
      vertex 41.5 2.5 -2.46944
    endloop
  endfacet
  facet normal 0.55471 0 -0.832043
    outer loop
      vertex 20.8321 -2.5 -16.2481
      vertex 22.7042 2.5 -15
      vertex 22.7042 -2.5 -15
    endloop
  endfacet
  facet normal 0.55471 0 -0.832043
    outer loop
      vertex 22.7042 2.5 -15
      vertex 20.8321 -2.5 -16.2481
      vertex 20.8321 2.5 -16.2481
    endloop
  endfacet
  facet normal 0.554702 0 -0.832049
    outer loop
      vertex 27.2042 -2.5 -12
      vertex 38.5 2.5 -4.46944
      vertex 38.5 -2.5 -4.46944
    endloop
  endfacet
  facet normal 0.554702 0 -0.832049
    outer loop
      vertex 38.5 2.5 -4.46944
      vertex 27.2042 -2.5 -12
      vertex 27.2042 2.5 -12
    endloop
  endfacet
  facet normal 0.832035 -0 0.554723
    outer loop
      vertex 49.1679 -2.5 6.24807
      vertex 50.8321 2.5 3.75192
      vertex 49.1679 2.5 6.24807
    endloop
  endfacet
  facet normal 0.832035 0 0.554723
    outer loop
      vertex 50.8321 2.5 3.75192
      vertex 49.1679 -2.5 6.24807
      vertex 50.8321 -2.5 3.75192
    endloop
  endfacet
  facet normal -0.83204 0 -0.554716
    outer loop
      vertex 20.8321 -2.5 -16.2481
      vertex 20 2.5 -15
      vertex 20.8321 2.5 -16.2481
    endloop
  endfacet
  facet normal -0.83204 -0 -0.554716
    outer loop
      vertex 20 2.5 -15
      vertex 20.8321 -2.5 -16.2481
      vertex 20 -2.5 -15
    endloop
  endfacet
  facet normal -0.554702 0 0.832049
    outer loop
      vertex 41.5 2.5 1.13611
      vertex 49.1679 -2.5 6.24807
      vertex 49.1679 2.5 6.24807
    endloop
  endfacet
  facet normal -0.554702 0 0.832049
    outer loop
      vertex 49.1679 -2.5 6.24807
      vertex 41.5 2.5 1.13611
      vertex 41.5 -2.5 1.13611
    endloop
  endfacet
  facet normal -0.554699 0 0.832051
    outer loop
      vertex 21.7958 2.5 -12
      vertex 38.5 -2.5 -0.863892
      vertex 38.5 2.5 -0.863892
    endloop
  endfacet
  facet normal -0.554699 0 0.832051
    outer loop
      vertex 38.5 -2.5 -0.863892
      vertex 21.7958 2.5 -12
      vertex 21.7958 -2.5 -12
    endloop
  endfacet
  facet normal 1 -0 0
    outer loop
      vertex 7 -7 -18
      vertex 7 7 -28
      vertex 7 7 -18
    endloop
  endfacet
  facet normal 1 0 0
    outer loop
      vertex 7 7 -28
      vertex 7 -7 -18
      vertex 7 -7 -28
    endloop
  endfacet
  facet normal -0 0 1
    outer loop
      vertex -7 7 -18
      vertex 7 -7 -18
      vertex 7 7 -18
    endloop
  endfacet
  facet normal 0 0 1
    outer loop
      vertex 7 -7 -18
      vertex -7 7 -18
      vertex -7 -7 -18
    endloop
  endfacet
  facet normal 0 0 -1
    outer loop
      vertex -7 -7 -28
      vertex 7 7 -28
      vertex 7 -7 -28
    endloop
  endfacet
  facet normal -0 0 -1
    outer loop
      vertex 7 7 -28
      vertex -7 -7 -28
      vertex -7 7 -28
    endloop
  endfacet
  facet normal -1 0 0
    outer loop
      vertex -7 -7 -28
      vertex -7 7 -18
      vertex -7 7 -28
    endloop
  endfacet
  facet normal -1 -0 0
    outer loop
      vertex -7 7 -18
      vertex -7 -7 -28
      vertex -7 -7 -18
    endloop
  endfacet
  facet normal 0 1 -0
    outer loop
      vertex 7 7 -28
      vertex -7 7 -18
      vertex 7 7 -18
    endloop
  endfacet
  facet normal 0 1 0
    outer loop
      vertex -7 7 -18
      vertex 7 7 -28
      vertex -7 7 -28
    endloop
  endfacet
  facet normal 0 -1 0
    outer loop
      vertex -7 -7 -28
      vertex 7 -7 -18
      vertex -7 -7 -18
    endloop
  endfacet
  facet normal 0 -1 -0
    outer loop
      vertex 7 -7 -18
      vertex -7 -7 -28
      vertex 7 -7 -28
    endloop
  endfacet
endsolid OpenSCAD_Model
