solid OpenSCAD_Model
  facet normal -0.139173 0 -0.990268
    outer loop
      vertex 59.4161 -2 -5.35039
      vertex 35.5769 -0.604901 -2
      vertex 59.4161 1 -5.35039
    endloop
  endfacet
  facet normal -0.139173 1.05208e-05 -0.990268
    outer loop
      vertex 59.4161 -2 -5.35039
      vertex 28.0644 -1.09106 -0.944194
      vertex 35.5769 -0.604901 -2
    endloop
  endfacet
  facet normal -0.139173 -8.91134e-06 -0.990268
    outer loop
      vertex 59.4161 -2 -5.35039
      vertex 21.2063 -1.53488 0.0196553
      vertex 28.0644 -1.09106 -0.944194
    endloop
  endfacet
  facet normal -0.139173 6.75152e-06 -0.990268
    outer loop
      vertex 3.04772 -2.94871 2.57167
      vertex 21.2063 -1.53488 0.0196553
      vertex 59.4161 -2 -5.35039
    endloop
  endfacet
  facet normal -0.139173 -0 -0.990268
    outer loop
      vertex 3.04772 4.79482 2.57167
      vertex 21.2063 -1.53488 0.0196553
      vertex 3.04772 -2.94871 2.57167
    endloop
  endfacet
  facet normal -0.139173 0 -0.990268
    outer loop
      vertex 21.2063 -1.53488 0.0196553
      vertex 3.04772 4.79482 2.57167
      vertex 21.2063 3.57236 0.0196553
    endloop
  endfacet
  facet normal -0.139173 0 -0.990268
    outer loop
      vertex 59.4161 1 -5.35039
      vertex 35.5769 -0.604901 -2
      vertex 35.5769 2.6049 -2
    endloop
  endfacet
  facet normal 0.0165037 -0.999861 -0.00229785
    outer loop
      vertex 3.04772 -2.94871 2.57167
      vertex 59.9728 -2 -1.38931
      vertex 2.86071 -2.9523 2.79063
    endloop
  endfacet
  facet normal 0.0165022 -0.999861 -0.00231927
    outer loop
      vertex 59.9728 -2 -1.38931
      vertex 3.04772 -2.94871 2.57167
      vertex 59.4161 -2 -5.35039
    endloop
  endfacet
  facet normal 0.0164978 -0.999861 -0.00231862
    outer loop
      vertex 0.625737 -2.99188 3.95075
      vertex 0.457966 -3 6.2586
      vertex 0.139003 -3 3.98906
    endloop
  endfacet
  facet normal 0.0165139 -0.999861 -0.00231744
    outer loop
      vertex 1.23607 -2.98146 3.80423
      vertex 0.457966 -3 6.2586
      vertex 0.625737 -2.99188 3.95075
    endloop
  endfacet
  facet normal 0.0165054 -0.999861 -0.00232015
    outer loop
      vertex 0.457966 -3 6.2586
      vertex 1.23607 -2.98146 3.80423
      vertex 1.87786 -2.97776 6.77539
    endloop
  endfacet
  facet normal 0.0164895 -0.999861 -0.00231672
    outer loop
      vertex 1.81596 -2.97134 3.56403
      vertex 1.87786 -2.97776 6.77539
      vertex 1.23607 -2.98146 3.80423
    endloop
  endfacet
  facet normal 0.0165154 -0.999861 -0.00231721
    outer loop
      vertex 2.35114 -2.96174 3.23607
      vertex 1.87786 -2.97776 6.77539
      vertex 1.81596 -2.97134 3.56403
    endloop
  endfacet
  facet normal 0.0164954 -0.999861 -0.00231989
    outer loop
      vertex 2.82843 -2.95292 2.82843
      vertex 1.87786 -2.97776 6.77539
      vertex 2.35114 -2.96174 3.23607
    endloop
  endfacet
  facet normal 0.0164846 -0.999861 -0.00232248
    outer loop
      vertex 2.86071 -2.9523 2.79063
      vertex 1.87786 -2.97776 6.77539
      vertex 2.82843 -2.95292 2.82843
    endloop
  endfacet
  facet normal 0.0165023 -0.999861 -0.00231814
    outer loop
      vertex 1.87786 -2.97776 6.77539
      vertex 2.86071 -2.9523 2.79063
      vertex 59.9728 -2 -1.38931
    endloop
  endfacet
  facet normal 0.0658715 0.997785 -0.00925774
    outer loop
      vertex 59.4161 1 -5.35039
      vertex 46.7882 1.87937 -0.424353
      vertex 59.9728 1 -1.38931
    endloop
  endfacet
  facet normal 0.0658718 0.997785 -0.00925687
    outer loop
      vertex 46.7882 1.87937 -0.424353
      vertex 59.4161 1 -5.35039
      vertex 35.5769 2.6049 -2
    endloop
  endfacet
  facet normal 0.065872 0.997785 -0.00925316
    outer loop
      vertex 21.2063 3.57236 0.0196553
      vertex 2.86071 4.8092 2.79063
      vertex 27.889 3.13989 0.95885
    endloop
  endfacet
  facet normal 0.0658693 0.997785 -0.00927078
    outer loop
      vertex 2.86071 4.8092 2.79063
      vertex 21.2063 3.57236 0.0196553
      vertex 3.04772 4.79482 2.57167
    endloop
  endfacet
  facet normal 0.139173 0 0.990268
    outer loop
      vertex 35.5768 2.64238 2.03931
      vertex 1.87786 4 6.77539
      vertex 35.5768 -0.567424 2.03931
    endloop
  endfacet
  facet normal 0.139173 -1.9193e-06 0.990268
    outer loop
      vertex 0.556692 5 6.96107
      vertex 1.87786 4 6.77539
      vertex 35.5768 2.64238 2.03931
    endloop
  endfacet
  facet normal 0.139175 0 0.990268
    outer loop
      vertex 1.87786 4 6.77539
      vertex 0.556692 5 6.96107
      vertex 0.556692 4 6.96107
    endloop
  endfacet
  facet normal 0.139172 -0 0.990268
    outer loop
      vertex 49.9474 0.362554 0.019655
      vertex 59.9728 1 -1.38931
      vertex 49.9474 1.67492 0.019655
    endloop
  endfacet
  facet normal 0.139172 0 0.990268
    outer loop
      vertex 59.9728 1 -1.38931
      vertex 49.9474 0.362554 0.019655
      vertex 59.9728 -2 -1.38931
    endloop
  endfacet
  facet normal 0.139175 1.23214e-05 0.990268
    outer loop
      vertex 46.9636 0.169457 0.439008
      vertex 59.9728 -2 -1.38931
      vertex 49.9474 0.362554 0.019655
    endloop
  endfacet
  facet normal 0.139172 -1.23097e-06 0.990268
    outer loop
      vertex 35.5768 -0.567424 2.03931
      vertex 59.9728 -2 -1.38931
      vertex 46.9636 0.169457 0.439008
    endloop
  endfacet
  facet normal 0.139173 5.06808e-06 0.990268
    outer loop
      vertex 35.5768 -0.567424 2.03931
      vertex 1.87786 -2.97776 6.77539
      vertex 59.9728 -2 -1.38931
    endloop
  endfacet
  facet normal 0.139173 -0 0.990268
    outer loop
      vertex 1.87786 -2.97776 6.77539
      vertex 35.5768 -0.567424 2.03931
      vertex 1.87786 4 6.77539
    endloop
  endfacet
  facet normal 0.0658722 0.997785 -0.00924807
    outer loop
      vertex 59.9728 1 -1.38931
      vertex 46.7882 1.87937 -0.424353
      vertex 49.9474 1.67492 0.019655
    endloop
  endfacet
  facet normal 0.0658745 0.997785 -0.00925806
    outer loop
      vertex 0.556692 5 6.96107
      vertex 0.625737 4.96751 3.95075
      vertex 0.139003 5 3.98906
    endloop
  endfacet
  facet normal 0.0658677 0.997785 -0.00925822
    outer loop
      vertex 0.556692 5 6.96107
      vertex 1.23607 4.92586 3.80423
      vertex 0.625737 4.96751 3.95075
    endloop
  endfacet
  facet normal 0.0658685 0.997785 -0.00925805
    outer loop
      vertex 0.556692 5 6.96107
      vertex 1.81596 4.88535 3.56403
      vertex 1.23607 4.92586 3.80423
    endloop
  endfacet
  facet normal 0.0658859 0.997784 -0.00925157
    outer loop
      vertex 0.556692 5 6.96107
      vertex 2.35114 4.84697 3.23607
      vertex 1.81596 4.88535 3.56403
    endloop
  endfacet
  facet normal 0.065864 0.997786 -0.00926219
    outer loop
      vertex 0.556692 5 6.96107
      vertex 2.82843 4.81168 2.82843
      vertex 2.35114 4.84697 3.23607
    endloop
  endfacet
  facet normal 0.0657175 0.997795 -0.00934312
    outer loop
      vertex 0.556692 5 6.96107
      vertex 2.86071 4.8092 2.79063
      vertex 2.82843 4.81168 2.82843
    endloop
  endfacet
  facet normal 0.0658718 0.997785 -0.00925668
    outer loop
      vertex 27.889 3.13989 0.95885
      vertex 0.556692 5 6.96107
      vertex 35.5768 2.64238 2.03931
    endloop
  endfacet
  facet normal 0.0658717 0.997785 -0.00925752
    outer loop
      vertex 0.556692 5 6.96107
      vertex 27.889 3.13989 0.95885
      vertex 2.86071 4.8092 2.79063
    endloop
  endfacet
  facet normal -0.990268 2.22386e-07 0.139173
    outer loop
      vertex 0.139003 5 3.98906
      vertex 0.457966 4 6.2586
      vertex 0.556692 5 6.96107
    endloop
  endfacet
  facet normal -0.990268 0 0.139173
    outer loop
      vertex 0.139003 -3 3.98906
      vertex 0.457966 4 6.2586
      vertex 0.139003 5 3.98906
    endloop
  endfacet
  facet normal -0.990268 0 0.139173
    outer loop
      vertex 0.457966 4 6.2586
      vertex 0.139003 -3 3.98906
      vertex 0.457966 -3 6.2586
    endloop
  endfacet
  facet normal -0.990268 0 0.139173
    outer loop
      vertex 0.556692 5 6.96107
      vertex 0.457966 4 6.2586
      vertex 0.556692 4 6.96107
    endloop
  endfacet
  facet normal 0.990268 0 -0.139175
    outer loop
      vertex 59.9728 -2 -1.38931
      vertex 59.4161 1 -5.35039
      vertex 59.9728 1 -1.38931
    endloop
  endfacet
  facet normal 0.990268 0 -0.139175
    outer loop
      vertex 59.4161 1 -5.35039
      vertex 59.9728 -2 -1.38931
      vertex 59.4161 -2 -5.35039
    endloop
  endfacet
  facet normal 0.0165021 0.999861 0.00231925
    outer loop
      vertex 59.4161 4 1.35039
      vertex 3.08587 4.93869 -2.527
      vertex 58.8594 4 5.31146
    endloop
  endfacet
  facet normal 0.016501 0.999861 0.00233587
    outer loop
      vertex 3.08587 4.93869 -2.527
      vertex 59.4161 4 1.35039
      vertex 2.86236 4.94299 -2.78869
    endloop
  endfacet
  facet normal 0.139173 0 -0.990268
    outer loop
      vertex 2.43598 4 -6.65765
      vertex 35.5769 -0.604901 -2
      vertex 2.43598 -2.83601 -6.65765
    endloop
  endfacet
  facet normal 0.139173 0 -0.990268
    outer loop
      vertex 49.9474 1.67492 0.019655
      vertex 59.4161 1 1.35039
      vertex 49.9474 0.362554 0.019655
    endloop
  endfacet
  facet normal 0.139173 0 -0.990268
    outer loop
      vertex 59.4161 1 1.35039
      vertex 49.9474 1.67492 0.019655
      vertex 59.4161 4 1.35039
    endloop
  endfacet
  facet normal 0.139176 -1.28608e-05 -0.990268
    outer loop
      vertex 46.7882 1.87937 -0.424353
      vertex 59.4161 4 1.35039
      vertex 49.9474 1.67492 0.019655
    endloop
  endfacet
  facet normal 0.139173 1.9075e-06 -0.990268
    outer loop
      vertex 35.5769 2.6049 -2
      vertex 59.4161 4 1.35039
      vertex 46.7882 1.87937 -0.424353
    endloop
  endfacet
  facet normal 0.139173 0 -0.990268
    outer loop
      vertex 35.5769 -0.604901 -2
      vertex 2.43598 4 -6.65765
      vertex 35.5769 2.6049 -2
    endloop
  endfacet
  facet normal 0.139173 4.93711e-06 -0.990268
    outer loop
      vertex 0 5 -7
      vertex 35.5769 2.6049 -2
      vertex 2.43598 4 -6.65765
    endloop
  endfacet
  facet normal 0.139171 0 -0.990268
    outer loop
      vertex 0 5 -7
      vertex 2.43598 4 -6.65765
      vertex 0 4 -7
    endloop
  endfacet
  facet normal 0.139173 4.54624e-06 -0.990268
    outer loop
      vertex 35.5769 2.6049 -2
      vertex 0 5 -7
      vertex 59.4161 4 1.35039
    endloop
  endfacet
  facet normal 0.0165022 0.999861 0.00231921
    outer loop
      vertex 0 5 -7
      vertex 2.86236 4.94299 -2.78869
      vertex 59.4161 4 1.35039
    endloop
  endfacet
  facet normal 0.016188 0.999866 0.00253282
    outer loop
      vertex 2.86236 4.94299 -2.78869
      vertex 0 5 -7
      vertex 2.82843 4.94364 -2.82843
    endloop
  endfacet
  facet normal 0.0165362 0.999861 0.00229666
    outer loop
      vertex 2.82843 4.94364 -2.82843
      vertex 0 5 -7
      vertex 2.35114 4.95247 -3.23607
    endloop
  endfacet
  facet normal 0.0164926 0.999861 0.00232387
    outer loop
      vertex 2.35114 4.95247 -3.23607
      vertex 0 5 -7
      vertex 1.81596 4.96206 -3.56403
    endloop
  endfacet
  facet normal 0.0165069 0.999861 0.00231631
    outer loop
      vertex 1.81596 4.96206 -3.56403
      vertex 0 5 -7
      vertex 1.23607 4.97219 -3.80423
    endloop
  endfacet
  facet normal 0.0164994 0.999861 0.00231968
    outer loop
      vertex 0.625737 4.9826 -3.95075
      vertex 0 5 -7
      vertex 0 4.99304 -4
    endloop
  endfacet
  facet normal 0.0164969 0.999861 0.0023202
    outer loop
      vertex 1.23607 4.97219 -3.80423
      vertex 0 5 -7
      vertex 0.625737 4.9826 -3.95075
    endloop
  endfacet
  facet normal 0.0165054 0.999861 0.00231968
    outer loop
      vertex -0.426338 5 -3.96645
      vertex 0 4.99304 -4
      vertex 0 5 -7
    endloop
  endfacet
  facet normal 0.0658714 -0.997785 0.00925819
    outer loop
      vertex 46.9636 0.169457 0.439008
      vertex 58.8594 1 5.31146
      vertex 35.5768 -0.567424 2.03931
    endloop
  endfacet
  facet normal 0.0658716 -0.997785 0.00925778
    outer loop
      vertex 58.8594 1 5.31146
      vertex 46.9636 0.169457 0.439008
      vertex 59.4161 1 1.35039
    endloop
  endfacet
  facet normal 0.0658738 -0.997785 0.00924179
    outer loop
      vertex 2.86236 -2.77196 -2.78869
      vertex 21.2063 -1.53488 0.0196553
      vertex 3.08587 -2.75478 -2.527
    endloop
  endfacet
  facet normal 0.065872 -0.997785 0.00925408
    outer loop
      vertex 21.2063 -1.53488 0.0196553
      vertex 2.86236 -2.77196 -2.78869
      vertex 28.0644 -1.09106 -0.944194
    endloop
  endfacet
  facet normal 0.990268 -0 0.139175
    outer loop
      vertex 58.8594 1 5.31146
      vertex 59.4161 4 1.35039
      vertex 58.8594 4 5.31146
    endloop
  endfacet
  facet normal 0.990268 0 0.139175
    outer loop
      vertex 59.4161 4 1.35039
      vertex 58.8594 1 5.31146
      vertex 59.4161 1 1.35039
    endloop
  endfacet
  facet normal -0.139173 0 0.990268
    outer loop
      vertex 58.8594 4 5.31146
      vertex 35.5768 2.64238 2.03931
      vertex 58.8594 1 5.31146
    endloop
  endfacet
  facet normal -0.139174 1.27368e-05 0.990268
    outer loop
      vertex 58.8594 4 5.31146
      vertex 27.889 3.13989 0.95885
      vertex 35.5768 2.64238 2.03931
    endloop
  endfacet
  facet normal -0.139173 2.51891e-06 0.990268
    outer loop
      vertex 58.8594 4 5.31146
      vertex 21.2063 3.57236 0.0196553
      vertex 27.889 3.13989 0.95885
    endloop
  endfacet
  facet normal -0.139173 -5.1853e-06 0.990268
    outer loop
      vertex 3.08587 4.93869 -2.527
      vertex 21.2063 3.57236 0.0196553
      vertex 58.8594 4 5.31146
    endloop
  endfacet
  facet normal -0.139173 0 0.990268
    outer loop
      vertex 3.08587 4.93869 -2.527
      vertex 21.2063 -1.53488 0.0196553
      vertex 21.2063 3.57236 0.0196553
    endloop
  endfacet
  facet normal -0.139173 0 0.990268
    outer loop
      vertex 21.2063 -1.53488 0.0196553
      vertex 3.08587 4.93869 -2.527
      vertex 3.08587 -2.75478 -2.527
    endloop
  endfacet
  facet normal -0.139173 0 0.990268
    outer loop
      vertex 58.8594 1 5.31146
      vertex 35.5768 2.64238 2.03931
      vertex 35.5768 -0.567424 2.03931
    endloop
  endfacet
  facet normal -0.990268 0 -0.139173
    outer loop
      vertex -0.182033 4 -5.70477
      vertex 0 5 -7
      vertex 0 4 -7
    endloop
  endfacet
  facet normal -0.990268 1.4344e-07 -0.139173
    outer loop
      vertex 0 5 -7
      vertex -0.182033 4 -5.70477
      vertex -0.426338 5 -3.96645
    endloop
  endfacet
  facet normal -0.990268 0 -0.139173
    outer loop
      vertex -0.426338 -3 -3.96645
      vertex -0.182033 4 -5.70477
      vertex -0.182033 -3 -5.70477
    endloop
  endfacet
  facet normal -0.990268 0 -0.139173
    outer loop
      vertex -0.182033 4 -5.70477
      vertex -0.426338 -3 -3.96645
      vertex -0.426338 5 -3.96645
    endloop
  endfacet
  facet normal 0.0658721 -0.997785 0.00925164
    outer loop
      vertex 59.4161 1 1.35039
      vertex 46.9636 0.169457 0.439008
      vertex 49.9474 0.362554 0.019655
    endloop
  endfacet
  facet normal 0.0658716 -0.997785 0.00925877
    outer loop
      vertex 2.43598 -2.83601 -6.65765
      vertex 28.0644 -1.09106 -0.944194
      vertex 2.86236 -2.77196 -2.78869
    endloop
  endfacet
  facet normal 0.0659138 -0.997782 0.00925407
    outer loop
      vertex 2.43598 -2.83601 -6.65765
      vertex 2.86236 -2.77196 -2.78869
      vertex 2.82843 -2.77457 -2.82843
    endloop
  endfacet
  facet normal 0.0658667 -0.997785 0.00925895
    outer loop
      vertex 2.43598 -2.83601 -6.65765
      vertex 2.82843 -2.77457 -2.82843
      vertex 2.35114 -2.80986 -3.23607
    endloop
  endfacet
  facet normal 0.0658629 -0.997786 0.00925885
    outer loop
      vertex 2.43598 -2.83601 -6.65765
      vertex 2.35114 -2.80986 -3.23607
      vertex 1.81596 -2.84823 -3.56403
    endloop
  endfacet
  facet normal 0.0658836 -0.997784 0.00926301
    outer loop
      vertex 2.43598 -2.83601 -6.65765
      vertex 1.81596 -2.84823 -3.56403
      vertex 1.23607 -2.88875 -3.80423
    endloop
  endfacet
  facet normal 0.0658676 -0.997785 0.00925872
    outer loop
      vertex -0.182033 -3 -5.70477
      vertex 1.23607 -2.88875 -3.80423
      vertex 0.625737 -2.9304 -3.95075
    endloop
  endfacet
  facet normal 0.065877 -0.997785 0.00925436
    outer loop
      vertex -0.182033 -3 -5.70477
      vertex 0.625737 -2.9304 -3.95075
      vertex 0 -2.97217 -4
    endloop
  endfacet
  facet normal 0.0658697 -0.997785 0.00925715
    outer loop
      vertex 1.23607 -2.88875 -3.80423
      vertex -0.182033 -3 -5.70477
      vertex 2.43598 -2.83601 -6.65765
    endloop
  endfacet
  facet normal 0.0658714 -0.997785 0.00925982
    outer loop
      vertex 28.0644 -1.09106 -0.944194
      vertex 2.43598 -2.83601 -6.65765
      vertex 35.5769 -0.604901 -2
    endloop
  endfacet
  facet normal 0.0658607 -0.997786 0.00925612
    outer loop
      vertex -0.426338 -3 -3.96645
      vertex -0.182033 -3 -5.70477
      vertex 0 -2.97217 -4
    endloop
  endfacet
  facet normal 0 1 0
    outer loop
      vertex 1.87786 4 6.77539
      vertex 46.973 4 28.5096
      vertex 48.6831 4 23.8111
    endloop
  endfacet
  facet normal 0 1 0
    outer loop
      vertex 46.973 4 28.5096
      vertex 1.87786 4 6.77539
      vertex -4.7101 4 9.69846
    endloop
  endfacet
  facet normal 0 1 0
    outer loop
      vertex -4.7101 4 9.69846
      vertex 1.87786 4 6.77539
      vertex 0.556692 4 6.96107
    endloop
  endfacet
  facet normal 0 1 0
    outer loop
      vertex -3 4 5
      vertex 0.556692 4 6.96107
      vertex 0.457966 4 6.2586
    endloop
  endfacet
  facet normal 0 1 0
    outer loop
      vertex 0.556692 4 6.96107
      vertex -3 4 5
      vertex -4.7101 4 9.69846
    endloop
  endfacet
  facet normal -0.342021 0 0.939692
    outer loop
      vertex -4.7101 4 9.69846
      vertex 46.973 -4 28.5096
      vertex 46.973 4 28.5096
    endloop
  endfacet
  facet normal -0.342021 0 0.939692
    outer loop
      vertex 46.973 -4 28.5096
      vertex -4.7101 4 9.69846
      vertex -4.7101 -4 9.69846
    endloop
  endfacet
  facet normal 0.939694 -0 0.342018
    outer loop
      vertex 46.973 -4 28.5096
      vertex 48.6831 4 23.8111
      vertex 46.973 4 28.5096
    endloop
  endfacet
  facet normal 0.939694 0 0.342018
    outer loop
      vertex 48.6831 4 23.8111
      vertex 46.973 -4 28.5096
      vertex 48.6831 -4 23.8111
    endloop
  endfacet
  facet normal 0.34202 0 -0.939693
    outer loop
      vertex 48.6831 -4 23.8111
      vertex 1.87786 -2.97776 6.77539
      vertex 48.6831 4 23.8111
    endloop
  endfacet
  facet normal 0.34202 -4.50592e-06 -0.939693
    outer loop
      vertex -3 -4 5
      vertex 1.87786 -2.97776 6.77539
      vertex 48.6831 -4 23.8111
    endloop
  endfacet
  facet normal 0.342014 2.54267e-05 -0.939695
    outer loop
      vertex 1.87786 -2.97776 6.77539
      vertex -3 -4 5
      vertex 0.457966 -3 6.2586
    endloop
  endfacet
  facet normal 0.342021 0 -0.939692
    outer loop
      vertex -3 4 5
      vertex 0.457966 -3 6.2586
      vertex -3 -4 5
    endloop
  endfacet
  facet normal 0.342021 0 -0.939692
    outer loop
      vertex 0.457966 -3 6.2586
      vertex -3 4 5
      vertex 0.457966 4 6.2586
    endloop
  endfacet
  facet normal 0.34202 0 -0.939693
    outer loop
      vertex 48.6831 4 23.8111
      vertex 1.87786 -2.97776 6.77539
      vertex 1.87786 4 6.77539
    endloop
  endfacet
  facet normal -0.939693 0 -0.34202
    outer loop
      vertex -3 -4 5
      vertex -4.7101 4 9.69846
      vertex -3 4 5
    endloop
  endfacet
  facet normal -0.939693 -0 -0.34202
    outer loop
      vertex -4.7101 4 9.69846
      vertex -3 -4 5
      vertex -4.7101 -4 9.69846
    endloop
  endfacet
  facet normal 0 -1 0
    outer loop
      vertex -4.7101 -4 9.69846
      vertex 48.6831 -4 23.8111
      vertex 46.973 -4 28.5096
    endloop
  endfacet
  facet normal 0 -1 0
    outer loop
      vertex 48.6831 -4 23.8111
      vertex -4.7101 -4 9.69846
      vertex -3 -4 5
    endloop
  endfacet
  facet normal 0 1 0
    outer loop
      vertex 2.43598 4 -6.65765
      vertex -3 4 -10
      vertex 0 4 -7
    endloop
  endfacet
  facet normal 0 1 -0
    outer loop
      vertex 48.6831 4 -28.8111
      vertex 2.43598 4 -6.65765
      vertex 50.3932 4 -24.1126
    endloop
  endfacet
  facet normal 0 1 0
    outer loop
      vertex 2.43598 4 -6.65765
      vertex 48.6831 4 -28.8111
      vertex -3 4 -10
    endloop
  endfacet
  facet normal 0 1 0
    outer loop
      vertex 0 4 -7
      vertex -1.2899 4 -5.30154
      vertex -0.182033 4 -5.70477
    endloop
  endfacet
  facet normal 0 1 0
    outer loop
      vertex -1.2899 4 -5.30154
      vertex 0 4 -7
      vertex -3 4 -10
    endloop
  endfacet
  facet normal 0 -1 0
    outer loop
      vertex -3 -4 -10
      vertex 50.3932 -4 -24.1126
      vertex -1.2899 -4 -5.30154
    endloop
  endfacet
  facet normal -0 -1 0
    outer loop
      vertex 50.3932 -4 -24.1126
      vertex -3 -4 -10
      vertex 48.6831 -4 -28.8111
    endloop
  endfacet
  facet normal 0.34202 0 0.939693
    outer loop
      vertex -0.182033 4 -5.70477
      vertex -1.2899 4 -5.30154
      vertex -0.182033 -3 -5.70477
    endloop
  endfacet
  facet normal 0.342019 -0 0.939693
    outer loop
      vertex 2.43598 -2.83601 -6.65765
      vertex 50.3932 4 -24.1126
      vertex 2.43598 4 -6.65765
    endloop
  endfacet
  facet normal 0.342019 0 0.939693
    outer loop
      vertex 50.3932 4 -24.1126
      vertex 2.43598 -2.83601 -6.65765
      vertex 50.3932 -4 -24.1126
    endloop
  endfacet
  facet normal 0.342021 -1.12816e-06 0.939692
    outer loop
      vertex -1.2899 -4 -5.30154
      vertex 2.43598 -2.83601 -6.65765
      vertex -0.182033 -3 -5.70477
    endloop
  endfacet
  facet normal 0.342019 3.38191e-06 0.939693
    outer loop
      vertex 2.43598 -2.83601 -6.65765
      vertex -1.2899 -4 -5.30154
      vertex 50.3932 -4 -24.1126
    endloop
  endfacet
  facet normal 0.34202 -0 0.939693
    outer loop
      vertex -1.2899 -4 -5.30154
      vertex -0.182033 -3 -5.70477
      vertex -1.2899 4 -5.30154
    endloop
  endfacet
  facet normal 0.939694 0 -0.342018
    outer loop
      vertex 50.3932 -4 -24.1126
      vertex 48.6831 4 -28.8111
      vertex 50.3932 4 -24.1126
    endloop
  endfacet
  facet normal 0.939694 0 -0.342018
    outer loop
      vertex 48.6831 4 -28.8111
      vertex 50.3932 -4 -24.1126
      vertex 48.6831 -4 -28.8111
    endloop
  endfacet
  facet normal -0.939693 0 0.34202
    outer loop
      vertex -3 -4 -10
      vertex -1.2899 4 -5.30154
      vertex -3 4 -10
    endloop
  endfacet
  facet normal -0.939693 0 0.34202
    outer loop
      vertex -1.2899 4 -5.30154
      vertex -3 -4 -10
      vertex -1.2899 -4 -5.30154
    endloop
  endfacet
  facet normal -0.34202 0 -0.939693
    outer loop
      vertex -3 -4 -10
      vertex 48.6831 4 -28.8111
      vertex 48.6831 -4 -28.8111
    endloop
  endfacet
  facet normal -0.34202 0 -0.939693
    outer loop
      vertex 48.6831 4 -28.8111
      vertex -3 -4 -10
      vertex -3 4 -10
    endloop
  endfacet
  facet normal -0.923879 0 0.382686
    outer loop
      vertex -3.80423 -6 1.23607
      vertex -3.56403 6 1.81596
      vertex -3.80423 6 1.23607
    endloop
  endfacet
  facet normal -0.923879 0 0.382686
    outer loop
      vertex -3.56403 6 1.81596
      vertex -3.80423 -6 1.23607
      vertex -3.56403 -6 1.81596
    endloop
  endfacet
  facet normal 0.972373 -0 0.233433
    outer loop
      vertex 3.80423 -6 1.23607
      vertex 3.95075 6 0.625737
      vertex 3.80423 6 1.23607
    endloop
  endfacet
  facet normal 0.972373 0 0.233433
    outer loop
      vertex 3.95075 6 0.625737
      vertex 3.80423 -6 1.23607
      vertex 3.95075 -6 0.625737
    endloop
  endfacet
  facet normal 0.996917 -0 0.0784645
    outer loop
      vertex 3.95075 -6 0.625737
      vertex 4 6 0
      vertex 3.95075 6 0.625737
    endloop
  endfacet
  facet normal 0.996917 0 0.0784645
    outer loop
      vertex 4 6 0
      vertex 3.95075 -6 0.625737
      vertex 4 -6 0
    endloop
  endfacet
  facet normal 0.0784656 0 0.996917
    outer loop
      vertex 0.625737 6 3.95075
      vertex 0.139003 5 3.98906
      vertex 0.625737 4.96751 3.95075
    endloop
  endfacet
  facet normal 0.0784607 0 0.996917
    outer loop
      vertex 0.139003 5 3.98906
      vertex 0 6 4
      vertex 0.139003 -3 3.98906
    endloop
  endfacet
  facet normal 0.0784645 5.3367e-07 0.996917
    outer loop
      vertex 0 6 4
      vertex 0.139003 5 3.98906
      vertex 0.625737 6 3.95075
    endloop
  endfacet
  facet normal 0.0784656 0 0.996917
    outer loop
      vertex 0.139003 -3 3.98906
      vertex 0.625737 -6 3.95075
      vertex 0.625737 -2.99188 3.95075
    endloop
  endfacet
  facet normal 0.0784645 -1.7789e-07 0.996917
    outer loop
      vertex 0.139003 -3 3.98906
      vertex 0 -6 4
      vertex 0.625737 -6 3.95075
    endloop
  endfacet
  facet normal 0.0784607 -0 0.996917
    outer loop
      vertex 0 -6 4
      vertex 0.139003 -3 3.98906
      vertex 0 6 4
    endloop
  endfacet
  facet normal 0.760448 0 0.649399
    outer loop
      vertex 2.86071 4.8092 2.79063
      vertex 2.82843 6 2.82843
      vertex 2.82843 4.81168 2.82843
    endloop
  endfacet
  facet normal 0.760405 -2.77399e-06 0.649449
    outer loop
      vertex 3.04772 4.79482 2.57167
      vertex 2.82843 6 2.82843
      vertex 2.86071 4.8092 2.79063
    endloop
  endfacet
  facet normal 0.760409 -9.5484e-07 0.649444
    outer loop
      vertex 2.82843 6 2.82843
      vertex 3.04772 4.79482 2.57167
      vertex 3.23607 6 2.35114
    endloop
  endfacet
  facet normal 0.760407 -0 0.649447
    outer loop
      vertex 3.04772 -2.94871 2.57167
      vertex 3.23607 6 2.35114
      vertex 3.04772 4.79482 2.57167
    endloop
  endfacet
  facet normal 0.760448 -0 0.649399
    outer loop
      vertex 2.82843 -6 2.82843
      vertex 2.86071 -2.9523 2.79063
      vertex 2.82843 -2.95292 2.82843
    endloop
  endfacet
  facet normal 0.760405 1.08182e-06 0.649449
    outer loop
      vertex 2.86071 -2.9523 2.79063
      vertex 2.82843 -6 2.82843
      vertex 3.04772 -2.94871 2.57167
    endloop
  endfacet
  facet normal 0.760407 0 0.649447
    outer loop
      vertex 3.04772 -2.94871 2.57167
      vertex 3.23607 -6 2.35114
      vertex 3.23607 6 2.35114
    endloop
  endfacet
  facet normal 0.760409 3.77137e-07 0.649444
    outer loop
      vertex 3.23607 -6 2.35114
      vertex 3.04772 -2.94871 2.57167
      vertex 2.82843 -6 2.82843
    endloop
  endfacet
  facet normal 0.852639 0 -0.5225
    outer loop
      vertex 3.56403 -6 -1.81596
      vertex 3.23607 6 -2.35114
      vertex 3.56403 6 -1.81596
    endloop
  endfacet
  facet normal 0.852639 0 -0.5225
    outer loop
      vertex 3.23607 6 -2.35114
      vertex 3.56403 -6 -1.81596
      vertex 3.23607 -6 -2.35114
    endloop
  endfacet
  facet normal 0.0784645 0 -0.996917
    outer loop
      vertex 0 -2.97217 -4
      vertex 0.625737 -6 -3.95075
      vertex 0 -6 -4
    endloop
  endfacet
  facet normal 0.0784645 0 -0.996917
    outer loop
      vertex 0.625737 -6 -3.95075
      vertex 0 -2.97217 -4
      vertex 0.625737 -2.9304 -3.95075
    endloop
  endfacet
  facet normal 0.0784645 0 -0.996917
    outer loop
      vertex 0 4.99304 -4
      vertex 0.625737 6 -3.95075
      vertex 0.625737 4.9826 -3.95075
    endloop
  endfacet
  facet normal 0.0784645 0 -0.996917
    outer loop
      vertex 0.625737 6 -3.95075
      vertex 0 4.99304 -4
      vertex 0 6 -4
    endloop
  endfacet
  facet normal -0.649444 0 -0.760409
    outer loop
      vertex -2.82843 -6 -2.82843
      vertex -2.35114 6 -3.23607
      vertex -2.35114 -6 -3.23607
    endloop
  endfacet
  facet normal -0.649444 0 -0.760409
    outer loop
      vertex -2.35114 6 -3.23607
      vertex -2.82843 -6 -2.82843
      vertex -2.82843 6 -2.82843
    endloop
  endfacet
  facet normal -0.5225 0 0.852639
    outer loop
      vertex -2.35114 6 3.23607
      vertex -1.81596 -6 3.56403
      vertex -1.81596 6 3.56403
    endloop
  endfacet
  facet normal -0.5225 0 0.852639
    outer loop
      vertex -1.81596 -6 3.56403
      vertex -2.35114 6 3.23607
      vertex -2.35114 -6 3.23607
    endloop
  endfacet
  facet normal -0.382686 0 0.923879
    outer loop
      vertex -1.81596 6 3.56403
      vertex -1.23607 -6 3.80423
      vertex -1.23607 6 3.80423
    endloop
  endfacet
  facet normal -0.382686 0 0.923879
    outer loop
      vertex -1.23607 -6 3.80423
      vertex -1.81596 6 3.56403
      vertex -1.81596 -6 3.56403
    endloop
  endfacet
  facet normal 0.382686 0 -0.923879
    outer loop
      vertex 1.23607 4.97219 -3.80423
      vertex 1.81596 6 -3.56403
      vertex 1.81596 4.96206 -3.56403
    endloop
  endfacet
  facet normal 0.382686 0 -0.923879
    outer loop
      vertex 1.81596 6 -3.56403
      vertex 1.23607 4.97219 -3.80423
      vertex 1.23607 6 -3.80423
    endloop
  endfacet
  facet normal 0.382686 0 -0.923879
    outer loop
      vertex 1.23607 -2.88875 -3.80423
      vertex 1.81596 -6 -3.56403
      vertex 1.23607 -6 -3.80423
    endloop
  endfacet
  facet normal 0.382686 0 -0.923879
    outer loop
      vertex 1.81596 -6 -3.56403
      vertex 1.23607 -2.88875 -3.80423
      vertex 1.81596 -2.84823 -3.56403
    endloop
  endfacet
  facet normal -0.0784645 0 0.996917
    outer loop
      vertex -0.625737 6 3.95075
      vertex 0 -6 4
      vertex 0 6 4
    endloop
  endfacet
  facet normal -0.0784645 0 0.996917
    outer loop
      vertex 0 -6 4
      vertex -0.625737 6 3.95075
      vertex -0.625737 -6 3.95075
    endloop
  endfacet
  facet normal -0.0784509 0 -0.996918
    outer loop
      vertex 0 -6 -4
      vertex -0.426338 -3 -3.96645
      vertex 0 -2.97217 -4
    endloop
  endfacet
  facet normal -0.0784937 -0 -0.996915
    outer loop
      vertex -0.625737 6 -3.95075
      vertex -0.426338 -3 -3.96645
      vertex -0.625737 -6 -3.95075
    endloop
  endfacet
  facet normal -0.0784645 -1.94908e-06 -0.996917
    outer loop
      vertex -0.625737 -6 -3.95075
      vertex -0.426338 -3 -3.96645
      vertex 0 -6 -4
    endloop
  endfacet
  facet normal -0.0784509 0 -0.996918
    outer loop
      vertex -0.426338 5 -3.96645
      vertex 0 6 -4
      vertex 0 4.99304 -4
    endloop
  endfacet
  facet normal -0.0784645 5.84724e-06 -0.996917
    outer loop
      vertex -0.426338 5 -3.96645
      vertex -0.625737 6 -3.95075
      vertex 0 6 -4
    endloop
  endfacet
  facet normal -0.0784937 0 -0.996915
    outer loop
      vertex -0.426338 -3 -3.96645
      vertex -0.625737 6 -3.95075
      vertex -0.426338 5 -3.96645
    endloop
  endfacet
  facet normal -0.923879 0 -0.382686
    outer loop
      vertex -3.56403 -6 -1.81596
      vertex -3.80423 6 -1.23607
      vertex -3.56403 6 -1.81596
    endloop
  endfacet
  facet normal -0.923879 -0 -0.382686
    outer loop
      vertex -3.80423 6 -1.23607
      vertex -3.56403 -6 -1.81596
      vertex -3.80423 -6 -1.23607
    endloop
  endfacet
  facet normal -0.233433 0 0.972373
    outer loop
      vertex -1.23607 6 3.80423
      vertex -0.625737 -6 3.95075
      vertex -0.625737 6 3.95075
    endloop
  endfacet
  facet normal -0.233433 0 0.972373
    outer loop
      vertex -0.625737 -6 3.95075
      vertex -1.23607 6 3.80423
      vertex -1.23607 -6 3.80423
    endloop
  endfacet
  facet normal -0.996917 0 -0.0784645
    outer loop
      vertex -3.95075 -6 -0.625737
      vertex -4 6 0
      vertex -3.95075 6 -0.625737
    endloop
  endfacet
  facet normal -0.996917 -0 -0.0784645
    outer loop
      vertex -4 6 0
      vertex -3.95075 -6 -0.625737
      vertex -4 -6 0
    endloop
  endfacet
  facet normal -0.972373 0 0.233433
    outer loop
      vertex -3.95075 -6 0.625737
      vertex -3.80423 6 1.23607
      vertex -3.95075 6 0.625737
    endloop
  endfacet
  facet normal -0.972373 0 0.233433
    outer loop
      vertex -3.80423 6 1.23607
      vertex -3.95075 -6 0.625737
      vertex -3.80423 -6 1.23607
    endloop
  endfacet
  facet normal 0.923879 0 -0.382686
    outer loop
      vertex 3.80423 -6 -1.23607
      vertex 3.56403 6 -1.81596
      vertex 3.80423 6 -1.23607
    endloop
  endfacet
  facet normal 0.923879 0 -0.382686
    outer loop
      vertex 3.56403 6 -1.81596
      vertex 3.80423 -6 -1.23607
      vertex 3.56403 -6 -1.81596
    endloop
  endfacet
  facet normal -0.760409 0 -0.649444
    outer loop
      vertex -2.82843 -6 -2.82843
      vertex -3.23607 6 -2.35114
      vertex -2.82843 6 -2.82843
    endloop
  endfacet
  facet normal -0.760409 -0 -0.649444
    outer loop
      vertex -3.23607 6 -2.35114
      vertex -2.82843 -6 -2.82843
      vertex -3.23607 -6 -2.35114
    endloop
  endfacet
  facet normal -0.649444 0 0.760409
    outer loop
      vertex -2.82843 6 2.82843
      vertex -2.35114 -6 3.23607
      vertex -2.35114 6 3.23607
    endloop
  endfacet
  facet normal -0.649444 0 0.760409
    outer loop
      vertex -2.35114 -6 3.23607
      vertex -2.82843 6 2.82843
      vertex -2.82843 -6 2.82843
    endloop
  endfacet
  facet normal 0.996917 0 -0.0784645
    outer loop
      vertex 4 -6 0
      vertex 3.95075 6 -0.625737
      vertex 4 6 0
    endloop
  endfacet
  facet normal 0.996917 0 -0.0784645
    outer loop
      vertex 3.95075 6 -0.625737
      vertex 4 -6 0
      vertex 3.95075 -6 -0.625737
    endloop
  endfacet
  facet normal -0.5225 0 -0.852639
    outer loop
      vertex -2.35114 -6 -3.23607
      vertex -1.81596 6 -3.56403
      vertex -1.81596 -6 -3.56403
    endloop
  endfacet
  facet normal -0.5225 0 -0.852639
    outer loop
      vertex -1.81596 6 -3.56403
      vertex -2.35114 -6 -3.23607
      vertex -2.35114 6 -3.23607
    endloop
  endfacet
  facet normal 0 1 0
    outer loop
      vertex 0.625737 6 3.95075
      vertex -0.625737 6 3.95075
      vertex 0 6 4
    endloop
  endfacet
  facet normal 0 1 0
    outer loop
      vertex 1.23607 6 3.80423
      vertex -0.625737 6 3.95075
      vertex 0.625737 6 3.95075
    endloop
  endfacet
  facet normal 0 1 0
    outer loop
      vertex 1.23607 6 3.80423
      vertex -1.23607 6 3.80423
      vertex -0.625737 6 3.95075
    endloop
  endfacet
  facet normal 0 1 0
    outer loop
      vertex 1.81596 6 3.56403
      vertex -1.23607 6 3.80423
      vertex 1.23607 6 3.80423
    endloop
  endfacet
  facet normal 0 1 0
    outer loop
      vertex 1.81596 6 3.56403
      vertex -1.81596 6 3.56403
      vertex -1.23607 6 3.80423
    endloop
  endfacet
  facet normal 0 1 0
    outer loop
      vertex 2.35114 6 3.23607
      vertex -1.81596 6 3.56403
      vertex 1.81596 6 3.56403
    endloop
  endfacet
  facet normal 0 1 0
    outer loop
      vertex 2.35114 6 3.23607
      vertex -2.35114 6 3.23607
      vertex -1.81596 6 3.56403
    endloop
  endfacet
  facet normal 0 1 0
    outer loop
      vertex 2.82843 6 2.82843
      vertex -2.35114 6 3.23607
      vertex 2.35114 6 3.23607
    endloop
  endfacet
  facet normal 0 1 0
    outer loop
      vertex 2.82843 6 2.82843
      vertex -2.82843 6 2.82843
      vertex -2.35114 6 3.23607
    endloop
  endfacet
  facet normal 0 1 0
    outer loop
      vertex 3.23607 6 2.35114
      vertex -2.82843 6 2.82843
      vertex 2.82843 6 2.82843
    endloop
  endfacet
  facet normal 0 1 0
    outer loop
      vertex 3.23607 6 2.35114
      vertex -3.23607 6 2.35114
      vertex -2.82843 6 2.82843
    endloop
  endfacet
  facet normal 0 1 0
    outer loop
      vertex 3.56403 6 1.81596
      vertex -3.23607 6 2.35114
      vertex 3.23607 6 2.35114
    endloop
  endfacet
  facet normal 0 1 0
    outer loop
      vertex 3.56403 6 1.81596
      vertex -3.56403 6 1.81596
      vertex -3.23607 6 2.35114
    endloop
  endfacet
  facet normal 0 1 0
    outer loop
      vertex 3.80423 6 1.23607
      vertex -3.56403 6 1.81596
      vertex 3.56403 6 1.81596
    endloop
  endfacet
  facet normal 0 1 0
    outer loop
      vertex 3.80423 6 1.23607
      vertex -3.80423 6 1.23607
      vertex -3.56403 6 1.81596
    endloop
  endfacet
  facet normal 0 1 0
    outer loop
      vertex 3.95075 6 0.625737
      vertex -3.80423 6 1.23607
      vertex 3.80423 6 1.23607
    endloop
  endfacet
  facet normal 0 1 0
    outer loop
      vertex 3.95075 6 0.625737
      vertex -3.95075 6 0.625737
      vertex -3.80423 6 1.23607
    endloop
  endfacet
  facet normal 0 1 0
    outer loop
      vertex 4 6 0
      vertex -3.95075 6 0.625737
      vertex 3.95075 6 0.625737
    endloop
  endfacet
  facet normal 0 1 0
    outer loop
      vertex 4 6 0
      vertex -4 6 0
      vertex -3.95075 6 0.625737
    endloop
  endfacet
  facet normal 0 1 -0
    outer loop
      vertex 3.95075 6 -0.625737
      vertex -4 6 0
      vertex 4 6 0
    endloop
  endfacet
  facet normal 0 1 0
    outer loop
      vertex 3.95075 6 -0.625737
      vertex -3.95075 6 -0.625737
      vertex -4 6 0
    endloop
  endfacet
  facet normal 0 1 -0
    outer loop
      vertex 3.80423 6 -1.23607
      vertex -3.95075 6 -0.625737
      vertex 3.95075 6 -0.625737
    endloop
  endfacet
  facet normal 0 1 0
    outer loop
      vertex 3.80423 6 -1.23607
      vertex -3.80423 6 -1.23607
      vertex -3.95075 6 -0.625737
    endloop
  endfacet
  facet normal 0 1 -0
    outer loop
      vertex 3.56403 6 -1.81596
      vertex -3.80423 6 -1.23607
      vertex 3.80423 6 -1.23607
    endloop
  endfacet
  facet normal 0 1 0
    outer loop
      vertex 3.56403 6 -1.81596
      vertex -3.56403 6 -1.81596
      vertex -3.80423 6 -1.23607
    endloop
  endfacet
  facet normal 0 1 -0
    outer loop
      vertex 3.23607 6 -2.35114
      vertex -3.56403 6 -1.81596
      vertex 3.56403 6 -1.81596
    endloop
  endfacet
  facet normal 0 1 0
    outer loop
      vertex 3.23607 6 -2.35114
      vertex -3.23607 6 -2.35114
      vertex -3.56403 6 -1.81596
    endloop
  endfacet
  facet normal 0 1 -0
    outer loop
      vertex 2.82843 6 -2.82843
      vertex -3.23607 6 -2.35114
      vertex 3.23607 6 -2.35114
    endloop
  endfacet
  facet normal 0 1 0
    outer loop
      vertex 2.82843 6 -2.82843
      vertex -2.82843 6 -2.82843
      vertex -3.23607 6 -2.35114
    endloop
  endfacet
  facet normal 0 1 -0
    outer loop
      vertex 2.35114 6 -3.23607
      vertex -2.82843 6 -2.82843
      vertex 2.82843 6 -2.82843
    endloop
  endfacet
  facet normal 0 1 0
    outer loop
      vertex 2.35114 6 -3.23607
      vertex -2.35114 6 -3.23607
      vertex -2.82843 6 -2.82843
    endloop
  endfacet
  facet normal 0 1 -0
    outer loop
      vertex 1.81596 6 -3.56403
      vertex -2.35114 6 -3.23607
      vertex 2.35114 6 -3.23607
    endloop
  endfacet
  facet normal 0 1 0
    outer loop
      vertex 1.81596 6 -3.56403
      vertex -1.81596 6 -3.56403
      vertex -2.35114 6 -3.23607
    endloop
  endfacet
  facet normal 0 1 -0
    outer loop
      vertex 1.23607 6 -3.80423
      vertex -1.81596 6 -3.56403
      vertex 1.81596 6 -3.56403
    endloop
  endfacet
  facet normal 0 1 0
    outer loop
      vertex 1.23607 6 -3.80423
      vertex -1.23607 6 -3.80423
      vertex -1.81596 6 -3.56403
    endloop
  endfacet
  facet normal 0 1 -0
    outer loop
      vertex 0.625737 6 -3.95075
      vertex -1.23607 6 -3.80423
      vertex 1.23607 6 -3.80423
    endloop
  endfacet
  facet normal 0 1 0
    outer loop
      vertex 0.625737 6 -3.95075
      vertex -0.625737 6 -3.95075
      vertex -1.23607 6 -3.80423
    endloop
  endfacet
  facet normal -0 1 0
    outer loop
      vertex -0.625737 6 -3.95075
      vertex 0.625737 6 -3.95075
      vertex 0 6 -4
    endloop
  endfacet
  facet normal 0.923879 -0 0.382686
    outer loop
      vertex 3.56403 -6 1.81596
      vertex 3.80423 6 1.23607
      vertex 3.56403 6 1.81596
    endloop
  endfacet
  facet normal 0.923879 0 0.382686
    outer loop
      vertex 3.80423 6 1.23607
      vertex 3.56403 -6 1.81596
      vertex 3.80423 -6 1.23607
    endloop
  endfacet
  facet normal 0.382686 0 0.923879
    outer loop
      vertex 1.23607 -2.98146 3.80423
      vertex 1.81596 -6 3.56403
      vertex 1.81596 -2.97134 3.56403
    endloop
  endfacet
  facet normal 0.382686 0 0.923879
    outer loop
      vertex 1.81596 -6 3.56403
      vertex 1.23607 -2.98146 3.80423
      vertex 1.23607 -6 3.80423
    endloop
  endfacet
  facet normal 0.382686 -0 0.923879
    outer loop
      vertex 1.23607 4.92586 3.80423
      vertex 1.81596 6 3.56403
      vertex 1.23607 6 3.80423
    endloop
  endfacet
  facet normal 0.382686 0 0.923879
    outer loop
      vertex 1.81596 6 3.56403
      vertex 1.23607 4.92586 3.80423
      vertex 1.81596 4.88535 3.56403
    endloop
  endfacet
  facet normal 0.5225 0 0.852639
    outer loop
      vertex 1.81596 -2.97134 3.56403
      vertex 2.35114 -6 3.23607
      vertex 2.35114 -2.96174 3.23607
    endloop
  endfacet
  facet normal 0.5225 0 0.852639
    outer loop
      vertex 2.35114 -6 3.23607
      vertex 1.81596 -2.97134 3.56403
      vertex 1.81596 -6 3.56403
    endloop
  endfacet
  facet normal 0.5225 -0 0.852639
    outer loop
      vertex 1.81596 4.88535 3.56403
      vertex 2.35114 6 3.23607
      vertex 1.81596 6 3.56403
    endloop
  endfacet
  facet normal 0.5225 0 0.852639
    outer loop
      vertex 2.35114 6 3.23607
      vertex 1.81596 4.88535 3.56403
      vertex 2.35114 4.84697 3.23607
    endloop
  endfacet
  facet normal 0.649444 0 0.760409
    outer loop
      vertex 2.35114 -2.96174 3.23607
      vertex 2.82843 -6 2.82843
      vertex 2.82843 -2.95292 2.82843
    endloop
  endfacet
  facet normal 0.649444 0 0.760409
    outer loop
      vertex 2.82843 -6 2.82843
      vertex 2.35114 -2.96174 3.23607
      vertex 2.35114 -6 3.23607
    endloop
  endfacet
  facet normal 0.649444 -0 0.760409
    outer loop
      vertex 2.35114 4.84697 3.23607
      vertex 2.82843 6 2.82843
      vertex 2.35114 6 3.23607
    endloop
  endfacet
  facet normal 0.649444 0 0.760409
    outer loop
      vertex 2.82843 6 2.82843
      vertex 2.35114 4.84697 3.23607
      vertex 2.82843 4.81168 2.82843
    endloop
  endfacet
  facet normal 0.972373 0 -0.233433
    outer loop
      vertex 3.95075 -6 -0.625737
      vertex 3.80423 6 -1.23607
      vertex 3.95075 6 -0.625737
    endloop
  endfacet
  facet normal 0.972373 0 -0.233433
    outer loop
      vertex 3.80423 6 -1.23607
      vertex 3.95075 -6 -0.625737
      vertex 3.80423 -6 -1.23607
    endloop
  endfacet
  facet normal 0.233433 0 0.972373
    outer loop
      vertex 0.625737 -2.99188 3.95075
      vertex 1.23607 -6 3.80423
      vertex 1.23607 -2.98146 3.80423
    endloop
  endfacet
  facet normal 0.233433 0 0.972373
    outer loop
      vertex 1.23607 -6 3.80423
      vertex 0.625737 -2.99188 3.95075
      vertex 0.625737 -6 3.95075
    endloop
  endfacet
  facet normal 0.233433 -0 0.972373
    outer loop
      vertex 0.625737 4.96751 3.95075
      vertex 1.23607 6 3.80423
      vertex 0.625737 6 3.95075
    endloop
  endfacet
  facet normal 0.233433 0 0.972373
    outer loop
      vertex 1.23607 6 3.80423
      vertex 0.625737 4.96751 3.95075
      vertex 1.23607 4.92586 3.80423
    endloop
  endfacet
  facet normal 0.760409 -2.08299e-06 -0.649444
    outer loop
      vertex 3.08587 4.93869 -2.527
      vertex 2.82843 6 -2.82843
      vertex 3.23607 6 -2.35114
    endloop
  endfacet
  facet normal 0.760511 0 -0.649324
    outer loop
      vertex 2.82843 6 -2.82843
      vertex 2.86236 4.94299 -2.78869
      vertex 2.82843 4.94364 -2.82843
    endloop
  endfacet
  facet normal 0.760398 -8.65287e-06 -0.649458
    outer loop
      vertex 2.82843 6 -2.82843
      vertex 3.08587 4.93869 -2.527
      vertex 2.86236 4.94299 -2.78869
    endloop
  endfacet
  facet normal 0.760403 0 -0.649451
    outer loop
      vertex 3.23607 6 -2.35114
      vertex 3.08587 -2.75478 -2.527
      vertex 3.08587 4.93869 -2.527
    endloop
  endfacet
  facet normal 0.760403 0 -0.649451
    outer loop
      vertex 3.23607 -6 -2.35114
      vertex 3.08587 -2.75478 -2.527
      vertex 3.23607 6 -2.35114
    endloop
  endfacet
  facet normal 0.760398 -5.62628e-07 -0.649457
    outer loop
      vertex 3.23607 -6 -2.35114
      vertex 2.86236 -2.77196 -2.78869
      vertex 3.08587 -2.75478 -2.527
    endloop
  endfacet
  facet normal 0.760409 2.54861e-06 -0.649444
    outer loop
      vertex 2.82843 -6 -2.82843
      vertex 2.86236 -2.77196 -2.78869
      vertex 3.23607 -6 -2.35114
    endloop
  endfacet
  facet normal 0.760511 0 -0.649324
    outer loop
      vertex 2.86236 -2.77196 -2.78869
      vertex 2.82843 -6 -2.82843
      vertex 2.82843 -2.77457 -2.82843
    endloop
  endfacet
  facet normal 0.5225 0 -0.852639
    outer loop
      vertex 1.81596 4.96206 -3.56403
      vertex 2.35114 6 -3.23607
      vertex 2.35114 4.95247 -3.23607
    endloop
  endfacet
  facet normal 0.5225 0 -0.852639
    outer loop
      vertex 2.35114 6 -3.23607
      vertex 1.81596 4.96206 -3.56403
      vertex 1.81596 6 -3.56403
    endloop
  endfacet
  facet normal 0.5225 0 -0.852639
    outer loop
      vertex 1.81596 -2.84823 -3.56403
      vertex 2.35114 -6 -3.23607
      vertex 1.81596 -6 -3.56403
    endloop
  endfacet
  facet normal 0.5225 0 -0.852639
    outer loop
      vertex 2.35114 -6 -3.23607
      vertex 1.81596 -2.84823 -3.56403
      vertex 2.35114 -2.80986 -3.23607
    endloop
  endfacet
  facet normal 0.852639 -0 0.5225
    outer loop
      vertex 3.23607 -6 2.35114
      vertex 3.56403 6 1.81596
      vertex 3.23607 6 2.35114
    endloop
  endfacet
  facet normal 0.852639 0 0.5225
    outer loop
      vertex 3.56403 6 1.81596
      vertex 3.23607 -6 2.35114
      vertex 3.56403 -6 1.81596
    endloop
  endfacet
  facet normal -0.852639 0 -0.5225
    outer loop
      vertex -3.23607 -6 -2.35114
      vertex -3.56403 6 -1.81596
      vertex -3.23607 6 -2.35114
    endloop
  endfacet
  facet normal -0.852639 -0 -0.5225
    outer loop
      vertex -3.56403 6 -1.81596
      vertex -3.23607 -6 -2.35114
      vertex -3.56403 -6 -1.81596
    endloop
  endfacet
  facet normal -0.382686 0 -0.923879
    outer loop
      vertex -1.81596 -6 -3.56403
      vertex -1.23607 6 -3.80423
      vertex -1.23607 -6 -3.80423
    endloop
  endfacet
  facet normal -0.382686 0 -0.923879
    outer loop
      vertex -1.23607 6 -3.80423
      vertex -1.81596 -6 -3.56403
      vertex -1.81596 6 -3.56403
    endloop
  endfacet
  facet normal -0.972373 0 -0.233433
    outer loop
      vertex -3.80423 -6 -1.23607
      vertex -3.95075 6 -0.625737
      vertex -3.80423 6 -1.23607
    endloop
  endfacet
  facet normal -0.972373 -0 -0.233433
    outer loop
      vertex -3.95075 6 -0.625737
      vertex -3.80423 -6 -1.23607
      vertex -3.95075 -6 -0.625737
    endloop
  endfacet
  facet normal 0.233433 0 -0.972373
    outer loop
      vertex 0.625737 -2.9304 -3.95075
      vertex 1.23607 -6 -3.80423
      vertex 0.625737 -6 -3.95075
    endloop
  endfacet
  facet normal 0.233433 0 -0.972373
    outer loop
      vertex 1.23607 -6 -3.80423
      vertex 0.625737 -2.9304 -3.95075
      vertex 1.23607 -2.88875 -3.80423
    endloop
  endfacet
  facet normal 0.233433 0 -0.972373
    outer loop
      vertex 0.625737 4.9826 -3.95075
      vertex 1.23607 6 -3.80423
      vertex 1.23607 4.97219 -3.80423
    endloop
  endfacet
  facet normal 0.233433 0 -0.972373
    outer loop
      vertex 1.23607 6 -3.80423
      vertex 0.625737 4.9826 -3.95075
      vertex 0.625737 6 -3.95075
    endloop
  endfacet
  facet normal -0.760409 0 0.649444
    outer loop
      vertex -3.23607 -6 2.35114
      vertex -2.82843 6 2.82843
      vertex -3.23607 6 2.35114
    endloop
  endfacet
  facet normal -0.760409 0 0.649444
    outer loop
      vertex -2.82843 6 2.82843
      vertex -3.23607 -6 2.35114
      vertex -2.82843 -6 2.82843
    endloop
  endfacet
  facet normal -0.233433 0 -0.972373
    outer loop
      vertex -1.23607 -6 -3.80423
      vertex -0.625737 6 -3.95075
      vertex -0.625737 -6 -3.95075
    endloop
  endfacet
  facet normal -0.233433 0 -0.972373
    outer loop
      vertex -0.625737 6 -3.95075
      vertex -1.23607 -6 -3.80423
      vertex -1.23607 6 -3.80423
    endloop
  endfacet
  facet normal -0.996917 0 0.0784645
    outer loop
      vertex -4 -6 0
      vertex -3.95075 6 0.625737
      vertex -4 6 0
    endloop
  endfacet
  facet normal -0.996917 0 0.0784645
    outer loop
      vertex -3.95075 6 0.625737
      vertex -4 -6 0
      vertex -3.95075 -6 0.625737
    endloop
  endfacet
  facet normal 0 -1 0
    outer loop
      vertex -0.625737 -6 3.95075
      vertex 0.625737 -6 3.95075
      vertex 0 -6 4
    endloop
  endfacet
  facet normal 0 -1 0
    outer loop
      vertex -1.23607 -6 3.80423
      vertex 0.625737 -6 3.95075
      vertex -0.625737 -6 3.95075
    endloop
  endfacet
  facet normal 0 -1 0
    outer loop
      vertex -1.23607 -6 3.80423
      vertex 1.23607 -6 3.80423
      vertex 0.625737 -6 3.95075
    endloop
  endfacet
  facet normal 0 -1 0
    outer loop
      vertex -1.81596 -6 3.56403
      vertex 1.23607 -6 3.80423
      vertex -1.23607 -6 3.80423
    endloop
  endfacet
  facet normal 0 -1 0
    outer loop
      vertex -1.81596 -6 3.56403
      vertex 1.81596 -6 3.56403
      vertex 1.23607 -6 3.80423
    endloop
  endfacet
  facet normal 0 -1 0
    outer loop
      vertex -2.35114 -6 3.23607
      vertex 1.81596 -6 3.56403
      vertex -1.81596 -6 3.56403
    endloop
  endfacet
  facet normal 0 -1 0
    outer loop
      vertex -2.35114 -6 3.23607
      vertex 2.35114 -6 3.23607
      vertex 1.81596 -6 3.56403
    endloop
  endfacet
  facet normal 0 -1 0
    outer loop
      vertex -2.82843 -6 2.82843
      vertex 2.35114 -6 3.23607
      vertex -2.35114 -6 3.23607
    endloop
  endfacet
  facet normal 0 -1 0
    outer loop
      vertex -2.82843 -6 2.82843
      vertex 2.82843 -6 2.82843
      vertex 2.35114 -6 3.23607
    endloop
  endfacet
  facet normal 0 -1 0
    outer loop
      vertex -3.23607 -6 2.35114
      vertex 2.82843 -6 2.82843
      vertex -2.82843 -6 2.82843
    endloop
  endfacet
  facet normal 0 -1 0
    outer loop
      vertex -3.23607 -6 2.35114
      vertex 3.23607 -6 2.35114
      vertex 2.82843 -6 2.82843
    endloop
  endfacet
  facet normal 0 -1 0
    outer loop
      vertex -3.56403 -6 1.81596
      vertex 3.23607 -6 2.35114
      vertex -3.23607 -6 2.35114
    endloop
  endfacet
  facet normal 0 -1 0
    outer loop
      vertex -3.56403 -6 1.81596
      vertex 3.56403 -6 1.81596
      vertex 3.23607 -6 2.35114
    endloop
  endfacet
  facet normal 0 -1 0
    outer loop
      vertex -3.80423 -6 1.23607
      vertex 3.56403 -6 1.81596
      vertex -3.56403 -6 1.81596
    endloop
  endfacet
  facet normal 0 -1 0
    outer loop
      vertex -3.80423 -6 1.23607
      vertex 3.80423 -6 1.23607
      vertex 3.56403 -6 1.81596
    endloop
  endfacet
  facet normal 0 -1 0
    outer loop
      vertex -3.95075 -6 0.625737
      vertex 3.80423 -6 1.23607
      vertex -3.80423 -6 1.23607
    endloop
  endfacet
  facet normal 0 -1 0
    outer loop
      vertex -3.95075 -6 0.625737
      vertex 3.95075 -6 0.625737
      vertex 3.80423 -6 1.23607
    endloop
  endfacet
  facet normal 0 -1 0
    outer loop
      vertex -4 -6 0
      vertex 3.95075 -6 0.625737
      vertex -3.95075 -6 0.625737
    endloop
  endfacet
  facet normal 0 -1 0
    outer loop
      vertex -4 -6 0
      vertex 4 -6 0
      vertex 3.95075 -6 0.625737
    endloop
  endfacet
  facet normal 0 -1 0
    outer loop
      vertex -3.95075 -6 -0.625737
      vertex 4 -6 0
      vertex -4 -6 0
    endloop
  endfacet
  facet normal 0 -1 0
    outer loop
      vertex -3.95075 -6 -0.625737
      vertex 3.95075 -6 -0.625737
      vertex 4 -6 0
    endloop
  endfacet
  facet normal 0 -1 0
    outer loop
      vertex -3.80423 -6 -1.23607
      vertex 3.95075 -6 -0.625737
      vertex -3.95075 -6 -0.625737
    endloop
  endfacet
  facet normal 0 -1 0
    outer loop
      vertex -3.80423 -6 -1.23607
      vertex 3.80423 -6 -1.23607
      vertex 3.95075 -6 -0.625737
    endloop
  endfacet
  facet normal 0 -1 0
    outer loop
      vertex -3.56403 -6 -1.81596
      vertex 3.80423 -6 -1.23607
      vertex -3.80423 -6 -1.23607
    endloop
  endfacet
  facet normal 0 -1 0
    outer loop
      vertex -3.56403 -6 -1.81596
      vertex 3.56403 -6 -1.81596
      vertex 3.80423 -6 -1.23607
    endloop
  endfacet
  facet normal 0 -1 0
    outer loop
      vertex -3.23607 -6 -2.35114
      vertex 3.56403 -6 -1.81596
      vertex -3.56403 -6 -1.81596
    endloop
  endfacet
  facet normal 0 -1 0
    outer loop
      vertex -3.23607 -6 -2.35114
      vertex 3.23607 -6 -2.35114
      vertex 3.56403 -6 -1.81596
    endloop
  endfacet
  facet normal 0 -1 0
    outer loop
      vertex -2.82843 -6 -2.82843
      vertex 3.23607 -6 -2.35114
      vertex -3.23607 -6 -2.35114
    endloop
  endfacet
  facet normal 0 -1 0
    outer loop
      vertex -2.82843 -6 -2.82843
      vertex 2.82843 -6 -2.82843
      vertex 3.23607 -6 -2.35114
    endloop
  endfacet
  facet normal 0 -1 0
    outer loop
      vertex -2.35114 -6 -3.23607
      vertex 2.82843 -6 -2.82843
      vertex -2.82843 -6 -2.82843
    endloop
  endfacet
  facet normal 0 -1 0
    outer loop
      vertex -2.35114 -6 -3.23607
      vertex 2.35114 -6 -3.23607
      vertex 2.82843 -6 -2.82843
    endloop
  endfacet
  facet normal 0 -1 0
    outer loop
      vertex -1.81596 -6 -3.56403
      vertex 2.35114 -6 -3.23607
      vertex -2.35114 -6 -3.23607
    endloop
  endfacet
  facet normal 0 -1 0
    outer loop
      vertex -1.81596 -6 -3.56403
      vertex 1.81596 -6 -3.56403
      vertex 2.35114 -6 -3.23607
    endloop
  endfacet
  facet normal 0 -1 0
    outer loop
      vertex -1.23607 -6 -3.80423
      vertex 1.81596 -6 -3.56403
      vertex -1.81596 -6 -3.56403
    endloop
  endfacet
  facet normal 0 -1 0
    outer loop
      vertex -1.23607 -6 -3.80423
      vertex 1.23607 -6 -3.80423
      vertex 1.81596 -6 -3.56403
    endloop
  endfacet
  facet normal 0 -1 0
    outer loop
      vertex -0.625737 -6 -3.95075
      vertex 1.23607 -6 -3.80423
      vertex -1.23607 -6 -3.80423
    endloop
  endfacet
  facet normal 0 -1 0
    outer loop
      vertex -0.625737 -6 -3.95075
      vertex 0.625737 -6 -3.95075
      vertex 1.23607 -6 -3.80423
    endloop
  endfacet
  facet normal -0 -1 0
    outer loop
      vertex 0.625737 -6 -3.95075
      vertex -0.625737 -6 -3.95075
      vertex 0 -6 -4
    endloop
  endfacet
  facet normal -0.852639 0 0.5225
    outer loop
      vertex -3.56403 -6 1.81596
      vertex -3.23607 6 2.35114
      vertex -3.56403 6 1.81596
    endloop
  endfacet
  facet normal -0.852639 0 0.5225
    outer loop
      vertex -3.23607 6 2.35114
      vertex -3.56403 -6 1.81596
      vertex -3.23607 -6 2.35114
    endloop
  endfacet
  facet normal 0.649444 0 -0.760409
    outer loop
      vertex 2.35114 -2.80986 -3.23607
      vertex 2.82843 -6 -2.82843
      vertex 2.35114 -6 -3.23607
    endloop
  endfacet
  facet normal 0.649444 0 -0.760409
    outer loop
      vertex 2.82843 -6 -2.82843
      vertex 2.35114 -2.80986 -3.23607
      vertex 2.82843 -2.77457 -2.82843
    endloop
  endfacet
  facet normal 0.649444 0 -0.760409
    outer loop
      vertex 2.35114 4.95247 -3.23607
      vertex 2.82843 6 -2.82843
      vertex 2.82843 4.94364 -2.82843
    endloop
  endfacet
  facet normal 0.649444 0 -0.760409
    outer loop
      vertex 2.82843 6 -2.82843
      vertex 2.35114 4.95247 -3.23607
      vertex 2.35114 6 -3.23607
    endloop
  endfacet
endsolid OpenSCAD_Model
