solid OpenSCAD_Model
  facet normal 0 0 -1
    outer loop
      vertex 30 -30 -20
      vertex -15 -15 -20
      vertex 30 -15 -20
    endloop
  endfacet
  facet normal 0 0 -1
    outer loop
      vertex -30 -30 -20
      vertex -15 -15 -20
      vertex 30 -30 -20
    endloop
  endfacet
  facet normal 0 0 -1
    outer loop
      vertex -30 30 -20
      vertex -15 -15 -20
      vertex -30 -30 -20
    endloop
  endfacet
  facet normal 0 0 -1
    outer loop
      vertex -15 -15 -20
      vertex -30 30 -20
      vertex -15 30 -20
    endloop
  endfacet
  facet normal 0 0 1
    outer loop
      vertex -15 30 20
      vertex -30 30 20
      vertex -15 -15 20
    endloop
  endfacet
  facet normal -0 0 1
    outer loop
      vertex -15 -15 20
      vertex 30 -30 20
      vertex 30 -15 20
    endloop
  endfacet
  facet normal 0 0 1
    outer loop
      vertex -15 -15 20
      vertex -30 -30 20
      vertex 30 -30 20
    endloop
  endfacet
  facet normal 0 0 1
    outer loop
      vertex -30 -30 20
      vertex -15 -15 20
      vertex -30 30 20
    endloop
  endfacet
  facet normal 0 1 -0
    outer loop
      vertex 30 -15 -20
      vertex -15 -15 20
      vertex 30 -15 20
    endloop
  endfacet
  facet normal 0 1 0
    outer loop
      vertex -15 -15 20
      vertex 30 -15 -20
      vertex -15 -15 -20
    endloop
  endfacet
  facet normal 1 -0 0
    outer loop
      vertex -15 -15 20
      vertex -15 30 -20
      vertex -15 30 20
    endloop
  endfacet
  facet normal 1 0 0
    outer loop
      vertex -15 30 -20
      vertex -15 -15 20
      vertex -15 -15 -20
    endloop
  endfacet
  facet normal 0 1 -0
    outer loop
      vertex -15 30 -20
      vertex -30 30 20
      vertex -15 30 20
    endloop
  endfacet
  facet normal 0 1 0
    outer loop
      vertex -30 30 20
      vertex -15 30 -20
      vertex -30 30 -20
    endloop
  endfacet
  facet normal -1 0 0
    outer loop
      vertex -30 -30 -20
      vertex -30 30 20
      vertex -30 30 -20
    endloop
  endfacet
  facet normal -1 -0 0
    outer loop
      vertex -30 30 20
      vertex -30 -30 -20
      vertex -30 -30 20
    endloop
  endfacet
  facet normal 0 -1 0
    outer loop
      vertex -30 -30 -20
      vertex 30 -30 20
      vertex -30 -30 20
    endloop
  endfacet
  facet normal 0 -1 -0
    outer loop
      vertex 30 -30 20
      vertex -30 -30 -20
      vertex 30 -30 -20
    endloop
  endfacet
  facet normal 1 -0 0
    outer loop
      vertex 30 -30 20
      vertex 30 -15 -20
      vertex 30 -15 20
    endloop
  endfacet
  facet normal 1 0 0
    outer loop
      vertex 30 -15 -20
      vertex 30 -30 20
      vertex 30 -30 -20
    endloop
  endfacet
endsolid OpenSCAD_Model
