solid OpenSCAD_Model
  facet normal 1 -0 0
    outer loop
      vertex 0 -10 20
      vertex 0 40 -20
      vertex 0 40 20
    endloop
  endfacet
  facet normal 1 0 0
    outer loop
      vertex 0 40 -20
      vertex 0 -10 20
      vertex 0 -10 -20
    endloop
  endfacet
  facet normal 0 0 1
    outer loop
      vertex 0 40 20
      vertex -30 40 20
      vertex 0 -10 20
    endloop
  endfacet
  facet normal -0 0 1
    outer loop
      vertex 0 -10 20
      vertex 60 -40 20
      vertex 60 -10 20
    endloop
  endfacet
  facet normal 0 0 1
    outer loop
      vertex 0 -10 20
      vertex -30 -40 20
      vertex 60 -40 20
    endloop
  endfacet
  facet normal 0 0 1
    outer loop
      vertex -30 -40 20
      vertex 0 -10 20
      vertex -30 40 20
    endloop
  endfacet
  facet normal 0 0 -1
    outer loop
      vertex 60 -40 -20
      vertex 0 -10 -20
      vertex 60 -10 -20
    endloop
  endfacet
  facet normal 0 0 -1
    outer loop
      vertex -30 -40 -20
      vertex 0 -10 -20
      vertex 60 -40 -20
    endloop
  endfacet
  facet normal 0 0 -1
    outer loop
      vertex -30 40 -20
      vertex 0 -10 -20
      vertex -30 -40 -20
    endloop
  endfacet
  facet normal 0 0 -1
    outer loop
      vertex 0 -10 -20
      vertex -30 40 -20
      vertex 0 40 -20
    endloop
  endfacet
  facet normal -1 0 0
    outer loop
      vertex -30 -40 -20
      vertex -30 40 20
      vertex -30 40 -20
    endloop
  endfacet
  facet normal -1 -0 0
    outer loop
      vertex -30 40 20
      vertex -30 -40 -20
      vertex -30 -40 20
    endloop
  endfacet
  facet normal 0 1 -0
    outer loop
      vertex 0 40 -20
      vertex -30 40 20
      vertex 0 40 20
    endloop
  endfacet
  facet normal 0 1 0
    outer loop
      vertex -30 40 20
      vertex 0 40 -20
      vertex -30 40 -20
    endloop
  endfacet
  facet normal 0 -1 0
    outer loop
      vertex -30 -40 -20
      vertex 60 -40 20
      vertex -30 -40 20
    endloop
  endfacet
  facet normal 0 -1 -0
    outer loop
      vertex 60 -40 20
      vertex -30 -40 -20
      vertex 60 -40 -20
    endloop
  endfacet
  facet normal 1 -0 0
    outer loop
      vertex 60 -40 20
      vertex 60 -10 -20
      vertex 60 -10 20
    endloop
  endfacet
  facet normal 1 0 0
    outer loop
      vertex 60 -10 -20
      vertex 60 -40 20
      vertex 60 -40 -20
    endloop
  endfacet
  facet normal 0 1 -0
    outer loop
      vertex 60 -10 -20
      vertex 0 -10 20
      vertex 60 -10 20
    endloop
  endfacet
  facet normal 0 1 0
    outer loop
      vertex 0 -10 20
      vertex 60 -10 -20
      vertex 0 -10 -20
    endloop
  endfacet
endsolid OpenSCAD_Model
