solid OpenSCAD_Model
  facet normal 0 0 -1
    outer loop
      vertex 35 -35 -35
      vertex -35 -35 -35
      vertex -35 35 -35
    endloop
  endfacet
  facet normal 0 0 -1
    outer loop
      vertex 35 -35 -35
      vertex -35 35 -35
      vertex 35 35 -35
    endloop
  endfacet
  facet normal 0 -0.894427 0.447214
    outer loop
      vertex 35 -35 -35
      vertex 0 0 35
      vertex -35 -35 -35
    endloop
  endfacet
  facet normal 0.894427 0 0.447214
    outer loop
      vertex 35 35 -35
      vertex 0 0 35
      vertex 35 -35 -35
    endloop
  endfacet
  facet normal -0 0.894427 0.447214
    outer loop
      vertex -35 35 -35
      vertex 0 0 35
      vertex 35 35 -35
    endloop
  endfacet
  facet normal -0.894427 0 0.447214
    outer loop
      vertex -35 -35 -35
      vertex 0 0 35
      vertex -35 35 -35
    endloop
  endfacet
endsolid OpenSCAD_Model
