solid OpenSCAD_Model
  facet normal 0 0 -1
    outer loop
      vertex -40 -20 0
      vertex -40 20 0
      vertex 40 20 0
    endloop
  endfacet
  facet normal 0 0 -1
    outer loop
      vertex -40 -20 0
      vertex 40 20 0
      vertex 40 -20 0
    endloop
  endfacet
  facet normal 1 0 0
    outer loop
      vertex 40 -20 0
      vertex 40 20 0
      vertex 40 20 30
    endloop
  endfacet
  facet normal 1 0 0
    outer loop
      vertex 40 -20 0
      vertex 40 20 30
      vertex 40 -20 30
    endloop
  endfacet
  facet normal 0 0 1
    outer loop
      vertex 40 -20 30
      vertex 40 20 30
      vertex 0 20 30
    endloop
  endfacet
  facet normal 0 0 1
    outer loop
      vertex 40 -20 30
      vertex 0 20 30
      vertex 0 -20 30
    endloop
  endfacet
  facet normal 1 0 0
    outer loop
      vertex 0 -20 30
      vertex 0 20 30
      vertex 0 20 60
    endloop
  endfacet
  facet normal 1 0 0
    outer loop
      vertex 0 -20 30
      vertex 0 20 60
      vertex 0 -20 60
    endloop
  endfacet
  facet normal 0 0 1
    outer loop
      vertex 0 -20 60
      vertex 0 20 60
      vertex -40 20 60
    endloop
  endfacet
  facet normal 0 0 1
    outer loop
      vertex 0 -20 60
      vertex -40 20 60
      vertex -40 -20 60
    endloop
  endfacet
  facet normal -1 0 0
    outer loop
      vertex -40 -20 60
      vertex -40 20 60
      vertex -40 20 0
    endloop
  endfacet
  facet normal -1 0 0
    outer loop
      vertex -40 -20 60
      vertex -40 20 0
      vertex -40 -20 0
    endloop
  endfacet
  facet normal 0 -1 0
    outer loop
      vertex -40 -20 0
      vertex 40 -20 0
      vertex 40 -20 30
    endloop
  endfacet
  facet normal 0 1 0
    outer loop
      vertex -40 20 0
      vertex 40 20 30
      vertex 40 20 0
    endloop
  endfacet
  facet normal 0 -1 0
    outer loop
      vertex -40 -20 0
      vertex 40 -20 30
      vertex 0 -20 30
    endloop
  endfacet
  facet normal 0 1 0
    outer loop
      vertex -40 20 0
      vertex 0 20 30
      vertex 40 20 30
    endloop
  endfacet
  facet normal 0 -1 0
    outer loop
      vertex -40 -20 0
      vertex 0 -20 30
      vertex -40 -20 60
    endloop
  endfacet
  facet normal 0 1 0
    outer loop
      vertex -40 20 0
      vertex -40 20 60
      vertex 0 20 30
    endloop
  endfacet
  facet normal 0 -1 0
    outer loop
      vertex 0 -20 30
      vertex 0 -20 60
      vertex -40 -20 60
    endloop
  endfacet
  facet normal 0 1 0
    outer loop
      vertex 0 20 30
      vertex -40 20 60
      vertex 0 20 60
    endloop
  endfacet
endsolid OpenSCAD_Model
