solid OpenSCAD_Model
  facet normal 1 -0 0
    outer loop
      vertex 40 -15 30
      vertex 40 15 -30
      vertex 40 15 30
    endloop
  endfacet
  facet normal 1 0 0
    outer loop
      vertex 40 15 -30
      vertex 40 -15 30
      vertex 40 -15 -30
    endloop
  endfacet
  facet normal 0 0 1
    outer loop
      vertex -30 15 30
      vertex -40 15 30
      vertex -30 5 30
    endloop
  endfacet
  facet normal 0 0 1
    outer loop
      vertex -10 5 30
      vertex -30 5 30
      vertex -10 -10 30
    endloop
  endfacet
  facet normal 0 0 1
    outer loop
      vertex 30 5 30
      vertex 40 15 30
      vertex 30 15 30
    endloop
  endfacet
  facet normal 0 0 1
    outer loop
      vertex 40 15 30
      vertex 30 5 30
      vertex 40 -15 30
    endloop
  endfacet
  facet normal 0 0 1
    outer loop
      vertex 10 -10 30
      vertex 30 5 30
      vertex 10 5 30
    endloop
  endfacet
  facet normal 0 0 1
    outer loop
      vertex 30 5 30
      vertex 10 -10 30
      vertex 40 -15 30
    endloop
  endfacet
  facet normal -0 0 1
    outer loop
      vertex -10 -10 30
      vertex 40 -15 30
      vertex 10 -10 30
    endloop
  endfacet
  facet normal 0 0 1
    outer loop
      vertex -10 -10 30
      vertex -40 -15 30
      vertex 40 -15 30
    endloop
  endfacet
  facet normal 0 0 1
    outer loop
      vertex -30 5 30
      vertex -40 -15 30
      vertex -10 -10 30
    endloop
  endfacet
  facet normal 0 0 1
    outer loop
      vertex -40 -15 30
      vertex -30 5 30
      vertex -40 15 30
    endloop
  endfacet
  facet normal 0 0 -1
    outer loop
      vertex -40 -15 -30
      vertex 40 15 -30
      vertex 40 -15 -30
    endloop
  endfacet
  facet normal -0 0 -1
    outer loop
      vertex 40 15 -30
      vertex -40 -15 -30
      vertex -40 15 -30
    endloop
  endfacet
  facet normal -1 0 0
    outer loop
      vertex -40 -15 -30
      vertex -40 15 30
      vertex -40 15 -30
    endloop
  endfacet
  facet normal -1 -0 0
    outer loop
      vertex -40 15 30
      vertex -40 -15 -30
      vertex -40 -15 30
    endloop
  endfacet
  facet normal 0 1 0
    outer loop
      vertex 40 15 30
      vertex 30 15 0
      vertex 30 15 30
    endloop
  endfacet
  facet normal 0 1 0
    outer loop
      vertex 30 15 0
      vertex 40 15 -30
      vertex -30 15 0
    endloop
  endfacet
  facet normal 0 1 -0
    outer loop
      vertex 40 15 -30
      vertex 30 15 0
      vertex 40 15 30
    endloop
  endfacet
  facet normal 0 1 -0
    outer loop
      vertex -30 15 0
      vertex -40 15 30
      vertex -30 15 30
    endloop
  endfacet
  facet normal 0 1 0
    outer loop
      vertex -30 15 0
      vertex -40 15 -30
      vertex -40 15 30
    endloop
  endfacet
  facet normal 0 1 0
    outer loop
      vertex -40 15 -30
      vertex -30 15 0
      vertex 40 15 -30
    endloop
  endfacet
  facet normal 0 -1 0
    outer loop
      vertex -40 -15 -30
      vertex 40 -15 30
      vertex -40 -15 30
    endloop
  endfacet
  facet normal 0 -1 -0
    outer loop
      vertex 40 -15 30
      vertex -40 -15 -30
      vertex 40 -15 -30
    endloop
  endfacet
  facet normal -1 0 0
    outer loop
      vertex 30 5 0
      vertex 30 15 30
      vertex 30 15 0
    endloop
  endfacet
  facet normal -1 -0 0
    outer loop
      vertex 30 15 30
      vertex 30 5 0
      vertex 30 5 30
    endloop
  endfacet
  facet normal 0 0 1
    outer loop
      vertex 30 15 0
      vertex 10 5 0
      vertex 30 5 0
    endloop
  endfacet
  facet normal 0 0 1
    outer loop
      vertex 10 5 0
      vertex -10 5 0
      vertex 10 -10 0
    endloop
  endfacet
  facet normal 0 0 1
    outer loop
      vertex 30 15 0
      vertex -10 5 0
      vertex 10 5 0
    endloop
  endfacet
  facet normal -0 0 1
    outer loop
      vertex -30 15 0
      vertex -10 5 0
      vertex 30 15 0
    endloop
  endfacet
  facet normal 0 0 1
    outer loop
      vertex -10 5 0
      vertex -30 15 0
      vertex -30 5 0
    endloop
  endfacet
  facet normal 0 0 1
    outer loop
      vertex 10 -10 0
      vertex -10 5 0
      vertex -10 -10 0
    endloop
  endfacet
  facet normal 1 -0 0
    outer loop
      vertex -30 5 30
      vertex -30 15 0
      vertex -30 15 30
    endloop
  endfacet
  facet normal 1 0 0
    outer loop
      vertex -30 15 0
      vertex -30 5 30
      vertex -30 5 0
    endloop
  endfacet
  facet normal 0 1 -0
    outer loop
      vertex -10 5 0
      vertex -30 5 30
      vertex -10 5 30
    endloop
  endfacet
  facet normal 0 1 0
    outer loop
      vertex -30 5 30
      vertex -10 5 0
      vertex -30 5 0
    endloop
  endfacet
  facet normal 0 1 -0
    outer loop
      vertex 30 5 0
      vertex 10 5 30
      vertex 30 5 30
    endloop
  endfacet
  facet normal 0 1 0
    outer loop
      vertex 10 5 30
      vertex 30 5 0
      vertex 10 5 0
    endloop
  endfacet
  facet normal -1 0 0
    outer loop
      vertex 10 -10 0
      vertex 10 5 30
      vertex 10 5 0
    endloop
  endfacet
  facet normal -1 -0 0
    outer loop
      vertex 10 5 30
      vertex 10 -10 0
      vertex 10 -10 30
    endloop
  endfacet
  facet normal 1 -0 0
    outer loop
      vertex -10 -10 30
      vertex -10 5 0
      vertex -10 5 30
    endloop
  endfacet
  facet normal 1 0 0
    outer loop
      vertex -10 5 0
      vertex -10 -10 30
      vertex -10 -10 0
    endloop
  endfacet
  facet normal 0 1 -0
    outer loop
      vertex 10 -10 0
      vertex -10 -10 30
      vertex 10 -10 30
    endloop
  endfacet
  facet normal 0 1 0
    outer loop
      vertex -10 -10 30
      vertex 10 -10 0
      vertex -10 -10 0
    endloop
  endfacet
endsolid OpenSCAD_Model
