solid OpenSCAD_Model
  facet normal 0 0 -1
    outer loop
      vertex -40 -25 -25
      vertex -40 25 -25
      vertex 40 -25 -25
    endloop
  endfacet
  facet normal 0 0 1
    outer loop
      vertex 40 -25 25
      vertex -40 25 25
      vertex -40 -25 25
    endloop
  endfacet
  facet normal -1 0 0
    outer loop
      vertex -40 -25 -25
      vertex -40 25 25
      vertex -40 25 -25
    endloop
  endfacet
  facet normal -1 0 0
    outer loop
      vertex -40 -25 -25
      vertex -40 -25 25
      vertex -40 25 25
    endloop
  endfacet
  facet normal 0 -1 0
    outer loop
      vertex 40 -25 -25
      vertex -40 -25 25
      vertex -40 -25 -25
    endloop
  endfacet
  facet normal 0 -1 0
    outer loop
      vertex 40 -25 -25
      vertex 40 -25 25
      vertex -40 -25 25
    endloop
  endfacet
  facet normal 0.529999 0.847998 0
    outer loop
      vertex -40 25 -25
      vertex 40 -25 25
      vertex 40 -25 -25
    endloop
  endfacet
  facet normal 0.529999 0.847998 -0
    outer loop
      vertex -40 25 -25
      vertex -40 25 25
      vertex 40 -25 25
    endloop
  endfacet
endsolid OpenSCAD_Model
